<mxfile host="app.diagrams.net" agent="Mozilla/5.0 (Windows NT 10.0; Win64; x64) AppleWebKit/537.36 (KHTML, like Gecko) Chrome/127.0.0.0 Safari/537.36" version="24.7.5">
  <diagram name="Page-1" id="9J4MNKV5dbW1mFGjAgRI">
    <mxGraphModel dx="3132" dy="4042" grid="1" gridSize="10" guides="1" tooltips="1" connect="1" arrows="1" fold="1" page="1" pageScale="1" pageWidth="1169" pageHeight="1654" math="0" shadow="0">
      <root>
        <mxCell id="0" />
        <mxCell id="1" parent="0" />
        <UserObject label="" plantUmlData="{&#xa;  &quot;data&quot;: &quot;@startuml School Management System\n\nleft to right direction\nskinparam linetype polyline\n\nactor \&quot;User\&quot; as U\nactor \&quot;User\&quot; as UR\nactor \&quot;Student\&quot; as S\nactor \&quot;Student\&quot; as SR\nactor \&quot;Teacher\&quot; as T\nactor \&quot;Teacher\&quot; as TR\nactor \&quot;Sectional Head\&quot; as SH\nactor \&quot;Sectional Head\&quot; as SHR\nactor \&quot;Principal\&quot; as P\nactor \&quot;Principal\&quot; as PR\nactor \&quot;Administrator\&quot; as A\n\nU &lt;|-- S\nU &lt;|-- T\nT &lt;|-- SH\nSH &lt;|-- P\nP &lt;|-- A\n\nrectangle \&quot;School Management System\&quot; {\n        U -- (Enter the Attendance Daily)\n        (Enter the Attendance Daily) ..&gt; (Verify Using Fingerprint) : &lt;&lt;include&gt;&gt;\n        (Verify Using Fingerprint) ..&gt; (Update User Log) : &lt;&lt;include&gt;&gt;\n\n        U -- (Login)\n        (Login) ..&gt; (Validate User) : &lt;&lt;include&gt;&gt;\n        (Validate User) ..&gt; (Update User Log) : &lt;&lt;include&gt;&gt;\n\n        U -- (View User Profile)\n        (View User Profile) &lt;.. (Update User Profile) : &lt;&lt;extends&gt;&gt;\n        (Update User Profile) ..&gt; (Update User Log) : &lt;&lt;include&gt;&gt;\n\n        U -- (Comminication)\n        (Comminication) &lt;.. (Send Messages) : &lt;&lt;extends&gt;&gt;\n        (Send Messages) ..&gt; (Update User Log) : &lt;&lt;include&gt;&gt;\n\n        U -- (Logout)\n        (Logout) ..&gt; (Confirm) : &lt;&lt;include&gt;&gt;\n        (Confirm) ..&gt; (Update User Log) : &lt;&lt;include&gt;&gt;\n\n        (Notify Users) -- UR\n\n        S -- (View Educational Information)\n        (View Educational Information) &lt;.. (Submit Assessments) : &lt;&lt;extends&gt;&gt;\n\n        (Submit Assessments) ..&gt; (Update Educational Information) : &lt;&lt;include&gt;&gt;\n\n        S -- (View Exams Information)\n        (View Exams Information) &lt;.. (View Exams) : &lt;&lt;extends&gt;&gt;\n        (View Exams Information) &lt;.. (View Exam Results) : &lt;&lt;extends&gt;&gt;\n        (View Exam Results) &lt;.. (Apply for Recorrections) : &lt;&lt;extends&gt;&gt;\n        (View Exam Results) &lt;.. (Calculate GPA) : &lt;&lt;extends&gt;&gt;\n\n        (Update Student Informations) -- SR\n        (Update Educational Informations) -- SR\n        (Update Exam Informations) -- SR\n\n        T -- (View Student Informations)\n        (View Student Informations) &lt;.. (Create Student Informations) : &lt;&lt;extends&gt;&gt;\n        (View Student Informations) &lt;.. (Delete Student Informations) : &lt;&lt;extends&gt;&gt;\n        (View Student Informations) &lt;.. (Generate Student Attendance Reports) : &lt;&lt;extends&gt;&gt;\n        (View Student Informations) &lt;.. (Generate Student Performance Reports) : &lt;&lt;extends&gt;&gt;\n        (View Student Informations) &lt;.. (Generate Enrollment Reports) : &lt;&lt;extends&gt;&gt;\n\n        (Create Student Informations) ..&gt; (Update Student Informations) : &lt;&lt;include&gt;&gt;\n        (Delete Student Informations) ..&gt; (Update Student Informations) : &lt;&lt;include&gt;&gt;\n        (Generate Student Attendance Reports) ..&gt; (Update Student Informations) : &lt;&lt;include&gt;&gt;\n        (Generate Student Performance Reports) ..&gt; (Update Student Informations) : &lt;&lt;include&gt;&gt;\n        (Generate Enrollment Reports) ..&gt; (Update Student Informations): &lt;&lt;include&gt;&gt;\n\n        T -- (View Educational Informations)\n        (View Educational Informations) &lt;.. (Create Assessments) : &lt;&lt;extends&gt;&gt;\n        (View Educational Informations) &lt;.. (Edit Assessments) : &lt;&lt;extends&gt;&gt;\n        (View Educational Informations) &lt;.. (Delete Assessments) : &lt;&lt;extends&gt;&gt;\n        (View Educational Informations) &lt;.. (View Student Submissions) : &lt;&lt;extends&gt;&gt;\n        (View Educational Informations) &lt;.. (Grade Student Submissions) : &lt;&lt;extends&gt;&gt;\n\n        (Create Assessments) ..&gt; (Update Educational Informations): &lt;&lt;include&gt;&gt;\n        (Edit Assessments) ..&gt; (Update Educational Informations): &lt;&lt;include&gt;&gt;\n        (Delete Assessments) ..&gt; (Update Educational Informations): &lt;&lt;include&gt;&gt;\n        (Grade Student Submissions) ..&gt; (Update Educational Informations) : &lt;&lt;include&gt;&gt;\n\n        T -- (View Exam Informations)\n        (View Exam Informations) &lt;.. (Create Exams) : &lt;&lt;extends&gt;&gt;\n        (View Exam Informations) &lt;.. (Update Exams) : &lt;&lt;extends&gt;&gt;\n        (View Exam Informations) &lt;.. (Delete Exams) : &lt;&lt;extends&gt;&gt;\n        (View Exam Informations) &lt;.. (Edit Exam Results) : &lt;&lt;extends&gt;&gt;\n\n        (Create Exams) ..&gt; (Update Exam Informations) : &lt;&lt;include&gt;&gt;\n        (Update Exams) ..&gt; (Update Exam Informations) : &lt;&lt;include&gt;&gt;\n        (Delete Exams) ..&gt; (Update Exam Informations) : &lt;&lt;include&gt;&gt;\n        (Edit Exam Results) ..&gt; (Update Exam Informations) : &lt;&lt;include&gt;&gt;\n\n        (Update Educational Information) -- TR\n        (Apply for Recorrections) -- TR\n        (Notify Teachers) -- TR\n\n        SH -- (View Staff Informations)\n        (View Staff Informations) &lt;.. (Add Staff Members) : &lt;&lt;extends&gt;&gt;\n        (View Staff Informations) &lt;.. (Update Staff Members) : &lt;&lt;extends&gt;&gt;\n        (View Staff Informations) &lt;.. (Remove Staff Members) : &lt;&lt;extends&gt;&gt;\n        \n        SH -- (View Sectional Informations)\n        (View Sectional Informations) &lt;.. (Create Time Tables) : &lt;&lt;extends&gt;&gt;\n        (View Sectional Informations) &lt;.. (Update Time Tables) : &lt;&lt;extends&gt;&gt;\n        (View Sectional Informations) &lt;.. (Delete Time Tables) : &lt;&lt;extends&gt;&gt;\n\n        (Notify Sectional Heads) -- SHR\n\n        (Add Staff Members) ..&gt; (Notify Teachers) : &lt;&lt;include&gt;&gt;\n        (Update Staff Members) ..&gt; (Notify Teachers) : &lt;&lt;include&gt;&gt;\n        (Remove Staff Members) ..&gt; (Notify Teachers) : &lt;&lt;include&gt;&gt;\n        (Create Time Tables) ..&gt; (Notify Teachers): &lt;&lt;include&gt;&gt;\n        (Update Time Tables) ..&gt; (Notify Teachers) : &lt;&lt;include&gt;&gt;\n        (Delete Time Tables) ..&gt; (Notify Teachers) : &lt;&lt;include&gt;&gt;\n\n        P -- (Broadcast Announcements)\n        (Broadcast Announcements) ..&gt; (Select Users) : &lt;&lt;include&gt;&gt;\n\n        (Select Users) &lt;.. (Notify Users) : &lt;&lt;extends&gt;&gt;\n        (Select Users) &lt;.. (Notify Sectional Heads) : &lt;&lt;extends&gt;&gt;\n\n        (Notify Principals) -- PR\n\n        A -- (View User Informations)\n        (View User Informations) &lt;.. (Add User) : &lt;&lt;extends&gt;&gt;\n        (View User Informations) &lt;.. (Update User) : &lt;&lt;extends&gt;&gt;\n        (View User Informations) &lt;.. (Delete User) : &lt;&lt;extends&gt;&gt;\n\n        (Add User) ..&gt; (Update User Logs) : &lt;&lt;include&gt;&gt;\n        (Update User) ..&gt; (Update User Logs) : &lt;&lt;include&gt;&gt;\n        (Delete User) ..&gt; (Update User Logs) : &lt;&lt;include&gt;&gt;\n\n        A -- (View System Monitor)\n        (View System Monitor) &lt;.. (Generate User Engagement Reports) : &lt;&lt;extends&gt;&gt;\n        (View System Monitor) &lt;.. (Generate Performance Reports) : &lt;&lt;extends&gt;&gt;\n        (View System Monitor) &lt;.. (Generate System Utilization Reports) : &lt;&lt;extends&gt;&gt;\n        (View System Monitor) &lt;.. (Generate Content Popularity Reports) : &lt;&lt;extends&gt;&gt;\n        (View System Monitor) &lt;.. (Generate Monthly Attendance Reports) : &lt;&lt;extends&gt;&gt;\n\n        (Generate User Engagement Reports) ..&gt; (Notify Principals) : &lt;&lt;include&gt;&gt;\n        (Generate Performance Reports) ..&gt; (Notify Principals) : &lt;&lt;include&gt;&gt;\n        (Generate System Utilization Reports) ..&gt; (Notify Principals) : &lt;&lt;include&gt;&gt;\n        (Generate Content Popularity Reports) ..&gt; (Notify Principals) : &lt;&lt;include&gt;&gt;\n        (Generate Monthly Attendance Reports) ..&gt; (Notify Principals) : &lt;&lt;include&gt;&gt;\n}\n\n@enduml&quot;,&#xa;  &quot;format&quot;: &quot;svg&quot;&#xa;}" id="x-_saNNIWx3teG5J7QQn-2">
          <mxCell style="shape=image;noLabel=1;verticalAlign=top;aspect=fixed;imageAspect=0;image=data:image/svg+xml,PD94bWwgdmVyc2lvbj0iMS4wIiBlbmNvZGluZz0idXMtYXNjaWkiIHN0YW5kYWxvbmU9Im5vIj8+PHN2ZyB4bWxucz0iaHR0cDovL3d3dy53My5vcmcvMjAwMC9zdmciIHhtbG5zOnhsaW5rPSJodHRwOi8vd3d3LnczLm9yZy8xOTk5L3hsaW5rIiBjb250ZW50U3R5bGVUeXBlPSJ0ZXh0L2NzcyIgaGVpZ2h0PSIyODM1cHgiIHByZXNlcnZlQXNwZWN0UmF0aW89Im5vbmUiIHN0eWxlPSJ3aWR0aDoxODI0cHg7aGVpZ2h0OjI4MzVweDtiYWNrZ3JvdW5kOiNGRkZGRkY7IiB2ZXJzaW9uPSIxLjEiIHZpZXdCb3g9IjAgMCAxODI0IDI4MzUiIHdpZHRoPSIxODI0cHgiIHpvb21BbmRQYW49Im1hZ25pZnkiPjxkZWZzLz48Zz48IS0tY2x1c3RlciBTY2hvb2wgTWFuYWdlbWVudCBTeXN0ZW0tLT48ZyBpZD0iY2x1c3Rlcl9TY2hvb2wgTWFuYWdlbWVudCBTeXN0ZW0iPjxyZWN0IGZpbGw9Im5vbmUiIGhlaWdodD0iMjgyMiIgcng9IjIuNSIgcnk9IjIuNSIgc3R5bGU9InN0cm9rZTojMTgxODE4O3N0cm9rZS13aWR0aDoxLjA7IiB3aWR0aD0iMTA0NSIgeD0iNjI3IiB5PSI3Ii8+PHRleHQgZmlsbD0iIzAwMDAwMCIgZm9udC1mYW1pbHk9InNhbnMtc2VyaWYiIGZvbnQtc2l6ZT0iMTQiIGZvbnQtd2VpZ2h0PSJib2xkIiBsZW5ndGhBZGp1c3Q9InNwYWNpbmciIHRleHRMZW5ndGg9IjE3MCIgeD0iMTA2NC41IiB5PSIyMi4yMzQ0Ij5TY2hvb2wgTWFuYWdlbWVudCBTeXN0ZW08L3RleHQ+PC9nPjxnIGlkPSJlbGVtX0VudGVyIHRoZSBBdHRlbmRhbmNlIERhaWx5Ij48ZWxsaXBzZSBjeD0iNzYwLjk4MjMiIGN5PSIyNjQ5Ljc5NjUiIGZpbGw9IiNGMUYxRjEiIHJ4PSIxMDYuOTgyMyIgcnk9IjIzLjc5NjUiIHN0eWxlPSJzdHJva2U6IzE4MTgxODtzdHJva2Utd2lkdGg6MC41OyIvPjx0ZXh0IGZpbGw9IiMwMDAwMDAiIGZvbnQtZmFtaWx5PSJzYW5zLXNlcmlmIiBmb250LXNpemU9IjE0IiBsZW5ndGhBZGp1c3Q9InNwYWNpbmciIHRleHRMZW5ndGg9IjE4MiIgeD0iNjY5Ljk4MjMiIHk9IjI2NTMuNTM4NyI+RW50ZXIgdGhlIEF0dGVuZGFuY2UgRGFpbHk8L3RleHQ+PC9nPjxnIGlkPSJlbGVtX1ZlcmlmeSBVc2luZyBGaW5nZXJwcmludCI+PGVsbGlwc2UgY3g9IjExNDMuNDg1IiBjeT0iMjY0OS45OTciIGZpbGw9IiNGMUYxRjEiIHJ4PSIxMDAuNDg1IiByeT0iMjIuNDk3IiBzdHlsZT0ic3Ryb2tlOiMxODE4MTg7c3Ryb2tlLXdpZHRoOjAuNTsiLz48dGV4dCBmaWxsPSIjMDAwMDAwIiBmb250LWZhbWlseT0ic2Fucy1zZXJpZiIgZm9udC1zaXplPSIxNCIgbGVuZ3RoQWRqdXN0PSJzcGFjaW5nIiB0ZXh0TGVuZ3RoPSIxNjgiIHg9IjEwNTkuNDg1IiB5PSIyNjUzLjczOTIiPlZlcmlmeSBVc2luZyBGaW5nZXJwcmludDwvdGV4dD48L2c+PGcgaWQ9ImVsZW1fVXBkYXRlIFVzZXIgTG9nIj48ZWxsaXBzZSBjeD0iMTUzMS45NjYzIiBjeT0iMjY0OS44OTMzIiBmaWxsPSIjRjFGMUYxIiByeD0iNzIuNDY2MyIgcnk9IjE2Ljg5MzMiIHN0eWxlPSJzdHJva2U6IzE4MTgxODtzdHJva2Utd2lkdGg6MC41OyIvPjx0ZXh0IGZpbGw9IiMwMDAwMDAiIGZvbnQtZmFtaWx5PSJzYW5zLXNlcmlmIiBmb250LXNpemU9IjE0IiBsZW5ndGhBZGp1c3Q9InNwYWNpbmciIHRleHRMZW5ndGg9IjEwNSIgeD0iMTQ3OS40NjYzIiB5PSIyNjUzLjYzNTUiPlVwZGF0ZSBVc2VyIExvZzwvdGV4dD48L2c+PGcgaWQ9ImVsZW1fTG9naW4iPjxlbGxpcHNlIGN4PSI3NjEuMjM0IiBjeT0iMjcyMy4wOTU2IiBmaWxsPSIjRjFGMUYxIiByeD0iMzYuMjM0IiByeT0iMTMuNTk1NiIgc3R5bGU9InN0cm9rZTojMTgxODE4O3N0cm9rZS13aWR0aDowLjU7Ii8+PHRleHQgZmlsbD0iIzAwMDAwMCIgZm9udC1mYW1pbHk9InNhbnMtc2VyaWYiIGZvbnQtc2l6ZT0iMTQiIGxlbmd0aEFkanVzdD0ic3BhY2luZyIgdGV4dExlbmd0aD0iMzUiIHg9Ijc0My43MzQiIHk9IjI3MjYuODM3NyI+TG9naW48L3RleHQ+PC9nPjxnIGlkPSJlbGVtX1ZhbGlkYXRlIFVzZXIiPjxlbGxpcHNlIGN4PSIxMTQzLjY4MzQiIGN5PSIyNzIzLjIzNjciIGZpbGw9IiNGMUYxRjEiIHJ4PSI2Ni42ODM0IiByeT0iMTUuNzM2NyIgc3R5bGU9InN0cm9rZTojMTgxODE4O3N0cm9rZS13aWR0aDowLjU7Ii8+PHRleHQgZmlsbD0iIzAwMDAwMCIgZm9udC1mYW1pbHk9InNhbnMtc2VyaWYiIGZvbnQtc2l6ZT0iMTQiIGxlbmd0aEFkanVzdD0ic3BhY2luZyIgdGV4dExlbmd0aD0iOTEiIHg9IjEwOTguMTgzNCIgeT0iMjcyNi45Nzg5Ij5WYWxpZGF0ZSBVc2VyPC90ZXh0PjwvZz48ZyBpZD0iZWxlbV9WaWV3IFVzZXIgUHJvZmlsZSI+PGVsbGlwc2UgY3g9Ijc2MC44OTAyIiBjeT0iMjc5MC4xNzgiIGZpbGw9IiNGMUYxRjEiIHJ4PSI3OC44OTAyIiByeT0iMTguMTc4IiBzdHlsZT0ic3Ryb2tlOiMxODE4MTg7c3Ryb2tlLXdpZHRoOjAuNTsiLz48dGV4dCBmaWxsPSIjMDAwMDAwIiBmb250LWZhbWlseT0ic2Fucy1zZXJpZiIgZm9udC1zaXplPSIxNCIgbGVuZ3RoQWRqdXN0PSJzcGFjaW5nIiB0ZXh0TGVuZ3RoPSIxMjAiIHg9IjcwMC44OTAyIiB5PSIyNzkzLjkyMDIiPlZpZXcgVXNlciBQcm9maWxlPC90ZXh0PjwvZz48ZyBpZD0iZWxlbV9VcGRhdGUgVXNlciBQcm9maWxlIj48ZWxsaXBzZSBjeD0iMTE0My42MDYyIiBjeT0iMjc5Mi44MjEyIiBmaWxsPSIjRjFGMUYxIiByeD0iODQuNjA2MiIgcnk9IjE5LjMyMTIiIHN0eWxlPSJzdHJva2U6IzE4MTgxODtzdHJva2Utd2lkdGg6MC41OyIvPjx0ZXh0IGZpbGw9IiMwMDAwMDAiIGZvbnQtZmFtaWx5PSJzYW5zLXNlcmlmIiBmb250LXNpemU9IjE0IiBsZW5ndGhBZGp1c3Q9InNwYWNpbmciIHRleHRMZW5ndGg9IjEzMyIgeD0iMTA3Ny4xMDYyIiB5PSIyNzk2LjU2MzQiPlVwZGF0ZSBVc2VyIFByb2ZpbGU8L3RleHQ+PC9nPjxnIGlkPSJlbGVtX0NvbW1pbmljYXRpb24iPjxlbGxpcHNlIGN4PSI3NjAuOTk0NyIgY3k9IjI1MDguODk4OSIgZmlsbD0iI0YxRjFGMSIgcng9IjY3LjQ5NDciIHJ5PSIxNS44OTg5IiBzdHlsZT0ic3Ryb2tlOiMxODE4MTg7c3Ryb2tlLXdpZHRoOjAuNTsiLz48dGV4dCBmaWxsPSIjMDAwMDAwIiBmb250LWZhbWlseT0ic2Fucy1zZXJpZiIgZm9udC1zaXplPSIxNCIgbGVuZ3RoQWRqdXN0PSJzcGFjaW5nIiB0ZXh0TGVuZ3RoPSI5MyIgeD0iNzE0LjQ5NDciIHk9IjI1MTIuNjQxMSI+Q29tbWluaWNhdGlvbjwvdGV4dD48L2c+PGcgaWQ9ImVsZW1fU2VuZCBNZXNzYWdlcyI+PGVsbGlwc2UgY3g9IjExNDMuNjgzNCIgY3k9IjI1MTUuMjM2NyIgZmlsbD0iI0YxRjFGMSIgcng9IjY2LjY4MzQiIHJ5PSIxNS43MzY3IiBzdHlsZT0ic3Ryb2tlOiMxODE4MTg7c3Ryb2tlLXdpZHRoOjAuNTsiLz48dGV4dCBmaWxsPSIjMDAwMDAwIiBmb250LWZhbWlseT0ic2Fucy1zZXJpZiIgZm9udC1zaXplPSIxNCIgbGVuZ3RoQWRqdXN0PSJzcGFjaW5nIiB0ZXh0TGVuZ3RoPSI5MSIgeD0iMTA5OC4xODM0IiB5PSIyNTE4Ljk3ODkiPlNlbmQgTWVzc2FnZXM8L3RleHQ+PC9nPjxnIGlkPSJlbGVtX0xvZ291dCI+PGVsbGlwc2UgY3g9Ijc2MS4xODM4IiBjeT0iMjU3Ny4wOTU2IiBmaWxsPSIjRjFGMUYxIiByeD0iNDEuMTgzOCIgcnk9IjEzLjU5NTYiIHN0eWxlPSJzdHJva2U6IzE4MTgxODtzdHJva2Utd2lkdGg6MC41OyIvPjx0ZXh0IGZpbGw9IiMwMDAwMDAiIGZvbnQtZmFtaWx5PSJzYW5zLXNlcmlmIiBmb250LXNpemU9IjE0IiBsZW5ndGhBZGp1c3Q9InNwYWNpbmciIHRleHRMZW5ndGg9IjQyIiB4PSI3NDAuMTgzOCIgeT0iMjU4MC44Mzc3Ij5Mb2dvdXQ8L3RleHQ+PC9nPjxnIGlkPSJlbGVtX0NvbmZpcm0iPjxlbGxpcHNlIGN4PSIxMTQzLjM0MDYiIGN5PSIyNTc5LjA5NTYiIGZpbGw9IiNGMUYxRjEiIHJ4PSI0Ni44NDA2IiByeT0iMTMuNTk1NiIgc3R5bGU9InN0cm9rZTojMTgxODE4O3N0cm9rZS13aWR0aDowLjU7Ii8+PHRleHQgZmlsbD0iIzAwMDAwMCIgZm9udC1mYW1pbHk9InNhbnMtc2VyaWYiIGZvbnQtc2l6ZT0iMTQiIGxlbmd0aEFkanVzdD0ic3BhY2luZyIgdGV4dExlbmd0aD0iNTAiIHg9IjExMTguMzQwNiIgeT0iMjU4Mi44Mzc3Ij5Db25maXJtPC90ZXh0PjwvZz48ZyBpZD0iZWxlbV9Ob3RpZnkgVXNlcnMiPjxlbGxpcHNlIGN4PSIxNTMxLjg4NzgiIGN5PSI3MjEuMTc3NiIgZmlsbD0iI0YxRjFGMSIgcng9IjYzLjg4NzgiIHJ5PSIxNS4xNzc2IiBzdHlsZT0ic3Ryb2tlOiMxODE4MTg7c3Ryb2tlLXdpZHRoOjAuNTsiLz48dGV4dCBmaWxsPSIjMDAwMDAwIiBmb250LWZhbWlseT0ic2Fucy1zZXJpZiIgZm9udC1zaXplPSIxNCIgbGVuZ3RoQWRqdXN0PSJzcGFjaW5nIiB0ZXh0TGVuZ3RoPSI4NCIgeD0iMTQ4OS44ODc4IiB5PSI3MjQuOTE5NyI+Tm90aWZ5IFVzZXJzPC90ZXh0PjwvZz48ZyBpZD0iZWxlbV9WaWV3IEVkdWNhdGlvbmFsIEluZm9ybWF0aW9uIj48ZWxsaXBzZSBjeD0iNzYwLjk4MjQiIGN5PSI4MS43OTY1IiBmaWxsPSIjRjFGMUYxIiByeD0iMTE0LjQ4MjQiIHJ5PSIyNS4yOTY1IiBzdHlsZT0ic3Ryb2tlOiMxODE4MTg7c3Ryb2tlLXdpZHRoOjAuNTsiLz48dGV4dCBmaWxsPSIjMDAwMDAwIiBmb250LWZhbWlseT0ic2Fucy1zZXJpZiIgZm9udC1zaXplPSIxNCIgbGVuZ3RoQWRqdXN0PSJzcGFjaW5nIiB0ZXh0TGVuZ3RoPSIxOTgiIHg9IjY2MS45ODI0IiB5PSI4NS41Mzg3Ij5WaWV3IEVkdWNhdGlvbmFsIEluZm9ybWF0aW9uPC90ZXh0PjwvZz48ZyBpZD0iZWxlbV9TdWJtaXQgQXNzZXNzbWVudHMiPjxlbGxpcHNlIGN4PSIxMTQzLjM5MzUiIGN5PSI1OC44Nzg3IiBmaWxsPSIjRjFGMUYxIiByeD0iODIuMzkzNSIgcnk9IjE4Ljg3ODciIHN0eWxlPSJzdHJva2U6IzE4MTgxODtzdHJva2Utd2lkdGg6MC41OyIvPjx0ZXh0IGZpbGw9IiMwMDAwMDAiIGZvbnQtZmFtaWx5PSJzYW5zLXNlcmlmIiBmb250LXNpemU9IjE0IiBsZW5ndGhBZGp1c3Q9InNwYWNpbmciIHRleHRMZW5ndGg9IjEyOCIgeD0iMTA3OS4zOTM1IiB5PSI2Mi42MjA5Ij5TdWJtaXQgQXNzZXNzbWVudHM8L3RleHQ+PC9nPjxnIGlkPSJlbGVtX1VwZGF0ZSBFZHVjYXRpb25hbCBJbmZvcm1hdGlvbiI+PGVsbGlwc2UgY3g9IjE1MzIuMTI0NyIgY3k9IjY5LjAyNDkiIGZpbGw9IiNGMUYxRjEiIHJ4PSIxMjAuNjI0NyIgcnk9IjI2LjUyNDkiIHN0eWxlPSJzdHJva2U6IzE4MTgxODtzdHJva2Utd2lkdGg6MC41OyIvPjx0ZXh0IGZpbGw9IiMwMDAwMDAiIGZvbnQtZmFtaWx5PSJzYW5zLXNlcmlmIiBmb250LXNpemU9IjE0IiBsZW5ndGhBZGp1c3Q9InNwYWNpbmciIHRleHRMZW5ndGg9IjIxMSIgeD0iMTQyNi42MjQ3IiB5PSI3Mi43NjcxIj5VcGRhdGUgRWR1Y2F0aW9uYWwgSW5mb3JtYXRpb248L3RleHQ+PC9nPjxnIGlkPSJlbGVtX1ZpZXcgRXhhbXMgSW5mb3JtYXRpb24iPjxlbGxpcHNlIGN4PSI3NjAuOTMxNCIgY3k9IjE3Ny45ODYzIiBmaWxsPSIjRjFGMUYxIiByeD0iOTUuNDMxNCIgcnk9IjIxLjQ4NjMiIHN0eWxlPSJzdHJva2U6IzE4MTgxODtzdHJva2Utd2lkdGg6MC41OyIvPjx0ZXh0IGZpbGw9IiMwMDAwMDAiIGZvbnQtZmFtaWx5PSJzYW5zLXNlcmlmIiBmb250LXNpemU9IjE0IiBsZW5ndGhBZGp1c3Q9InNwYWNpbmciIHRleHRMZW5ndGg9IjE1NyIgeD0iNjgyLjQzMTQiIHk9IjE4MS43Mjg1Ij5WaWV3IEV4YW1zIEluZm9ybWF0aW9uPC90ZXh0PjwvZz48ZyBpZD0iZWxlbV9WaWV3IEV4YW1zIj48ZWxsaXBzZSBjeD0iMTE0My4yNzkiIGN5PSIxMjcuNzU1OCIgZmlsbD0iI0YxRjFGMSIgcng9IjU5LjI3OSIgcnk9IjE0LjI1NTgiIHN0eWxlPSJzdHJva2U6IzE4MTgxODtzdHJva2Utd2lkdGg6MC41OyIvPjx0ZXh0IGZpbGw9IiMwMDAwMDAiIGZvbnQtZmFtaWx5PSJzYW5zLXNlcmlmIiBmb250LXNpemU9IjE0IiBsZW5ndGhBZGp1c3Q9InNwYWNpbmciIHRleHRMZW5ndGg9IjcyIiB4PSIxMTA3LjI3OSIgeT0iMTMxLjQ5OCI+VmlldyBFeGFtczwvdGV4dD48L2c+PGcgaWQ9ImVsZW1fVmlldyBFeGFtIFJlc3VsdHMiPjxlbGxpcHNlIGN4PSIxMTQzLjMyNTQiIGN5PSIxOTUuNzY1MSIgZmlsbD0iI0YxRjFGMSIgcng9Ijc5LjMyNTQiIHJ5PSIxOC4yNjUxIiBzdHlsZT0ic3Ryb2tlOiMxODE4MTg7c3Ryb2tlLXdpZHRoOjAuNTsiLz48dGV4dCBmaWxsPSIjMDAwMDAwIiBmb250LWZhbWlseT0ic2Fucy1zZXJpZiIgZm9udC1zaXplPSIxNCIgbGVuZ3RoQWRqdXN0PSJzcGFjaW5nIiB0ZXh0TGVuZ3RoPSIxMjEiIHg9IjEwODIuODI1NCIgeT0iMTk5LjUwNzMiPlZpZXcgRXhhbSBSZXN1bHRzPC90ZXh0PjwvZz48ZyBpZD0iZWxlbV9BcHBseSBmb3IgUmVjb3JyZWN0aW9ucyI+PGVsbGlwc2UgY3g9IjE1MzEuNzYzMyIgY3k9IjIyMi44NTI3IiBmaWxsPSIjRjFGMUYxIiByeD0iOTcuMjYzMyIgcnk9IjIxLjg1MjciIHN0eWxlPSJzdHJva2U6IzE4MTgxODtzdHJva2Utd2lkdGg6MC41OyIvPjx0ZXh0IGZpbGw9IiMwMDAwMDAiIGZvbnQtZmFtaWx5PSJzYW5zLXNlcmlmIiBmb250LXNpemU9IjE0IiBsZW5ndGhBZGp1c3Q9InNwYWNpbmciIHRleHRMZW5ndGg9IjE2MSIgeD0iMTQ1MS4yNjMzIiB5PSIyMjYuNTk0OCI+QXBwbHkgZm9yIFJlY29ycmVjdGlvbnM8L3RleHQ+PC9nPjxnIGlkPSJlbGVtX0NhbGN1bGF0ZSBHUEEiPjxlbGxpcHNlIGN4PSIxNTMyLjE4MzQiIGN5PSIxNTAuMjM2NyIgZmlsbD0iI0YxRjFGMSIgcng9IjY2LjY4MzQiIHJ5PSIxNS43MzY3IiBzdHlsZT0ic3Ryb2tlOiMxODE4MTg7c3Ryb2tlLXdpZHRoOjAuNTsiLz48dGV4dCBmaWxsPSIjMDAwMDAwIiBmb250LWZhbWlseT0ic2Fucy1zZXJpZiIgZm9udC1zaXplPSIxNCIgbGVuZ3RoQWRqdXN0PSJzcGFjaW5nIiB0ZXh0TGVuZ3RoPSI5MSIgeD0iMTQ4Ni42ODM0IiB5PSIxNTMuOTc4OSI+Q2FsY3VsYXRlIEdQQTwvdGV4dD48L2c+PGcgaWQ9ImVsZW1fVXBkYXRlIFN0dWRlbnQgSW5mb3JtYXRpb25zIj48ZWxsaXBzZSBjeD0iMTUzMi4yMjM0IiBjeT0iMTY1NC4wNDQ3IiBmaWxsPSIjRjFGMUYxIiByeD0iMTEwLjcyMzQiIHJ5PSIyNC41NDQ3IiBzdHlsZT0ic3Ryb2tlOiMxODE4MTg7c3Ryb2tlLXdpZHRoOjAuNTsiLz48dGV4dCBmaWxsPSIjMDAwMDAwIiBmb250LWZhbWlseT0ic2Fucy1zZXJpZiIgZm9udC1zaXplPSIxNCIgbGVuZ3RoQWRqdXN0PSJzcGFjaW5nIiB0ZXh0TGVuZ3RoPSIxOTAiIHg9IjE0MzcuMjIzNCIgeT0iMTY1Ny43ODY5Ij5VcGRhdGUgU3R1ZGVudCBJbmZvcm1hdGlvbnM8L3RleHQ+PC9nPjxnIGlkPSJlbGVtX1VwZGF0ZSBFZHVjYXRpb25hbCBJbmZvcm1hdGlvbnMiPjxlbGxpcHNlIGN4PSIxNTMxLjk0NzYiIGN5PSIyMDY3LjE4OTUiIGZpbGw9IiNGMUYxRjEiIHJ4PSIxMjMuOTQ3NiIgcnk9IjI3LjE4OTUiIHN0eWxlPSJzdHJva2U6IzE4MTgxODtzdHJva2Utd2lkdGg6MC41OyIvPjx0ZXh0IGZpbGw9IiMwMDAwMDAiIGZvbnQtZmFtaWx5PSJzYW5zLXNlcmlmIiBmb250LXNpemU9IjE0IiBsZW5ndGhBZGp1c3Q9InNwYWNpbmciIHRleHRMZW5ndGg9IjIxOCIgeD0iMTQyMi45NDc2IiB5PSIyMDcwLjkzMTciPlVwZGF0ZSBFZHVjYXRpb25hbCBJbmZvcm1hdGlvbnM8L3RleHQ+PC9nPjxnIGlkPSJlbGVtX1VwZGF0ZSBFeGFtIEluZm9ybWF0aW9ucyI+PGVsbGlwc2UgY3g9IjE1MzEuOTA5IiBjeT0iMjMxMS4xODE4IiBmaWxsPSIjRjFGMUYxIiByeD0iMTAxLjQwOSIgcnk9IjIyLjY4MTgiIHN0eWxlPSJzdHJva2U6IzE4MTgxODtzdHJva2Utd2lkdGg6MC41OyIvPjx0ZXh0IGZpbGw9IiMwMDAwMDAiIGZvbnQtZmFtaWx5PSJzYW5zLXNlcmlmIiBmb250LXNpemU9IjE0IiBsZW5ndGhBZGp1c3Q9InNwYWNpbmciIHRleHRMZW5ndGg9IjE3MCIgeD0iMTQ0Ni45MDkiIHk9IjIzMTQuOTI0Ij5VcGRhdGUgRXhhbSBJbmZvcm1hdGlvbnM8L3RleHQ+PC9nPjxnIGlkPSJlbGVtX1ZpZXcgU3R1ZGVudCBJbmZvcm1hdGlvbnMiPjxlbGxpcHNlIGN4PSI3NjEuMTU0MiIgY3k9IjE2NTYuODMwOCIgZmlsbD0iI0YxRjFGMSIgcng9IjEwNC42NTQyIiByeT0iMjMuMzMwOCIgc3R5bGU9InN0cm9rZTojMTgxODE4O3N0cm9rZS13aWR0aDowLjU7Ii8+PHRleHQgZmlsbD0iIzAwMDAwMCIgZm9udC1mYW1pbHk9InNhbnMtc2VyaWYiIGZvbnQtc2l6ZT0iMTQiIGxlbmd0aEFkanVzdD0ic3BhY2luZyIgdGV4dExlbmd0aD0iMTc3IiB4PSI2NzIuNjU0MiIgeT0iMTY2MC41NzMiPlZpZXcgU3R1ZGVudCBJbmZvcm1hdGlvbnM8L3RleHQ+PC9nPjxnIGlkPSJlbGVtX0NyZWF0ZSBTdHVkZW50IEluZm9ybWF0aW9ucyI+PGVsbGlwc2UgY3g9IjExNDMuNzIzNCIgY3k9IjE0MzIuMDQ0NyIgZmlsbD0iI0YxRjFGMSIgcng9IjExMC43MjM0IiByeT0iMjQuNTQ0NyIgc3R5bGU9InN0cm9rZTojMTgxODE4O3N0cm9rZS13aWR0aDowLjU7Ii8+PHRleHQgZmlsbD0iIzAwMDAwMCIgZm9udC1mYW1pbHk9InNhbnMtc2VyaWYiIGZvbnQtc2l6ZT0iMTQiIGxlbmd0aEFkanVzdD0ic3BhY2luZyIgdGV4dExlbmd0aD0iMTkwIiB4PSIxMDQ4LjcyMzQiIHk9IjE0MzUuNzg2OSI+Q3JlYXRlIFN0dWRlbnQgSW5mb3JtYXRpb25zPC90ZXh0PjwvZz48ZyBpZD0iZWxlbV9EZWxldGUgU3R1ZGVudCBJbmZvcm1hdGlvbnMiPjxlbGxpcHNlIGN4PSIxMTQzLjcyMzQiIGN5PSIxNzkyLjA0NDciIGZpbGw9IiNGMUYxRjEiIHJ4PSIxMTAuNzIzNCIgcnk9IjI0LjU0NDciIHN0eWxlPSJzdHJva2U6IzE4MTgxODtzdHJva2Utd2lkdGg6MC41OyIvPjx0ZXh0IGZpbGw9IiMwMDAwMDAiIGZvbnQtZmFtaWx5PSJzYW5zLXNlcmlmIiBmb250LXNpemU9IjE0IiBsZW5ndGhBZGp1c3Q9InNwYWNpbmciIHRleHRMZW5ndGg9IjE5MCIgeD0iMTA0OC43MjM0IiB5PSIxNzk1Ljc4NjkiPkRlbGV0ZSBTdHVkZW50IEluZm9ybWF0aW9uczwvdGV4dD48L2c+PGcgaWQ9ImVsZW1fR2VuZXJhdGUgU3R1ZGVudCBBdHRlbmRhbmNlIFJlcG9ydHMiPjxlbGxpcHNlIGN4PSIxMTQzLjM0OTEiIGN5PSIxNzAxLjc2OTgiIGZpbGw9IiNGMUYxRjEiIHJ4PSIxMzYuODQ5MSIgcnk9IjI5Ljc2OTgiIHN0eWxlPSJzdHJva2U6IzE4MTgxODtzdHJva2Utd2lkdGg6MC41OyIvPjx0ZXh0IGZpbGw9IiMwMDAwMDAiIGZvbnQtZmFtaWx5PSJzYW5zLXNlcmlmIiBmb250LXNpemU9IjE0IiBsZW5ndGhBZGp1c3Q9InNwYWNpbmciIHRleHRMZW5ndGg9IjI0NSIgeD0iMTAyMC44NDkxIiB5PSIxNzA1LjUxMiI+R2VuZXJhdGUgU3R1ZGVudCBBdHRlbmRhbmNlIFJlcG9ydHM8L3RleHQ+PC9nPjxnIGlkPSJlbGVtX0dlbmVyYXRlIFN0dWRlbnQgUGVyZm9ybWFuY2UgUmVwb3J0cyI+PGVsbGlwc2UgY3g9IjExNDMuNjkzOCIgY3k9IjE2MDYuMDM4OCIgZmlsbD0iI0YxRjFGMSIgcng9IjE0MC42OTM4IiByeT0iMzAuNTM4OCIgc3R5bGU9InN0cm9rZTojMTgxODE4O3N0cm9rZS13aWR0aDowLjU7Ii8+PHRleHQgZmlsbD0iIzAwMDAwMCIgZm9udC1mYW1pbHk9InNhbnMtc2VyaWYiIGZvbnQtc2l6ZT0iMTQiIGxlbmd0aEFkanVzdD0ic3BhY2luZyIgdGV4dExlbmd0aD0iMjUzIiB4PSIxMDE3LjE5MzgiIHk9IjE2MDkuNzgwOSI+R2VuZXJhdGUgU3R1ZGVudCBQZXJmb3JtYW5jZSBSZXBvcnRzPC90ZXh0PjwvZz48ZyBpZD0iZWxlbV9HZW5lcmF0ZSBFbnJvbGxtZW50IFJlcG9ydHMiPjxlbGxpcHNlIGN4PSIxMTQzLjcyMzQiIGN5PSIxNTE2LjA0NDciIGZpbGw9IiNGMUYxRjEiIHJ4PSIxMTAuNzIzNCIgcnk9IjI0LjU0NDciIHN0eWxlPSJzdHJva2U6IzE4MTgxODtzdHJva2Utd2lkdGg6MC41OyIvPjx0ZXh0IGZpbGw9IiMwMDAwMDAiIGZvbnQtZmFtaWx5PSJzYW5zLXNlcmlmIiBmb250LXNpemU9IjE0IiBsZW5ndGhBZGp1c3Q9InNwYWNpbmciIHRleHRMZW5ndGg9IjE5MCIgeD0iMTA0OC43MjM0IiB5PSIxNTE5Ljc4NjkiPkdlbmVyYXRlIEVucm9sbG1lbnQgUmVwb3J0czwvdGV4dD48L2c+PGcgaWQ9ImVsZW1fVmlldyBFZHVjYXRpb25hbCBJbmZvcm1hdGlvbnMiPjxlbGxpcHNlIGN4PSI3NjAuNzg0OSIgY3k9IjIwMjcuOTU3IiBmaWxsPSIjRjFGMUYxIiByeD0iMTE3Ljc4NDkiIHJ5PSIyNS45NTciIHN0eWxlPSJzdHJva2U6IzE4MTgxODtzdHJva2Utd2lkdGg6MC41OyIvPjx0ZXh0IGZpbGw9IiMwMDAwMDAiIGZvbnQtZmFtaWx5PSJzYW5zLXNlcmlmIiBmb250LXNpemU9IjE0IiBsZW5ndGhBZGp1c3Q9InNwYWNpbmciIHRleHRMZW5ndGg9IjIwNSIgeD0iNjU4LjI4NDkiIHk9IjIwMzEuNjk5MiI+VmlldyBFZHVjYXRpb25hbCBJbmZvcm1hdGlvbnM8L3RleHQ+PC9nPjxnIGlkPSJlbGVtX0NyZWF0ZSBBc3Nlc3NtZW50cyI+PGVsbGlwc2UgY3g9IjExNDMuNDUzIiBjeT0iMTk1MC43OTA2IiBmaWxsPSIjRjFGMUYxIiByeD0iODEuOTUzIiByeT0iMTguNzkwNiIgc3R5bGU9InN0cm9rZTojMTgxODE4O3N0cm9rZS13aWR0aDowLjU7Ii8+PHRleHQgZmlsbD0iIzAwMDAwMCIgZm9udC1mYW1pbHk9InNhbnMtc2VyaWYiIGZvbnQtc2l6ZT0iMTQiIGxlbmd0aEFkanVzdD0ic3BhY2luZyIgdGV4dExlbmd0aD0iMTI3IiB4PSIxMDc5Ljk1MyIgeT0iMTk1NC41MzI4Ij5DcmVhdGUgQXNzZXNzbWVudHM8L3RleHQ+PC9nPjxnIGlkPSJlbGVtX0VkaXQgQXNzZXNzbWVudHMiPjxlbGxpcHNlIGN4PSIxMTQzLjM2NjgiIGN5PSIyMTc3LjA3MzQiIGZpbGw9IiNGMUYxRjEiIHJ4PSI3NS44NjY4IiByeT0iMTcuNTczNCIgc3R5bGU9InN0cm9rZTojMTgxODE4O3N0cm9rZS13aWR0aDowLjU7Ii8+PHRleHQgZmlsbD0iIzAwMDAwMCIgZm9udC1mYW1pbHk9InNhbnMtc2VyaWYiIGZvbnQtc2l6ZT0iMTQiIGxlbmd0aEFkanVzdD0ic3BhY2luZyIgdGV4dExlbmd0aD0iMTEzIiB4PSIxMDg2Ljg2NjgiIHk9IjIxODAuODE1NSI+RWRpdCBBc3Nlc3NtZW50czwvdGV4dD48L2c+PGcgaWQ9ImVsZW1fRGVsZXRlIEFzc2Vzc21lbnRzIj48ZWxsaXBzZSBjeD0iMTE0My40NTMiIGN5PSIyMTA0Ljc5MDYiIGZpbGw9IiNGMUYxRjEiIHJ4PSI4MS45NTMiIHJ5PSIxOC43OTA2IiBzdHlsZT0ic3Ryb2tlOiMxODE4MTg7c3Ryb2tlLXdpZHRoOjAuNTsiLz48dGV4dCBmaWxsPSIjMDAwMDAwIiBmb250LWZhbWlseT0ic2Fucy1zZXJpZiIgZm9udC1zaXplPSIxNCIgbGVuZ3RoQWRqdXN0PSJzcGFjaW5nIiB0ZXh0TGVuZ3RoPSIxMjciIHg9IjEwNzkuOTUzIiB5PSIyMTA4LjUzMjgiPkRlbGV0ZSBBc3Nlc3NtZW50czwvdGV4dD48L2c+PGcgaWQ9ImVsZW1fVmlldyBTdHVkZW50IFN1Ym1pc3Npb25zIj48ZWxsaXBzZSBjeD0iMTE0My40MDkiIGN5PSIxODc0LjE4MTgiIGZpbGw9IiNGMUYxRjEiIHJ4PSIxMDEuNDA5IiByeT0iMjIuNjgxOCIgc3R5bGU9InN0cm9rZTojMTgxODE4O3N0cm9rZS13aWR0aDowLjU7Ii8+PHRleHQgZmlsbD0iIzAwMDAwMCIgZm9udC1mYW1pbHk9InNhbnMtc2VyaWYiIGZvbnQtc2l6ZT0iMTQiIGxlbmd0aEFkanVzdD0ic3BhY2luZyIgdGV4dExlbmd0aD0iMTcwIiB4PSIxMDU4LjQwOSIgeT0iMTg3Ny45MjQiPlZpZXcgU3R1ZGVudCBTdWJtaXNzaW9uczwvdGV4dD48L2c+PGcgaWQ9ImVsZW1fR3JhZGUgU3R1ZGVudCBTdWJtaXNzaW9ucyI+PGVsbGlwc2UgY3g9IjExNDMuNjg5NSIgY3k9IjIwMjguMjM3OSIgZmlsbD0iI0YxRjFGMSIgcng9IjEwNC4xODk1IiByeT0iMjMuMjM3OSIgc3R5bGU9InN0cm9rZTojMTgxODE4O3N0cm9rZS13aWR0aDowLjU7Ii8+PHRleHQgZmlsbD0iIzAwMDAwMCIgZm9udC1mYW1pbHk9InNhbnMtc2VyaWYiIGZvbnQtc2l6ZT0iMTQiIGxlbmd0aEFkanVzdD0ic3BhY2luZyIgdGV4dExlbmd0aD0iMTc2IiB4PSIxMDU1LjY4OTUiIHk9IjIwMzEuOTgwMSI+R3JhZGUgU3R1ZGVudCBTdWJtaXNzaW9uczwvdGV4dD48L2c+PGcgaWQ9ImVsZW1fVmlldyBFeGFtIEluZm9ybWF0aW9ucyI+PGVsbGlwc2UgY3g9Ijc2MC45MzE0IiBjeT0iMjMxMC45ODYzIiBmaWxsPSIjRjFGMUYxIiByeD0iOTUuNDMxNCIgcnk9IjIxLjQ4NjMiIHN0eWxlPSJzdHJva2U6IzE4MTgxODtzdHJva2Utd2lkdGg6MC41OyIvPjx0ZXh0IGZpbGw9IiMwMDAwMDAiIGZvbnQtZmFtaWx5PSJzYW5zLXNlcmlmIiBmb250LXNpemU9IjE0IiBsZW5ndGhBZGp1c3Q9InNwYWNpbmciIHRleHRMZW5ndGg9IjE1NyIgeD0iNjgyLjQzMTQiIHk9IjIzMTQuNzI4NSI+VmlldyBFeGFtIEluZm9ybWF0aW9uczwvdGV4dD48L2c+PGcgaWQ9ImVsZW1fQ3JlYXRlIEV4YW1zIj48ZWxsaXBzZSBjeD0iMTE0My4yODI3IiBjeT0iMjM3Ni43NTY1IiBmaWxsPSIjRjFGMUYxIiByeD0iNjQuMjgyNyIgcnk9IjE1LjI1NjUiIHN0eWxlPSJzdHJva2U6IzE4MTgxODtzdHJva2Utd2lkdGg6MC41OyIvPjx0ZXh0IGZpbGw9IiMwMDAwMDAiIGZvbnQtZmFtaWx5PSJzYW5zLXNlcmlmIiBmb250LXNpemU9IjE0IiBsZW5ndGhBZGp1c3Q9InNwYWNpbmciIHRleHRMZW5ndGg9Ijg1IiB4PSIxMTAwLjc4MjciIHk9IjIzODAuNDk4NyI+Q3JlYXRlIEV4YW1zPC90ZXh0PjwvZz48ZyBpZD0iZWxlbV9VcGRhdGUgRXhhbXMiPjxlbGxpcHNlIGN4PSIxMTQzLjI4MjciIGN5PSIyMzEwLjc1NjUiIGZpbGw9IiNGMUYxRjEiIHJ4PSI2NC4yODI3IiByeT0iMTUuMjU2NSIgc3R5bGU9InN0cm9rZTojMTgxODE4O3N0cm9rZS13aWR0aDowLjU7Ii8+PHRleHQgZmlsbD0iIzAwMDAwMCIgZm9udC1mYW1pbHk9InNhbnMtc2VyaWYiIGZvbnQtc2l6ZT0iMTQiIGxlbmd0aEFkanVzdD0ic3BhY2luZyIgdGV4dExlbmd0aD0iODUiIHg9IjExMDAuNzgyNyIgeT0iMjMxNC40OTg3Ij5VcGRhdGUgRXhhbXM8L3RleHQ+PC9nPjxnIGlkPSJlbGVtX0RlbGV0ZSBFeGFtcyI+PGVsbGlwc2UgY3g9IjExNDMuMjgyNyIgY3k9IjIyNDQuNzU2NSIgZmlsbD0iI0YxRjFGMSIgcng9IjY0LjI4MjciIHJ5PSIxNS4yNTY1IiBzdHlsZT0ic3Ryb2tlOiMxODE4MTg7c3Ryb2tlLXdpZHRoOjAuNTsiLz48dGV4dCBmaWxsPSIjMDAwMDAwIiBmb250LWZhbWlseT0ic2Fucy1zZXJpZiIgZm9udC1zaXplPSIxNCIgbGVuZ3RoQWRqdXN0PSJzcGFjaW5nIiB0ZXh0TGVuZ3RoPSI4NSIgeD0iMTEwMC43ODI3IiB5PSIyMjQ4LjQ5ODciPkRlbGV0ZSBFeGFtczwvdGV4dD48L2c+PGcgaWQ9ImVsZW1fRWRpdCBFeGFtIFJlc3VsdHMiPjxlbGxpcHNlIGN4PSIxMTQzLjM5MDIiIGN5PSIyNDQ2LjE3OCIgZmlsbD0iI0YxRjFGMSIgcng9Ijc4Ljg5MDIiIHJ5PSIxOC4xNzgiIHN0eWxlPSJzdHJva2U6IzE4MTgxODtzdHJva2Utd2lkdGg6MC41OyIvPjx0ZXh0IGZpbGw9IiMwMDAwMDAiIGZvbnQtZmFtaWx5PSJzYW5zLXNlcmlmIiBmb250LXNpemU9IjE0IiBsZW5ndGhBZGp1c3Q9InNwYWNpbmciIHRleHRMZW5ndGg9IjEyMCIgeD0iMTA4My4zOTAyIiB5PSIyNDQ5LjkyMDIiPkVkaXQgRXhhbSBSZXN1bHRzPC90ZXh0PjwvZz48ZyBpZD0iZWxlbV9Ob3RpZnkgVGVhY2hlcnMiPjxlbGxpcHNlIGN4PSIxNTMxLjk2NjMiIGN5PSI0MTUuODkzMyIgZmlsbD0iI0YxRjFGMSIgcng9IjcyLjQ2NjMiIHJ5PSIxNi44OTMzIiBzdHlsZT0ic3Ryb2tlOiMxODE4MTg7c3Ryb2tlLXdpZHRoOjAuNTsiLz48dGV4dCBmaWxsPSIjMDAwMDAwIiBmb250LWZhbWlseT0ic2Fucy1zZXJpZiIgZm9udC1zaXplPSIxNCIgbGVuZ3RoQWRqdXN0PSJzcGFjaW5nIiB0ZXh0TGVuZ3RoPSIxMDUiIHg9IjE0NzkuNDY2MyIgeT0iNDE5LjYzNTUiPk5vdGlmeSBUZWFjaGVyczwvdGV4dD48L2c+PGcgaWQ9ImVsZW1fVmlldyBTdGFmZiBJbmZvcm1hdGlvbnMiPjxlbGxpcHNlIGN4PSI3NjEuMTgxOCIgY3k9IjM4Mi4wMzY0IiBmaWxsPSIjRjFGMUYxIiByeD0iOTguMTgxOCIgcnk9IjIyLjAzNjQiIHN0eWxlPSJzdHJva2U6IzE4MTgxODtzdHJva2Utd2lkdGg6MC41OyIvPjx0ZXh0IGZpbGw9IiMwMDAwMDAiIGZvbnQtZmFtaWx5PSJzYW5zLXNlcmlmIiBmb250LXNpemU9IjE0IiBsZW5ndGhBZGp1c3Q9InNwYWNpbmciIHRleHRMZW5ndGg9IjE2MyIgeD0iNjc5LjY4MTgiIHk9IjM4NS43Nzg1Ij5WaWV3IFN0YWZmIEluZm9ybWF0aW9uczwvdGV4dD48L2c+PGcgaWQ9ImVsZW1fQWRkIFN0YWZmIE1lbWJlcnMiPjxlbGxpcHNlIGN4PSIxMTQzLjM5MDIiIGN5PSIzNDMuMTc4IiBmaWxsPSIjRjFGMUYxIiByeD0iNzguODkwMiIgcnk9IjE4LjE3OCIgc3R5bGU9InN0cm9rZTojMTgxODE4O3N0cm9rZS13aWR0aDowLjU7Ii8+PHRleHQgZmlsbD0iIzAwMDAwMCIgZm9udC1mYW1pbHk9InNhbnMtc2VyaWYiIGZvbnQtc2l6ZT0iMTQiIGxlbmd0aEFkanVzdD0ic3BhY2luZyIgdGV4dExlbmd0aD0iMTIwIiB4PSIxMDgzLjM5MDIiIHk9IjM0Ni45MjAyIj5BZGQgU3RhZmYgTWVtYmVyczwvdGV4dD48L2c+PGcgaWQ9ImVsZW1fVXBkYXRlIFN0YWZmIE1lbWJlcnMiPjxlbGxpcHNlIGN4PSIxMTQzLjY3OTYiIGN5PSIyNzAuMDM1OSIgZmlsbD0iI0YxRjFGMSIgcng9Ijg4LjE3OTYiIHJ5PSIyMC4wMzU5IiBzdHlsZT0ic3Ryb2tlOiMxODE4MTg7c3Ryb2tlLXdpZHRoOjAuNTsiLz48dGV4dCBmaWxsPSIjMDAwMDAwIiBmb250LWZhbWlseT0ic2Fucy1zZXJpZiIgZm9udC1zaXplPSIxNCIgbGVuZ3RoQWRqdXN0PSJzcGFjaW5nIiB0ZXh0TGVuZ3RoPSIxNDEiIHg9IjEwNzMuMTc5NiIgeT0iMjczLjc3ODEiPlVwZGF0ZSBTdGFmZiBNZW1iZXJzPC90ZXh0PjwvZz48ZyBpZD0iZWxlbV9SZW1vdmUgU3RhZmYgTWVtYmVycyI+PGVsbGlwc2UgY3g9IjExNDMuNjI5IiBjeT0iNDE2LjEyNTgiIGZpbGw9IiNGMUYxRjEiIHJ4PSI4OC42MjkiIHJ5PSIyMC4xMjU4IiBzdHlsZT0ic3Ryb2tlOiMxODE4MTg7c3Ryb2tlLXdpZHRoOjAuNTsiLz48dGV4dCBmaWxsPSIjMDAwMDAwIiBmb250LWZhbWlseT0ic2Fucy1zZXJpZiIgZm9udC1zaXplPSIxNCIgbGVuZ3RoQWRqdXN0PSJzcGFjaW5nIiB0ZXh0TGVuZ3RoPSIxNDIiIHg9IjEwNzIuNjI5IiB5PSI0MTkuODY4Ij5SZW1vdmUgU3RhZmYgTWVtYmVyczwvdGV4dD48L2c+PGcgaWQ9ImVsZW1fVmlldyBTZWN0aW9uYWwgSW5mb3JtYXRpb25zIj48ZWxsaXBzZSBjeD0iNzYxLjE5MjMiIGN5PSI1NzkuMTM4NSIgZmlsbD0iI0YxRjFGMSIgcng9IjExMS4xOTIzIiByeT0iMjQuNjM4NSIgc3R5bGU9InN0cm9rZTojMTgxODE4O3N0cm9rZS13aWR0aDowLjU7Ii8+PHRleHQgZmlsbD0iIzAwMDAwMCIgZm9udC1mYW1pbHk9InNhbnMtc2VyaWYiIGZvbnQtc2l6ZT0iMTQiIGxlbmd0aEFkanVzdD0ic3BhY2luZyIgdGV4dExlbmd0aD0iMTkxIiB4PSI2NjUuNjkyMyIgeT0iNTgyLjg4MDYiPlZpZXcgU2VjdGlvbmFsIEluZm9ybWF0aW9uczwvdGV4dD48L2c+PGcgaWQ9ImVsZW1fQ3JlYXRlIFRpbWUgVGFibGVzIj48ZWxsaXBzZSBjeD0iMTE0My40NTMiIGN5PSI1NjIuNzkwNiIgZmlsbD0iI0YxRjFGMSIgcng9IjgxLjk1MyIgcnk9IjE4Ljc5MDYiIHN0eWxlPSJzdHJva2U6IzE4MTgxODtzdHJva2Utd2lkdGg6MC41OyIvPjx0ZXh0IGZpbGw9IiMwMDAwMDAiIGZvbnQtZmFtaWx5PSJzYW5zLXNlcmlmIiBmb250LXNpemU9IjE0IiBsZW5ndGhBZGp1c3Q9InNwYWNpbmciIHRleHRMZW5ndGg9IjEyNyIgeD0iMTA3OS45NTMiIHk9IjU2Ni41MzI4Ij5DcmVhdGUgVGltZSBUYWJsZXM8L3RleHQ+PC9nPjxnIGlkPSJlbGVtX1VwZGF0ZSBUaW1lIFRhYmxlcyI+PGVsbGlwc2UgY3g9IjExNDMuNDUzIiBjeT0iNDg5Ljc5MDYiIGZpbGw9IiNGMUYxRjEiIHJ4PSI4MS45NTMiIHJ5PSIxOC43OTA2IiBzdHlsZT0ic3Ryb2tlOiMxODE4MTg7c3Ryb2tlLXdpZHRoOjAuNTsiLz48dGV4dCBmaWxsPSIjMDAwMDAwIiBmb250LWZhbWlseT0ic2Fucy1zZXJpZiIgZm9udC1zaXplPSIxNCIgbGVuZ3RoQWRqdXN0PSJzcGFjaW5nIiB0ZXh0TGVuZ3RoPSIxMjciIHg9IjEwNzkuOTUzIiB5PSI0OTMuNTMyOCI+VXBkYXRlIFRpbWUgVGFibGVzPC90ZXh0PjwvZz48ZyBpZD0iZWxlbV9EZWxldGUgVGltZSBUYWJsZXMiPjxlbGxpcHNlIGN4PSIxMTQzLjQ1MyIgY3k9IjYzNS43OTA2IiBmaWxsPSIjRjFGMUYxIiByeD0iODEuOTUzIiByeT0iMTguNzkwNiIgc3R5bGU9InN0cm9rZTojMTgxODE4O3N0cm9rZS13aWR0aDowLjU7Ii8+PHRleHQgZmlsbD0iIzAwMDAwMCIgZm9udC1mYW1pbHk9InNhbnMtc2VyaWYiIGZvbnQtc2l6ZT0iMTQiIGxlbmd0aEFkanVzdD0ic3BhY2luZyIgdGV4dExlbmd0aD0iMTI3IiB4PSIxMDc5Ljk1MyIgeT0iNjM5LjUzMjgiPkRlbGV0ZSBUaW1lIFRhYmxlczwvdGV4dD48L2c+PGcgaWQ9ImVsZW1fTm90aWZ5IFNlY3Rpb25hbCBIZWFkcyI+PGVsbGlwc2UgY3g9IjE1MzIuMDYyMiIgY3k9IjY0MC4yMTI0IiBmaWxsPSIjRjFGMUYxIiByeD0iOTQuMDYyMiIgcnk9IjIxLjIxMjQiIHN0eWxlPSJzdHJva2U6IzE4MTgxODtzdHJva2Utd2lkdGg6MC41OyIvPjx0ZXh0IGZpbGw9IiMwMDAwMDAiIGZvbnQtZmFtaWx5PSJzYW5zLXNlcmlmIiBmb250LXNpemU9IjE0IiBsZW5ndGhBZGp1c3Q9InNwYWNpbmciIHRleHRMZW5ndGg9IjE1NCIgeD0iMTQ1NS4wNjIyIiB5PSI2NDMuOTU0NiI+Tm90aWZ5IFNlY3Rpb25hbCBIZWFkczwvdGV4dD48L2c+PGcgaWQ9ImVsZW1fQnJvYWRjYXN0IEFubm91bmNlbWVudHMiPjxlbGxpcHNlIGN4PSI3NjEuMjIyMyIgY3k9IjcwNC45NDQ1IiBmaWxsPSIjRjFGMUYxIiByeD0iOTcuNzIyMyIgcnk9IjIxLjk0NDUiIHN0eWxlPSJzdHJva2U6IzE4MTgxODtzdHJva2Utd2lkdGg6MC41OyIvPjx0ZXh0IGZpbGw9IiMwMDAwMDAiIGZvbnQtZmFtaWx5PSJzYW5zLXNlcmlmIiBmb250LXNpemU9IjE0IiBsZW5ndGhBZGp1c3Q9InNwYWNpbmciIHRleHRMZW5ndGg9IjE2MiIgeD0iNjgwLjIyMjMiIHk9IjcwOC42ODY3Ij5Ccm9hZGNhc3QgQW5ub3VuY2VtZW50czwvdGV4dD48L2c+PGcgaWQ9ImVsZW1fU2VsZWN0IFVzZXJzIj48ZWxsaXBzZSBjeD0iMTE0My4zODc4IiBjeT0iNzA1LjE3NzYiIGZpbGw9IiNGMUYxRjEiIHJ4PSI2My44ODc4IiByeT0iMTUuMTc3NiIgc3R5bGU9InN0cm9rZTojMTgxODE4O3N0cm9rZS13aWR0aDowLjU7Ii8+PHRleHQgZmlsbD0iIzAwMDAwMCIgZm9udC1mYW1pbHk9InNhbnMtc2VyaWYiIGZvbnQtc2l6ZT0iMTQiIGxlbmd0aEFkanVzdD0ic3BhY2luZyIgdGV4dExlbmd0aD0iODQiIHg9IjExMDEuMzg3OCIgeT0iNzA4LjkxOTciPlNlbGVjdCBVc2VyczwvdGV4dD48L2c+PGcgaWQ9ImVsZW1fTm90aWZ5IFByaW5jaXBhbHMiPjxlbGxpcHNlIGN4PSIxNTMxLjk1NTgiIGN5PSIxMTU0LjA5MTIiIGZpbGw9IiNGMUYxRjEiIHJ4PSI3OC40NTU4IiByeT0iMTguMDkxMiIgc3R5bGU9InN0cm9rZTojMTgxODE4O3N0cm9rZS13aWR0aDowLjU7Ii8+PHRleHQgZmlsbD0iIzAwMDAwMCIgZm9udC1mYW1pbHk9InNhbnMtc2VyaWYiIGZvbnQtc2l6ZT0iMTQiIGxlbmd0aEFkanVzdD0ic3BhY2luZyIgdGV4dExlbmd0aD0iMTE5IiB4PSIxNDcyLjQ1NTgiIHk9IjExNTcuODMzMyI+Tm90aWZ5IFByaW5jaXBhbHM8L3RleHQ+PC9nPjxnIGlkPSJlbGVtX1ZpZXcgVXNlciBJbmZvcm1hdGlvbnMiPjxlbGxpcHNlIGN4PSI3NjAuOTc0NiIgY3k9IjgzMi44OTQ5IiBmaWxsPSIjRjFGMUYxIiByeD0iOTQuOTc0NiIgcnk9IjIxLjM5NDkiIHN0eWxlPSJzdHJva2U6IzE4MTgxODtzdHJva2Utd2lkdGg6MC41OyIvPjx0ZXh0IGZpbGw9IiMwMDAwMDAiIGZvbnQtZmFtaWx5PSJzYW5zLXNlcmlmIiBmb250LXNpemU9IjE0IiBsZW5ndGhBZGp1c3Q9InNwYWNpbmciIHRleHRMZW5ndGg9IjE1NiIgeD0iNjgyLjk3NDYiIHk9IjgzNi42MzcxIj5WaWV3IFVzZXIgSW5mb3JtYXRpb25zPC90ZXh0PjwvZz48ZyBpZD0iZWxlbV9BZGQgVXNlciI+PGVsbGlwc2UgY3g9IjExNDMuNTgzMyIgY3k9IjgzMy4wOTU2IiBmaWxsPSIjRjFGMUYxIiByeD0iNTEuMDgzMyIgcnk9IjEzLjU5NTYiIHN0eWxlPSJzdHJva2U6IzE4MTgxODtzdHJva2Utd2lkdGg6MC41OyIvPjx0ZXh0IGZpbGw9IiMwMDAwMDAiIGZvbnQtZmFtaWx5PSJzYW5zLXNlcmlmIiBmb250LXNpemU9IjE0IiBsZW5ndGhBZGp1c3Q9InNwYWNpbmciIHRleHRMZW5ndGg9IjU2IiB4PSIxMTE1LjU4MzMiIHk9IjgzNi44Mzc3Ij5BZGQgVXNlcjwvdGV4dD48L2c+PGcgaWQ9ImVsZW1fVXBkYXRlIFVzZXIiPjxlbGxpcHNlIGN4PSIxMTQzLjY2ODUiIGN5PSI3NzAuMTMzNyIgZmlsbD0iI0YxRjFGMSIgcng9IjYxLjE2ODUiIHJ5PSIxNC42MzM3IiBzdHlsZT0ic3Ryb2tlOiMxODE4MTg7c3Ryb2tlLXdpZHRoOjAuNTsiLz48dGV4dCBmaWxsPSIjMDAwMDAwIiBmb250LWZhbWlseT0ic2Fucy1zZXJpZiIgZm9udC1zaXplPSIxNCIgbGVuZ3RoQWRqdXN0PSJzcGFjaW5nIiB0ZXh0TGVuZ3RoPSI3NyIgeD0iMTEwNS4xNjg1IiB5PSI3NzMuODc1OSI+VXBkYXRlIFVzZXI8L3RleHQ+PC9nPjxnIGlkPSJlbGVtX0RlbGV0ZSBVc2VyIj48ZWxsaXBzZSBjeD0iMTE0My42Njg1IiBjeT0iODk2LjEzMzciIGZpbGw9IiNGMUYxRjEiIHJ4PSI2MS4xNjg1IiByeT0iMTQuNjMzNyIgc3R5bGU9InN0cm9rZTojMTgxODE4O3N0cm9rZS13aWR0aDowLjU7Ii8+PHRleHQgZmlsbD0iIzAwMDAwMCIgZm9udC1mYW1pbHk9InNhbnMtc2VyaWYiIGZvbnQtc2l6ZT0iMTQiIGxlbmd0aEFkanVzdD0ic3BhY2luZyIgdGV4dExlbmd0aD0iNzciIHg9IjExMDUuMTY4NSIgeT0iODk5Ljg3NTkiPkRlbGV0ZSBVc2VyPC90ZXh0PjwvZz48ZyBpZD0iZWxlbV9VcGRhdGUgVXNlciBMb2dzIj48ZWxsaXBzZSBjeD0iMTUzMS45Mzg0IiBjeT0iODMyLjk4NzciIGZpbGw9IiNGMUYxRjEiIHJ4PSI3NS40Mzg0IiByeT0iMTcuNDg3NyIgc3R5bGU9InN0cm9rZTojMTgxODE4O3N0cm9rZS13aWR0aDowLjU7Ii8+PHRleHQgZmlsbD0iIzAwMDAwMCIgZm9udC1mYW1pbHk9InNhbnMtc2VyaWYiIGZvbnQtc2l6ZT0iMTQiIGxlbmd0aEFkanVzdD0ic3BhY2luZyIgdGV4dExlbmd0aD0iMTEyIiB4PSIxNDc1LjkzODQiIHk9IjgzNi43Mjk5Ij5VcGRhdGUgVXNlciBMb2dzPC90ZXh0PjwvZz48ZyBpZD0iZWxlbV9WaWV3IFN5c3RlbSBNb25pdG9yIj48ZWxsaXBzZSBjeD0iNzYwLjk5NTkiIGN5PSIxMTEyLjk5OTIiIGZpbGw9IiNGMUYxRjEiIHJ4PSI4NS40OTU5IiByeT0iMTkuNDk5MiIgc3R5bGU9InN0cm9rZTojMTgxODE4O3N0cm9rZS13aWR0aDowLjU7Ii8+PHRleHQgZmlsbD0iIzAwMDAwMCIgZm9udC1mYW1pbHk9InNhbnMtc2VyaWYiIGZvbnQtc2l6ZT0iMTQiIGxlbmd0aEFkanVzdD0ic3BhY2luZyIgdGV4dExlbmd0aD0iMTM1IiB4PSI2OTMuNDk1OSIgeT0iMTExNi43NDE0Ij5WaWV3IFN5c3RlbSBNb25pdG9yPC90ZXh0PjwvZz48ZyBpZD0iZWxlbV9HZW5lcmF0ZSBVc2VyIEVuZ2FnZW1lbnQgUmVwb3J0cyI+PGVsbGlwc2UgY3g9IjExNDMuMjgwMiIgY3k9IjExNTMuODU2IiBmaWxsPSIjRjFGMUYxIiByeD0iMTI3LjI4MDIiIHJ5PSIyNy44NTYiIHN0eWxlPSJzdHJva2U6IzE4MTgxODtzdHJva2Utd2lkdGg6MC41OyIvPjx0ZXh0IGZpbGw9IiMwMDAwMDAiIGZvbnQtZmFtaWx5PSJzYW5zLXNlcmlmIiBmb250LXNpemU9IjE0IiBsZW5ndGhBZGp1c3Q9InNwYWNpbmciIHRleHRMZW5ndGg9IjIyNSIgeD0iMTAzMC43ODAyIiB5PSIxMTU3LjU5ODIiPkdlbmVyYXRlIFVzZXIgRW5nYWdlbWVudCBSZXBvcnRzPC90ZXh0PjwvZz48ZyBpZD0iZWxlbV9HZW5lcmF0ZSBQZXJmb3JtYW5jZSBSZXBvcnRzIj48ZWxsaXBzZSBjeD0iMTE0My41MTE2IiBjeT0iMTA2Ni4yMDIzIiBmaWxsPSIjRjFGMUYxIiByeD0iMTE0LjAxMTYiIHJ5PSIyNS4yMDIzIiBzdHlsZT0ic3Ryb2tlOiMxODE4MTg7c3Ryb2tlLXdpZHRoOjAuNTsiLz48dGV4dCBmaWxsPSIjMDAwMDAwIiBmb250LWZhbWlseT0ic2Fucy1zZXJpZiIgZm9udC1zaXplPSIxNCIgbGVuZ3RoQWRqdXN0PSJzcGFjaW5nIiB0ZXh0TGVuZ3RoPSIxOTciIHg9IjEwNDUuMDExNiIgeT0iMTA2OS45NDQ1Ij5HZW5lcmF0ZSBQZXJmb3JtYW5jZSBSZXBvcnRzPC90ZXh0PjwvZz48ZyBpZD0iZWxlbV9HZW5lcmF0ZSBTeXN0ZW0gVXRpbGl6YXRpb24gUmVwb3J0cyI+PGVsbGlwc2UgY3g9IjExNDMuMzI5MiIgY3k9Ijk3NS44NjU4IiBmaWxsPSIjRjFGMUYxIiByeD0iMTM3LjMyOTIiIHJ5PSIyOS44NjU4IiBzdHlsZT0ic3Ryb2tlOiMxODE4MTg7c3Ryb2tlLXdpZHRoOjAuNTsiLz48dGV4dCBmaWxsPSIjMDAwMDAwIiBmb250LWZhbWlseT0ic2Fucy1zZXJpZiIgZm9udC1zaXplPSIxNCIgbGVuZ3RoQWRqdXN0PSJzcGFjaW5nIiB0ZXh0TGVuZ3RoPSIyNDYiIHg9IjEwMjAuMzI5MiIgeT0iOTc5LjYwOCI+R2VuZXJhdGUgU3lzdGVtIFV0aWxpemF0aW9uIFJlcG9ydHM8L3RleHQ+PC9nPjxnIGlkPSJlbGVtX0dlbmVyYXRlIENvbnRlbnQgUG9wdWxhcml0eSBSZXBvcnRzIj48ZWxsaXBzZSBjeD0iMTE0My4zNDkxIiBjeT0iMTM0MS43Njk4IiBmaWxsPSIjRjFGMUYxIiByeD0iMTM2Ljg0OTEiIHJ5PSIyOS43Njk4IiBzdHlsZT0ic3Ryb2tlOiMxODE4MTg7c3Ryb2tlLXdpZHRoOjAuNTsiLz48dGV4dCBmaWxsPSIjMDAwMDAwIiBmb250LWZhbWlseT0ic2Fucy1zZXJpZiIgZm9udC1zaXplPSIxNCIgbGVuZ3RoQWRqdXN0PSJzcGFjaW5nIiB0ZXh0TGVuZ3RoPSIyNDUiIHg9IjEwMjAuODQ5MSIgeT0iMTM0NS41MTIiPkdlbmVyYXRlIENvbnRlbnQgUG9wdWxhcml0eSBSZXBvcnRzPC90ZXh0PjwvZz48ZyBpZD0iZWxlbV9HZW5lcmF0ZSBNb250aGx5IEF0dGVuZGFuY2UgUmVwb3J0cyI+PGVsbGlwc2UgY3g9IjExNDMuMzQ5MSIgY3k9IjEyNDYuNzY5OCIgZmlsbD0iI0YxRjFGMSIgcng9IjEzNi44NDkxIiByeT0iMjkuNzY5OCIgc3R5bGU9InN0cm9rZTojMTgxODE4O3N0cm9rZS13aWR0aDowLjU7Ii8+PHRleHQgZmlsbD0iIzAwMDAwMCIgZm9udC1mYW1pbHk9InNhbnMtc2VyaWYiIGZvbnQtc2l6ZT0iMTQiIGxlbmd0aEFkanVzdD0ic3BhY2luZyIgdGV4dExlbmd0aD0iMjQ1IiB4PSIxMDIwLjg0OTEiIHk9IjEyNTAuNTEyIj5HZW5lcmF0ZSBNb250aGx5IEF0dGVuZGFuY2UgUmVwb3J0czwvdGV4dD48L2c+PCEtLWVudGl0eSBVLS0+PGcgaWQ9ImVsZW1fVSI+PGVsbGlwc2UgY3g9IjIwIiBjeT0iMjU0OCIgZmlsbD0iI0YxRjFGMSIgcng9IjgiIHJ5PSI4IiBzdHlsZT0ic3Ryb2tlOiMxODE4MTg7c3Ryb2tlLXdpZHRoOjAuNTsiLz48cGF0aCBkPSJNMjAsMjU1NiBMMjAsMjU4MyBNNywyNTY0IEwzMywyNTY0IE0yMCwyNTgzIEw3LDI1OTggTTIwLDI1ODMgTDMzLDI1OTggIiBmaWxsPSJub25lIiBzdHlsZT0ic3Ryb2tlOiMxODE4MTg7c3Ryb2tlLXdpZHRoOjAuNTsiLz48dGV4dCBmaWxsPSIjMDAwMDAwIiBmb250LWZhbWlseT0ic2Fucy1zZXJpZiIgZm9udC1zaXplPSIxNCIgbGVuZ3RoQWRqdXN0PSJzcGFjaW5nIiB0ZXh0TGVuZ3RoPSIyOCIgeD0iNiIgeT0iMjYxMi43MzQ0Ij5Vc2VyPC90ZXh0PjwvZz48IS0tZW50aXR5IFVSLS0+PGcgaWQ9ImVsZW1fVVIiPjxlbGxpcHNlIGN4PSIxNzY4IiBjeT0iNzAyIiBmaWxsPSIjRjFGMUYxIiByeD0iOCIgcnk9IjgiIHN0eWxlPSJzdHJva2U6IzE4MTgxODtzdHJva2Utd2lkdGg6MC41OyIvPjxwYXRoIGQ9Ik0xNzY4LDcxMCBMMTc2OCw3MzcgTTE3NTUsNzE4IEwxNzgxLDcxOCBNMTc2OCw3MzcgTDE3NTUsNzUyIE0xNzY4LDczNyBMMTc4MSw3NTIgIiBmaWxsPSJub25lIiBzdHlsZT0ic3Ryb2tlOiMxODE4MTg7c3Ryb2tlLXdpZHRoOjAuNTsiLz48dGV4dCBmaWxsPSIjMDAwMDAwIiBmb250LWZhbWlseT0ic2Fucy1zZXJpZiIgZm9udC1zaXplPSIxNCIgbGVuZ3RoQWRqdXN0PSJzcGFjaW5nIiB0ZXh0TGVuZ3RoPSIyOCIgeD0iMTc1NCIgeT0iNzY2LjczNDQiPlVzZXI8L3RleHQ+PC9nPjwhLS1lbnRpdHkgUy0tPjxnIGlkPSJlbGVtX1MiPjxlbGxpcHNlIGN4PSI1MzQiIGN5PSIxNDkiIGZpbGw9IiNGMUYxRjEiIHJ4PSI4IiByeT0iOCIgc3R5bGU9InN0cm9rZTojMTgxODE4O3N0cm9rZS13aWR0aDowLjU7Ii8+PHBhdGggZD0iTTUzNCwxNTcgTDUzNCwxODQgTTUyMSwxNjUgTDU0NywxNjUgTTUzNCwxODQgTDUyMSwxOTkgTTUzNCwxODQgTDU0NywxOTkgIiBmaWxsPSJub25lIiBzdHlsZT0ic3Ryb2tlOiMxODE4MTg7c3Ryb2tlLXdpZHRoOjAuNTsiLz48dGV4dCBmaWxsPSIjMDAwMDAwIiBmb250LWZhbWlseT0ic2Fucy1zZXJpZiIgZm9udC1zaXplPSIxNCIgbGVuZ3RoQWRqdXN0PSJzcGFjaW5nIiB0ZXh0TGVuZ3RoPSI0OSIgeD0iNTA5LjUiIHk9IjIxMy43MzQ0Ij5TdHVkZW50PC90ZXh0PjwvZz48IS0tZW50aXR5IFNSLS0+PGcgaWQ9ImVsZW1fU1IiPjxlbGxpcHNlIGN4PSIxNzY4IiBjeT0iMjAzOCIgZmlsbD0iI0YxRjFGMSIgcng9IjgiIHJ5PSI4IiBzdHlsZT0ic3Ryb2tlOiMxODE4MTg7c3Ryb2tlLXdpZHRoOjAuNTsiLz48cGF0aCBkPSJNMTc2OCwyMDQ2IEwxNzY4LDIwNzMgTTE3NTUsMjA1NCBMMTc4MSwyMDU0IE0xNzY4LDIwNzMgTDE3NTUsMjA4OCBNMTc2OCwyMDczIEwxNzgxLDIwODggIiBmaWxsPSJub25lIiBzdHlsZT0ic3Ryb2tlOiMxODE4MTg7c3Ryb2tlLXdpZHRoOjAuNTsiLz48dGV4dCBmaWxsPSIjMDAwMDAwIiBmb250LWZhbWlseT0ic2Fucy1zZXJpZiIgZm9udC1zaXplPSIxNCIgbGVuZ3RoQWRqdXN0PSJzcGFjaW5nIiB0ZXh0TGVuZ3RoPSI0OSIgeD0iMTc0My41IiB5PSIyMTAyLjczNDQiPlN0dWRlbnQ8L3RleHQ+PC9nPjwhLS1lbnRpdHkgVC0tPjxnIGlkPSJlbGVtX1QiPjxlbGxpcHNlIGN4PSIxMTkuNSIgY3k9IjE5OTkiIGZpbGw9IiNGMUYxRjEiIHJ4PSI4IiByeT0iOCIgc3R5bGU9InN0cm9rZTojMTgxODE4O3N0cm9rZS13aWR0aDowLjU7Ii8+PHBhdGggZD0iTTExOS41LDIwMDcgTDExOS41LDIwMzQgTTEwNi41LDIwMTUgTDEzMi41LDIwMTUgTTExOS41LDIwMzQgTDEwNi41LDIwNDkgTTExOS41LDIwMzQgTDEzMi41LDIwNDkgIiBmaWxsPSJub25lIiBzdHlsZT0ic3Ryb2tlOiMxODE4MTg7c3Ryb2tlLXdpZHRoOjAuNTsiLz48dGV4dCBmaWxsPSIjMDAwMDAwIiBmb250LWZhbWlseT0ic2Fucy1zZXJpZiIgZm9udC1zaXplPSIxNCIgbGVuZ3RoQWRqdXN0PSJzcGFjaW5nIiB0ZXh0TGVuZ3RoPSI0OSIgeD0iOTUiIHk9IjIwNjMuNzM0NCI+VGVhY2hlcjwvdGV4dD48L2c+PCEtLWVudGl0eSBUUi0tPjxnIGlkPSJlbGVtX1RSIj48ZWxsaXBzZSBjeD0iMTc2OCIgY3k9IjE5NCIgZmlsbD0iI0YxRjFGMSIgcng9IjgiIHJ5PSI4IiBzdHlsZT0ic3Ryb2tlOiMxODE4MTg7c3Ryb2tlLXdpZHRoOjAuNTsiLz48cGF0aCBkPSJNMTc2OCwyMDIgTDE3NjgsMjI5IE0xNzU1LDIxMCBMMTc4MSwyMTAgTTE3NjgsMjI5IEwxNzU1LDI0NCBNMTc2OCwyMjkgTDE3ODEsMjQ0ICIgZmlsbD0ibm9uZSIgc3R5bGU9InN0cm9rZTojMTgxODE4O3N0cm9rZS13aWR0aDowLjU7Ii8+PHRleHQgZmlsbD0iIzAwMDAwMCIgZm9udC1mYW1pbHk9InNhbnMtc2VyaWYiIGZvbnQtc2l6ZT0iMTQiIGxlbmd0aEFkanVzdD0ic3BhY2luZyIgdGV4dExlbmd0aD0iNDkiIHg9IjE3NDMuNSIgeT0iMjU4LjczNDQiPlRlYWNoZXI8L3RleHQ+PC9nPjwhLS1lbnRpdHkgU0gtLT48ZyBpZD0iZWxlbV9TSCI+PGVsbGlwc2UgY3g9IjI1NCIgY3k9IjYyNCIgZmlsbD0iI0YxRjFGMSIgcng9IjgiIHJ5PSI4IiBzdHlsZT0ic3Ryb2tlOiMxODE4MTg7c3Ryb2tlLXdpZHRoOjAuNTsiLz48cGF0aCBkPSJNMjU0LDYzMiBMMjU0LDY1OSBNMjQxLDY0MCBMMjY3LDY0MCBNMjU0LDY1OSBMMjQxLDY3NCBNMjU0LDY1OSBMMjY3LDY3NCAiIGZpbGw9Im5vbmUiIHN0eWxlPSJzdHJva2U6IzE4MTgxODtzdHJva2Utd2lkdGg6MC41OyIvPjx0ZXh0IGZpbGw9IiMwMDAwMDAiIGZvbnQtZmFtaWx5PSJzYW5zLXNlcmlmIiBmb250LXNpemU9IjE0IiBsZW5ndGhBZGp1c3Q9InNwYWNpbmciIHRleHRMZW5ndGg9Ijk4IiB4PSIyMDUiIHk9IjY4OC43MzQ0Ij5TZWN0aW9uYWwgSGVhZDwvdGV4dD48L2c+PCEtLWVudGl0eSBTSFItLT48ZyBpZD0iZWxlbV9TSFIiPjxlbGxpcHNlIGN4PSIxNzY4IiBjeT0iNTkyIiBmaWxsPSIjRjFGMUYxIiByeD0iOCIgcnk9IjgiIHN0eWxlPSJzdHJva2U6IzE4MTgxODtzdHJva2Utd2lkdGg6MC41OyIvPjxwYXRoIGQ9Ik0xNzY4LDYwMCBMMTc2OCw2MjcgTTE3NTUsNjA4IEwxNzgxLDYwOCBNMTc2OCw2MjcgTDE3NTUsNjQyIE0xNzY4LDYyNyBMMTc4MSw2NDIgIiBmaWxsPSJub25lIiBzdHlsZT0ic3Ryb2tlOiMxODE4MTg7c3Ryb2tlLXdpZHRoOjAuNTsiLz48dGV4dCBmaWxsPSIjMDAwMDAwIiBmb250LWZhbWlseT0ic2Fucy1zZXJpZiIgZm9udC1zaXplPSIxNCIgbGVuZ3RoQWRqdXN0PSJzcGFjaW5nIiB0ZXh0TGVuZ3RoPSI5OCIgeD0iMTcxOSIgeT0iNjU2LjczNDQiPlNlY3Rpb25hbCBIZWFkPC90ZXh0PjwvZz48IS0tZW50aXR5IFAtLT48ZyBpZD0iZWxlbV9QIj48ZWxsaXBzZSBjeD0iMzk1LjUiIGN5PSI2NzYiIGZpbGw9IiNGMUYxRjEiIHJ4PSI4IiByeT0iOCIgc3R5bGU9InN0cm9rZTojMTgxODE4O3N0cm9rZS13aWR0aDowLjU7Ii8+PHBhdGggZD0iTTM5NS41LDY4NCBMMzk1LjUsNzExIE0zODIuNSw2OTIgTDQwOC41LDY5MiBNMzk1LjUsNzExIEwzODIuNSw3MjYgTTM5NS41LDcxMSBMNDA4LjUsNzI2ICIgZmlsbD0ibm9uZSIgc3R5bGU9InN0cm9rZTojMTgxODE4O3N0cm9rZS13aWR0aDowLjU7Ii8+PHRleHQgZmlsbD0iIzAwMDAwMCIgZm9udC1mYW1pbHk9InNhbnMtc2VyaWYiIGZvbnQtc2l6ZT0iMTQiIGxlbmd0aEFkanVzdD0ic3BhY2luZyIgdGV4dExlbmd0aD0iNjMiIHg9IjM2NCIgeT0iNzQwLjczNDQiPlByaW5jaXBhbDwvdGV4dD48L2c+PCEtLWVudGl0eSBQUi0tPjxnIGlkPSJlbGVtX1BSIj48ZWxsaXBzZSBjeD0iMTc2OCIgY3k9IjExMjUiIGZpbGw9IiNGMUYxRjEiIHJ4PSI4IiByeT0iOCIgc3R5bGU9InN0cm9rZTojMTgxODE4O3N0cm9rZS13aWR0aDowLjU7Ii8+PHBhdGggZD0iTTE3NjgsMTEzMyBMMTc2OCwxMTYwIE0xNzU1LDExNDEgTDE3ODEsMTE0MSBNMTc2OCwxMTYwIEwxNzU1LDExNzUgTTE3NjgsMTE2MCBMMTc4MSwxMTc1ICIgZmlsbD0ibm9uZSIgc3R5bGU9InN0cm9rZTojMTgxODE4O3N0cm9rZS13aWR0aDowLjU7Ii8+PHRleHQgZmlsbD0iIzAwMDAwMCIgZm9udC1mYW1pbHk9InNhbnMtc2VyaWYiIGZvbnQtc2l6ZT0iMTQiIGxlbmd0aEFkanVzdD0ic3BhY2luZyIgdGV4dExlbmd0aD0iNjMiIHg9IjE3MzYuNSIgeT0iMTE4OS43MzQ0Ij5QcmluY2lwYWw8L3RleHQ+PC9nPjwhLS1lbnRpdHkgQS0tPjxnIGlkPSJlbGVtX0EiPjxlbGxpcHNlIGN4PSI1MzQiIGN5PSI4MDQiIGZpbGw9IiNGMUYxRjEiIHJ4PSI4IiByeT0iOCIgc3R5bGU9InN0cm9rZTojMTgxODE4O3N0cm9rZS13aWR0aDowLjU7Ii8+PHBhdGggZD0iTTUzNCw4MTIgTDUzNCw4MzkgTTUyMSw4MjAgTDU0Nyw4MjAgTTUzNCw4MzkgTDUyMSw4NTQgTTUzNCw4MzkgTDU0Nyw4NTQgIiBmaWxsPSJub25lIiBzdHlsZT0ic3Ryb2tlOiMxODE4MTg7c3Ryb2tlLXdpZHRoOjAuNTsiLz48dGV4dCBmaWxsPSIjMDAwMDAwIiBmb250LWZhbWlseT0ic2Fucy1zZXJpZiIgZm9udC1zaXplPSIxNCIgbGVuZ3RoQWRqdXN0PSJzcGFjaW5nIiB0ZXh0TGVuZ3RoPSI5MiIgeD0iNDg4IiB5PSI4NjguNzM0NCI+QWRtaW5pc3RyYXRvcjwvdGV4dD48L2c+PCEtLXJldmVyc2UgbGluayBVIHRvIFMtLT48ZyBpZD0ibGlua19VX1MiPjxwYXRoIGQ9Ik0yMy4zNDk1LDI1MjEuMzM2IEMzNS45NTk1LDIyMjIuNzM2IDExOC41LDI2OCAxMTguNSwyNjggQzExOC41LDI2OCAxMTguNSwyNjggMzk2LjUsMjY4IEMzOTYuNSwyNjggNDcwLjEyLDIxOS40NiA1MDkuMjIsMTkzLjY4ICIgZmlsbD0ibm9uZSIgaWQ9IlUtYmFja3RvLVMiIHN0eWxlPSJzdHJva2U6IzE4MTgxODtzdHJva2Utd2lkdGg6MS4wOyIvPjxwb2x5Z29uIGZpbGw9Im5vbmUiIHBvaW50cz0iMjIuNTksMjUzOS4zMiwyOS4zNDQxLDI1MjEuNTg5MiwxNy4zNTQ4LDI1MjEuMDgyOSwyMi41OSwyNTM5LjMyIiBzdHlsZT0ic3Ryb2tlOiMxODE4MTg7c3Ryb2tlLXdpZHRoOjEuMDsiLz48L2c+PCEtLXJldmVyc2UgbGluayBVIHRvIFQtLT48ZyBpZD0ibGlua19VX1QiPjxwYXRoIGQ9Ik0zMC44NDY4LDI1MjEuNTQ3MiBDNDguNjc2OCwyNDIxLjEyNzIgOTQsMjE2NS45NCAxMTEuODIsMjA2NS42NCAiIGZpbGw9Im5vbmUiIGlkPSJVLWJhY2t0by1UIiBzdHlsZT0ic3Ryb2tlOiMxODE4MTg7c3Ryb2tlLXdpZHRoOjEuMDsiLz48cG9seWdvbiBmaWxsPSJub25lIiBwb2ludHM9IjI3LjcsMjUzOS4yNywzNi43NTQ0LDI1MjIuNTk2MSwyNC45MzkyLDI1MjAuNDk4MywyNy43LDI1MzkuMjciIHN0eWxlPSJzdHJva2U6IzE4MTgxODtzdHJva2Utd2lkdGg6MS4wOyIvPjwvZz48IS0tcmV2ZXJzZSBsaW5rIFQgdG8gU0gtLT48ZyBpZD0ibGlua19UX1NIIj48cGF0aCBkPSJNMTI1Ljg3NiwxOTcyLjIzMjkgQzE0NC44NDYsMTc3NS4zMTI5IDIzMC40MSw4ODcuNCAyNDkuMzYsNjkwLjc0ICIgZmlsbD0ibm9uZSIgaWQ9IlQtYmFja3RvLVNIIiBzdHlsZT0ic3Ryb2tlOiMxODE4MTg7c3Ryb2tlLXdpZHRoOjEuMDsiLz48cG9seWdvbiBmaWxsPSJub25lIiBwb2ludHM9IjEyNC4xNSwxOTkwLjE1LDEzMS44NDg0LDE5NzIuODA4MywxMTkuOTAzNywxOTcxLjY1NzYsMTI0LjE1LDE5OTAuMTUiIHN0eWxlPSJzdHJva2U6IzE4MTgxODtzdHJva2Utd2lkdGg6MS4wOyIvPjwvZz48IS0tcmV2ZXJzZSBsaW5rIFNIIHRvIFAtLT48ZyBpZD0ibGlua19TSF9QIj48cGF0aCBkPSJNMzE5Ljg3NTksNjc3LjE4ODEgQzM0MC4wNDU5LDY4NC43MDgxIDM0Ni4wNiw2ODYuOTQgMzYzLjg5LDY5My41OSAiIGZpbGw9Im5vbmUiIGlkPSJTSC1iYWNrdG8tUCIgc3R5bGU9InN0cm9rZTojMTgxODE4O3N0cm9rZS13aWR0aDoxLjA7Ii8+PHBvbHlnb24gZmlsbD0ibm9uZSIgcG9pbnRzPSIzMDMuMDEsNjcwLjksMzE3Ljc3OTksNjgyLjgxMDEsMzIxLjk3Miw2NzEuNTY2MiwzMDMuMDEsNjcwLjkiIHN0eWxlPSJzdHJva2U6IzE4MTgxODtzdHJva2Utd2lkdGg6MS4wOyIvPjwvZz48IS0tcmV2ZXJzZSBsaW5rIFAgdG8gQS0tPjxnIGlkPSJsaW5rX1BfQSI+PHBhdGggZD0iTTQ0MC4yNjM4LDc0Ni4wMzg3IEM0NTkuNjgzOCw3NjQuMjM4NyA0NzEuODcsNzc1LjY4IDQ5Mi44OCw3OTUuMzggIiBmaWxsPSJub25lIiBpZD0iUC1iYWNrdG8tQSIgc3R5bGU9InN0cm9rZTojMTgxODE4O3N0cm9rZS13aWR0aDoxLjA7Ii8+PHBvbHlnb24gZmlsbD0ibm9uZSIgcG9pbnRzPSI0MjcuMTMsNzMzLjczLDQzNi4xNjA5LDc1MC40MTY2LDQ0NC4zNjY3LDc0MS42NjA4LDQyNy4xMyw3MzMuNzMiIHN0eWxlPSJzdHJva2U6IzE4MTgxODtzdHJva2Utd2lkdGg6MS4wOyIvPjwvZz48IS0tbGluayBVIHRvIEVudGVyIHRoZSBBdHRlbmRhbmNlIERhaWx5LS0+PGcgaWQ9ImxpbmtfVV9FbnRlciB0aGUgQXR0ZW5kYW5jZSBEYWlseSI+PHBhdGggZD0iTTM0LjE1LDI1ODYuNTggQzYwLjc2LDI2MDUuOTYgMTE4LjUsMjY0OCAxMTguNSwyNjQ4IEMxMTguNSwyNjQ4IDExOC41LDI2NDggNTM1LDI2NDggQzUzNSwyNjQ4IDU5NS41LDI2NDguNTQgNjUzLjc2LDI2NDkuMDYgIiBmaWxsPSJub25lIiBpZD0iVS1FbnRlciB0aGUgQXR0ZW5kYW5jZSBEYWlseSIgc3R5bGU9InN0cm9rZTojMTgxODE4O3N0cm9rZS13aWR0aDoxLjA7Ii8+PC9nPjwhLS1saW5rIEVudGVyIHRoZSBBdHRlbmRhbmNlIERhaWx5IHRvIFZlcmlmeSBVc2luZyBGaW5nZXJwcmludC0tPjxnIGlkPSJsaW5rX0VudGVyIHRoZSBBdHRlbmRhbmNlIERhaWx5X1ZlcmlmeSBVc2luZyBGaW5nZXJwcmludCI+PHBhdGggZD0iTTg2OC4yNCwyNjUwIEM5MjIuODgsMjY1MCA5ODMuMDksMjY1MCAxMDM2Ljc2LDI2NTAgIiBmaWxsPSJub25lIiBpZD0iRW50ZXIgdGhlIEF0dGVuZGFuY2UgRGFpbHktdG8tVmVyaWZ5IFVzaW5nIEZpbmdlcnByaW50IiBzdHlsZT0ic3Ryb2tlOiMxODE4MTg7c3Ryb2tlLXdpZHRoOjEuMDtzdHJva2UtZGFzaGFycmF5OjcuMCw3LjA7Ii8+PHBvbHlnb24gZmlsbD0iIzE4MTgxOCIgcG9pbnRzPSIxMDQyLjc2LDI2NTAsMTAzMy43NiwyNjQ2LDEwMzcuNzYsMjY1MCwxMDMzLjc2LDI2NTQsMTA0Mi43NiwyNjUwIiBzdHlsZT0ic3Ryb2tlOiMxODE4MTg7c3Ryb2tlLXdpZHRoOjEuMDsiLz48dGV4dCBmaWxsPSIjMDAwMDAwIiBmb250LWZhbWlseT0ic2Fucy1zZXJpZiIgZm9udC1zaXplPSIxMyIgbGVuZ3RoQWRqdXN0PSJzcGFjaW5nIiB0ZXh0TGVuZ3RoPSI2MSIgeD0iOTEwLjUiIHk9IjI2NDguMjg5MSI+JiMxNzE7aW5jbHVkZSYjMTg3OzwvdGV4dD48L2c+PCEtLWxpbmsgVmVyaWZ5IFVzaW5nIEZpbmdlcnByaW50IHRvIFVwZGF0ZSBVc2VyIExvZy0tPjxnIGlkPSJsaW5rX1ZlcmlmeSBVc2luZyBGaW5nZXJwcmludF9VcGRhdGUgVXNlciBMb2ciPjxwYXRoIGQ9Ik0xMjQ0LjAzLDI2NTAgQzEzMTEuMzYsMjY1MCAxMzkyLjcsMjY1MCAxNDUzLjI2LDI2NTAgIiBmaWxsPSJub25lIiBpZD0iVmVyaWZ5IFVzaW5nIEZpbmdlcnByaW50LXRvLVVwZGF0ZSBVc2VyIExvZyIgc3R5bGU9InN0cm9rZTojMTgxODE4O3N0cm9rZS13aWR0aDoxLjA7c3Ryb2tlLWRhc2hhcnJheTo3LjAsNy4wOyIvPjxwb2x5Z29uIGZpbGw9IiMxODE4MTgiIHBvaW50cz0iMTQ1OS4yNiwyNjUwLDE0NTAuMjYsMjY0NiwxNDU0LjI2LDI2NTAsMTQ1MC4yNiwyNjU0LDE0NTkuMjYsMjY1MCIgc3R5bGU9InN0cm9rZTojMTgxODE4O3N0cm9rZS13aWR0aDoxLjA7Ii8+PHRleHQgZmlsbD0iIzAwMDAwMCIgZm9udC1mYW1pbHk9InNhbnMtc2VyaWYiIGZvbnQtc2l6ZT0iMTMiIGxlbmd0aEFkanVzdD0ic3BhY2luZyIgdGV4dExlbmd0aD0iNjEiIHg9IjEzMTUuNSIgeT0iMjY0OC4yODkxIj4mIzE3MTtpbmNsdWRlJiMxODc7PC90ZXh0PjwvZz48IS0tbGluayBVIHRvIExvZ2luLS0+PGcgaWQ9ImxpbmtfVV9Mb2dpbiI+PHBhdGggZD0iTTM0LjE1LDI1OTYuMTUgQzYwLjc2LDI2MzQuOTEgMTE4LjUsMjcxOSAxMTguNSwyNzE5IEMxMTguNSwyNzE5IDExOC41LDI3MTkgNTM1LDI3MTkgQzUzNSwyNzE5IDY2MS41NiwyNzIxLjI1IDcyNC44NCwyNzIyLjM4ICIgZmlsbD0ibm9uZSIgaWQ9IlUtTG9naW4iIHN0eWxlPSJzdHJva2U6IzE4MTgxODtzdHJva2Utd2lkdGg6MS4wOyIvPjwvZz48IS0tbGluayBMb2dpbiB0byBWYWxpZGF0ZSBVc2VyLS0+PGcgaWQ9ImxpbmtfTG9naW5fVmFsaWRhdGUgVXNlciI+PHBhdGggZD0iTTc5Ny4xMSwyNzIzIEM4NjAuNjgsMjcyMyA5ODkuNzMsMjcyMyAxMDcwLjg1LDI3MjMgIiBmaWxsPSJub25lIiBpZD0iTG9naW4tdG8tVmFsaWRhdGUgVXNlciIgc3R5bGU9InN0cm9rZTojMTgxODE4O3N0cm9rZS13aWR0aDoxLjA7c3Ryb2tlLWRhc2hhcnJheTo3LjAsNy4wOyIvPjxwb2x5Z29uIGZpbGw9IiMxODE4MTgiIHBvaW50cz0iMTA3Ni44NSwyNzIzLDEwNjcuODUsMjcxOSwxMDcxLjg1LDI3MjMsMTA2Ny44NSwyNzI3LDEwNzYuODUsMjcyMyIgc3R5bGU9InN0cm9rZTojMTgxODE4O3N0cm9rZS13aWR0aDoxLjA7Ii8+PHRleHQgZmlsbD0iIzAwMDAwMCIgZm9udC1mYW1pbHk9InNhbnMtc2VyaWYiIGZvbnQtc2l6ZT0iMTMiIGxlbmd0aEFkanVzdD0ic3BhY2luZyIgdGV4dExlbmd0aD0iNjEiIHg9IjkxMC41IiB5PSIyNzIxLjI4OTEiPiYjMTcxO2luY2x1ZGUmIzE4Nzs8L3RleHQ+PC9nPjwhLS1saW5rIFZhbGlkYXRlIFVzZXIgdG8gVXBkYXRlIFVzZXIgTG9nLS0+PGcgaWQ9ImxpbmtfVmFsaWRhdGUgVXNlcl9VcGRhdGUgVXNlciBMb2ciPjxwYXRoIGQ9Ik0xMTk1LjgyLDI3MTMuMzEgQzEyNjguMzEsMjY5OS42MiAxMzk0LjI3NDMsMjY3NS44MjM3IDE0NjkuMTg0MywyNjYxLjY3MzcgIiBmaWxsPSJub25lIiBpZD0iVmFsaWRhdGUgVXNlci10by1VcGRhdGUgVXNlciBMb2ciIHN0eWxlPSJzdHJva2U6IzE4MTgxODtzdHJva2Utd2lkdGg6MS4wO3N0cm9rZS1kYXNoYXJyYXk6Ny4wLDcuMDsiLz48cG9seWdvbiBmaWxsPSIjMTgxODE4IiBwb2ludHM9IjE0NzUuMDgsMjY2MC41NiwxNDY1LjQ5MzksMjY1OC4zLDE0NzAuMTY2OSwyNjYxLjQ4ODEsMTQ2Ni45Nzg4LDI2NjYuMTYxLDE0NzUuMDgsMjY2MC41NiIgc3R5bGU9InN0cm9rZTojMTgxODE4O3N0cm9rZS13aWR0aDoxLjA7Ii8+PHRleHQgZmlsbD0iIzAwMDAwMCIgZm9udC1mYW1pbHk9InNhbnMtc2VyaWYiIGZvbnQtc2l6ZT0iMTMiIGxlbmd0aEFkanVzdD0ic3BhY2luZyIgdGV4dExlbmd0aD0iNjEiIHg9IjEzMTUuNSIgeT0iMjY3Ny4yODkxIj4mIzE3MTtpbmNsdWRlJiMxODc7PC90ZXh0PjwvZz48IS0tbGluayBVIHRvIFZpZXcgVXNlciBQcm9maWxlLS0+PGcgaWQ9ImxpbmtfVV9WaWV3IFVzZXIgUHJvZmlsZSI+PHBhdGggZD0iTTM0LjE1LDI2MDUuNzMgQzYwLjc2LDI2NjMuODcgMTE4LjUsMjc5MCAxMTguNSwyNzkwIEMxMTguNSwyNzkwIDExOC41LDI3OTAgNTM1LDI3OTAgQzUzNSwyNzkwIDYxNi45NSwyNzkwIDY4MS45NCwyNzkwICIgZmlsbD0ibm9uZSIgaWQ9IlUtVmlldyBVc2VyIFByb2ZpbGUiIHN0eWxlPSJzdHJva2U6IzE4MTgxODtzdHJva2Utd2lkdGg6MS4wOyIvPjwvZz48IS0tcmV2ZXJzZSBsaW5rIFZpZXcgVXNlciBQcm9maWxlIHRvIFVwZGF0ZSBVc2VyIFByb2ZpbGUtLT48ZyBpZD0ibGlua19WaWV3IFVzZXIgUHJvZmlsZV9VcGRhdGUgVXNlciBQcm9maWxlIj48cGF0aCBkPSJNODQ2LjM3OTgsMjc5MC42NjcxIEM5MTAuMTE5OCwyNzkxLjE2NzEgOTkzLjg1LDI3OTEuODMgMTA1OC45NSwyNzkyLjM0ICIgZmlsbD0ibm9uZSIgaWQ9IlZpZXcgVXNlciBQcm9maWxlLWJhY2t0by1VcGRhdGUgVXNlciBQcm9maWxlIiBzdHlsZT0ic3Ryb2tlOiMxODE4MTg7c3Ryb2tlLXdpZHRoOjEuMDtzdHJva2UtZGFzaGFycmF5OjcuMCw3LjA7Ii8+PHBvbHlnb24gZmlsbD0iIzE4MTgxOCIgcG9pbnRzPSI4NDAuMzgsMjc5MC42Miw4NDkuMzQ4MywyNzk0LjY5MDUsODQ1LjM3OTgsMjc5MC42NTkyLDg0OS40MTExLDI3ODYuNjkwNyw4NDAuMzgsMjc5MC42MiIgc3R5bGU9InN0cm9rZTojMTgxODE4O3N0cm9rZS13aWR0aDoxLjA7Ii8+PHRleHQgZmlsbD0iIzAwMDAwMCIgZm9udC1mYW1pbHk9InNhbnMtc2VyaWYiIGZvbnQtc2l6ZT0iMTMiIGxlbmd0aEFkanVzdD0ic3BhY2luZyIgdGV4dExlbmd0aD0iNjIiIHg9IjkxMCIgeT0iMjc4OS4yODkxIj4mIzE3MTtleHRlbmRzJiMxODc7PC90ZXh0PjwvZz48IS0tbGluayBVcGRhdGUgVXNlciBQcm9maWxlIHRvIFVwZGF0ZSBVc2VyIExvZy0tPjxnIGlkPSJsaW5rX1VwZGF0ZSBVc2VyIFByb2ZpbGVfVXBkYXRlIFVzZXIgTG9nIj48cGF0aCBkPSJNMTE5OS42MywyNzc4LjM4IEMxMjM4LjYzLDI3NjguMDMgMTI4NCwyNzU2IDEyODQsMjc1NiBDMTI4NCwyNzU2IDE0MjIuOTA2MiwyNjk2LjM4NiAxNDkwLjg4NjIsMjY2Ny4yMTYgIiBmaWxsPSJub25lIiBpZD0iVXBkYXRlIFVzZXIgUHJvZmlsZS10by1VcGRhdGUgVXNlciBMb2ciIHN0eWxlPSJzdHJva2U6IzE4MTgxODtzdHJva2Utd2lkdGg6MS4wO3N0cm9rZS1kYXNoYXJyYXk6Ny4wLDcuMDsiLz48cG9seWdvbiBmaWxsPSIjMTgxODE4IiBwb2ludHM9IjE0OTYuNCwyNjY0Ljg1LDE0ODYuNTUyLDI2NjQuNzIzMSwxNDkxLjgwNTEsMjY2Ni44MjE2LDE0ODkuNzA2NiwyNjcyLjA3NDgsMTQ5Ni40LDI2NjQuODUiIHN0eWxlPSJzdHJva2U6IzE4MTgxODtzdHJva2Utd2lkdGg6MS4wOyIvPjx0ZXh0IGZpbGw9IiMwMDAwMDAiIGZvbnQtZmFtaWx5PSJzYW5zLXNlcmlmIiBmb250LXNpemU9IjEzIiBsZW5ndGhBZGp1c3Q9InNwYWNpbmciIHRleHRMZW5ndGg9IjYxIiB4PSIxMzE1LjUiIHk9IjI3MTYuMjg5MSI+JiMxNzE7aW5jbHVkZSYjMTg3OzwvdGV4dD48L2c+PCEtLWxpbmsgVSB0byBDb21taW5pY2F0aW9uLS0+PGcgaWQ9ImxpbmtfVV9Db21taW5pY2F0aW9uIj48cGF0aCBkPSJNMzQuMTUsMjU2Ny40MiBDNjAuNzYsMjU0OC4wNCAxMTguNSwyNTA2IDExOC41LDI1MDYgQzExOC41LDI1MDYgMTE4LjUsMjUwNiA1MzUsMjUwNiBDNTM1LDI1MDYgNjI3LjA2LDI1MDcuMjMgNjkzLjQxLDI1MDguMTEgIiBmaWxsPSJub25lIiBpZD0iVS1Db21taW5pY2F0aW9uIiBzdHlsZT0ic3Ryb2tlOiMxODE4MTg7c3Ryb2tlLXdpZHRoOjEuMDsiLz48L2c+PCEtLXJldmVyc2UgbGluayBDb21taW5pY2F0aW9uIHRvIFNlbmQgTWVzc2FnZXMtLT48ZyBpZD0ibGlua19Db21taW5pY2F0aW9uX1NlbmQgTWVzc2FnZXMiPjxwYXRoIGQ9Ik04MzQuNzA5MywyNTEwLjE0NDQgQzkwNC42MTkzLDI1MTEuMjQ0NCAxMDA3Ljc0LDI1MTIuODcgMTA3Ny4xNCwyNTEzLjk3ICIgZmlsbD0ibm9uZSIgaWQ9IkNvbW1pbmljYXRpb24tYmFja3RvLVNlbmQgTWVzc2FnZXMiIHN0eWxlPSJzdHJva2U6IzE4MTgxODtzdHJva2Utd2lkdGg6MS4wO3N0cm9rZS1kYXNoYXJyYXk6Ny4wLDcuMDsiLz48cG9seWdvbiBmaWxsPSIjMTgxODE4IiBwb2ludHM9IjgyOC43MSwyNTEwLjA1LDgzNy42NDYsMjUxNC4xOTExLDgzMy43MDk0LDI1MTAuMTI4Nyw4MzcuNzcxOCwyNTA2LjE5MjEsODI4LjcxLDI1MTAuMDUiIHN0eWxlPSJzdHJva2U6IzE4MTgxODtzdHJva2Utd2lkdGg6MS4wOyIvPjx0ZXh0IGZpbGw9IiMwMDAwMDAiIGZvbnQtZmFtaWx5PSJzYW5zLXNlcmlmIiBmb250LXNpemU9IjEzIiBsZW5ndGhBZGp1c3Q9InNwYWNpbmciIHRleHRMZW5ndGg9IjYyIiB4PSI5MTAiIHk9IjI1MTAuMjg5MSI+JiMxNzE7ZXh0ZW5kcyYjMTg3OzwvdGV4dD48L2c+PCEtLWxpbmsgU2VuZCBNZXNzYWdlcyB0byBVcGRhdGUgVXNlciBMb2ctLT48ZyBpZD0ibGlua19TZW5kIE1lc3NhZ2VzX1VwZGF0ZSBVc2VyIExvZyI+PHBhdGggZD0iTTExOTAuOTUsMjUyNS45OSBDMTIzMS41MywyNTM1LjU5IDEyODQsMjU0OCAxMjg0LDI1NDggQzEyODQsMjU0OCAxNDIxLjQwNDQsMjYwNC43Mzk2IDE0ODkuODA0NCwyNjMyLjk4OTYgIiBmaWxsPSJub25lIiBpZD0iU2VuZCBNZXNzYWdlcy10by1VcGRhdGUgVXNlciBMb2ciIHN0eWxlPSJzdHJva2U6IzE4MTgxODtzdHJva2Utd2lkdGg6MS4wO3N0cm9rZS1kYXNoYXJyYXk6Ny4wLDcuMDsiLz48cG9seWdvbiBmaWxsPSIjMTgxODE4IiBwb2ludHM9IjE0OTUuMzUsMjYzNS4yOCwxNDg4LjU1ODUsMjYyOC4xNDczLDE0OTAuNzI4NiwyNjMzLjM3MTMsMTQ4NS41MDQ2LDI2MzUuNTQxNSwxNDk1LjM1LDI2MzUuMjgiIHN0eWxlPSJzdHJva2U6IzE4MTgxODtzdHJva2Utd2lkdGg6MS4wOyIvPjx0ZXh0IGZpbGw9IiMwMDAwMDAiIGZvbnQtZmFtaWx5PSJzYW5zLXNlcmlmIiBmb250LXNpemU9IjEzIiBsZW5ndGhBZGp1c3Q9InNwYWNpbmciIHRleHRMZW5ndGg9IjYxIiB4PSIxMzE1LjUiIHk9IjI1NTkuMjg5MSI+JiMxNzE7aW5jbHVkZSYjMTg3OzwvdGV4dD48L2c+PCEtLWxpbmsgVSB0byBMb2dvdXQtLT48ZyBpZD0ibGlua19VX0xvZ291dCI+PHBhdGggZD0iTTM0LjE1LDI1NzcgQzYwLjc2LDI1NzcgMTE4LjUsMjU3NyAxMTguNSwyNTc3IEMxMTguNSwyNTc3IDExOC41LDI1NzcgNTM1LDI1NzcgQzUzNSwyNTc3IDY1NS4wNiwyNTc3IDcxOS43NywyNTc3ICIgZmlsbD0ibm9uZSIgaWQ9IlUtTG9nb3V0IiBzdHlsZT0ic3Ryb2tlOiMxODE4MTg7c3Ryb2tlLXdpZHRoOjEuMDsiLz48L2c+PCEtLWxpbmsgTG9nb3V0IHRvIENvbmZpcm0tLT48ZyBpZD0ibGlua19Mb2dvdXRfQ29uZmlybSI+PHBhdGggZD0iTTgwMiwyNTc3LjIxIEM4NzMuMDgsMjU3Ny41OCAxMDE0Ljk2MDEsMjU3OC4zMjgxIDEwOTAuMjcwMSwyNTc4LjcyODEgIiBmaWxsPSJub25lIiBpZD0iTG9nb3V0LXRvLUNvbmZpcm0iIHN0eWxlPSJzdHJva2U6IzE4MTgxODtzdHJva2Utd2lkdGg6MS4wO3N0cm9rZS1kYXNoYXJyYXk6Ny4wLDcuMDsiLz48cG9seWdvbiBmaWxsPSIjMTgxODE4IiBwb2ludHM9IjEwOTYuMjcsMjU3OC43NiwxMDg3LjI5MTQsMjU3NC43MTIzLDEwOTEuMjcwMSwyNTc4LjczMzQsMTA4Ny4yNDg5LDI1ODIuNzEyMSwxMDk2LjI3LDI1NzguNzYiIHN0eWxlPSJzdHJva2U6IzE4MTgxODtzdHJva2Utd2lkdGg6MS4wOyIvPjx0ZXh0IGZpbGw9IiMwMDAwMDAiIGZvbnQtZmFtaWx5PSJzYW5zLXNlcmlmIiBmb250LXNpemU9IjEzIiBsZW5ndGhBZGp1c3Q9InNwYWNpbmciIHRleHRMZW5ndGg9IjYxIiB4PSI5MTAuNSIgeT0iMjU3Ni4yODkxIj4mIzE3MTtpbmNsdWRlJiMxODc7PC90ZXh0PjwvZz48IS0tbGluayBDb25maXJtIHRvIFVwZGF0ZSBVc2VyIExvZy0tPjxnIGlkPSJsaW5rX0NvbmZpcm1fVXBkYXRlIFVzZXIgTG9nIj48cGF0aCBkPSJNMTE4My42OSwyNTg2LjIgQzEyNTIuMzksMjU5OC44MiAxMzg4LjkxODgsMjYyMy44OTU4IDE0NjguMzg4OCwyNjM4LjQ5NTggIiBmaWxsPSJub25lIiBpZD0iQ29uZmlybS10by1VcGRhdGUgVXNlciBMb2ciIHN0eWxlPSJzdHJva2U6IzE4MTgxODtzdHJva2Utd2lkdGg6MS4wO3N0cm9rZS1kYXNoYXJyYXk6Ny4wLDcuMDsiLz48cG9seWdvbiBmaWxsPSIjMTgxODE4IiBwb2ludHM9IjE0NzQuMjksMjYzOS41OCwxNDY2LjE2MDksMjYzNC4wMTk2LDE0NjkuMzcyMywyNjM4LjY3NjUsMTQ2NC43MTU0LDI2NDEuODg3OSwxNDc0LjI5LDI2MzkuNTgiIHN0eWxlPSJzdHJva2U6IzE4MTgxODtzdHJva2Utd2lkdGg6MS4wOyIvPjx0ZXh0IGZpbGw9IiMwMDAwMDAiIGZvbnQtZmFtaWx5PSJzYW5zLXNlcmlmIiBmb250LXNpemU9IjEzIiBsZW5ndGhBZGp1c3Q9InNwYWNpbmciIHRleHRMZW5ndGg9IjYxIiB4PSIxMzE1LjUiIHk9IjI2MDguMjg5MSI+JiMxNzE7aW5jbHVkZSYjMTg3OzwvdGV4dD48L2c+PCEtLWxpbmsgTm90aWZ5IFVzZXJzIHRvIFVSLS0+PGcgaWQ9ImxpbmtfTm90aWZ5IFVzZXJzX1VSIj48cGF0aCBkPSJNMTU5NS4wOSw3MjMuNjUgQzE2NDkuMjUsNzI1Ljk3IDE3MjMuNzEsNzI5LjE1IDE3NTMuNyw3MzAuNDMgIiBmaWxsPSJub25lIiBpZD0iTm90aWZ5IFVzZXJzLVVSIiBzdHlsZT0ic3Ryb2tlOiMxODE4MTg7c3Ryb2tlLXdpZHRoOjEuMDsiLz48L2c+PCEtLWxpbmsgUyB0byBWaWV3IEVkdWNhdGlvbmFsIEluZm9ybWF0aW9uLS0+PGcgaWQ9ImxpbmtfU19WaWV3IEVkdWNhdGlvbmFsIEluZm9ybWF0aW9uIj48cGF0aCBkPSJNNTU4Ljg1LDE2Ni45MyBDNTgzLjY4LDE1NS40IDYxOSwxMzkgNjE5LDEzOSBDNjE5LDEzOSA2NjUuMTgsMTIwLjMzIDcwNC42OCwxMDQuMzYgIiBmaWxsPSJub25lIiBpZD0iUy1WaWV3IEVkdWNhdGlvbmFsIEluZm9ybWF0aW9uIiBzdHlsZT0ic3Ryb2tlOiMxODE4MTg7c3Ryb2tlLXdpZHRoOjEuMDsiLz48L2c+PCEtLXJldmVyc2UgbGluayBWaWV3IEVkdWNhdGlvbmFsIEluZm9ybWF0aW9uIHRvIFN1Ym1pdCBBc3Nlc3NtZW50cy0tPjxnIGlkPSJsaW5rX1ZpZXcgRWR1Y2F0aW9uYWwgSW5mb3JtYXRpb25fU3VibWl0IEFzc2Vzc21lbnRzIj48cGF0aCBkPSJNODc3Ljc4OTEsNzQuOTk4MiBDOTM5LjAzOTEsNzEuMjk4MiAxMDA3LjkyLDY3LjEzIDEwNjMuMzksNjMuNzggIiBmaWxsPSJub25lIiBpZD0iVmlldyBFZHVjYXRpb25hbCBJbmZvcm1hdGlvbi1iYWNrdG8tU3VibWl0IEFzc2Vzc21lbnRzIiBzdHlsZT0ic3Ryb2tlOiMxODE4MTg7c3Ryb2tlLXdpZHRoOjEuMDtzdHJva2UtZGFzaGFycmF5OjcuMCw3LjA7Ii8+PHBvbHlnb24gZmlsbD0iIzE4MTgxOCIgcG9pbnRzPSI4NzEuOCw3NS4zNiw4ODEuMDI0OCw3OC44MSw4NzYuNzkwOSw3NS4wNTg1LDg4MC41NDI0LDcwLjgyNDYsODcxLjgsNzUuMzYiIHN0eWxlPSJzdHJva2U6IzE4MTgxODtzdHJva2Utd2lkdGg6MS4wOyIvPjx0ZXh0IGZpbGw9IiMwMDAwMDAiIGZvbnQtZmFtaWx5PSJzYW5zLXNlcmlmIiBmb250LXNpemU9IjEzIiBsZW5ndGhBZGp1c3Q9InNwYWNpbmciIHRleHRMZW5ndGg9IjYyIiB4PSI5MTAiIHk9IjY4LjI4OTEiPiYjMTcxO2V4dGVuZHMmIzE4Nzs8L3RleHQ+PC9nPjwhLS1saW5rIFN1Ym1pdCBBc3Nlc3NtZW50cyB0byBVcGRhdGUgRWR1Y2F0aW9uYWwgSW5mb3JtYXRpb24tLT48ZyBpZD0ibGlua19TdWJtaXQgQXNzZXNzbWVudHNfVXBkYXRlIEVkdWNhdGlvbmFsIEluZm9ybWF0aW9uIj48cGF0aCBkPSJNMTIyNS41Miw2MS4xIEMxMjc5LjY0LDYyLjUgMTM0NS43NDIsNjQuMjA0NSAxNDA2LjMwMiw2NS43NzQ1ICIgZmlsbD0ibm9uZSIgaWQ9IlN1Ym1pdCBBc3Nlc3NtZW50cy10by1VcGRhdGUgRWR1Y2F0aW9uYWwgSW5mb3JtYXRpb24iIHN0eWxlPSJzdHJva2U6IzE4MTgxODtzdHJva2Utd2lkdGg6MS4wO3N0cm9rZS1kYXNoYXJyYXk6Ny4wLDcuMDsiLz48cG9seWdvbiBmaWxsPSIjMTgxODE4IiBwb2ludHM9IjE0MTIuMyw2NS45MywxNDAzLjQwNjcsNjEuNjk4MSwxNDA3LjMwMTcsNjUuODAwNCwxNDAzLjE5OTQsNjkuNjk1NCwxNDEyLjMsNjUuOTMiIHN0eWxlPSJzdHJva2U6IzE4MTgxODtzdHJva2Utd2lkdGg6MS4wOyIvPjx0ZXh0IGZpbGw9IiMwMDAwMDAiIGZvbnQtZmFtaWx5PSJzYW5zLXNlcmlmIiBmb250LXNpemU9IjEzIiBsZW5ndGhBZGp1c3Q9InNwYWNpbmciIHRleHRMZW5ndGg9IjYxIiB4PSIxMzE1LjUiIHk9IjYyLjI4OTEiPiYjMTcxO2luY2x1ZGUmIzE4Nzs8L3RleHQ+PC9nPjwhLS1saW5rIFMgdG8gVmlldyBFeGFtcyBJbmZvcm1hdGlvbi0tPjxnIGlkPSJsaW5rX1NfVmlldyBFeGFtcyBJbmZvcm1hdGlvbiI+PHBhdGggZD0iTTU1OC42NSwxNzggQzU4NC4xLDE3OCA2MjYuMTgsMTc4IDY2NS4zMiwxNzggIiBmaWxsPSJub25lIiBpZD0iUy1WaWV3IEV4YW1zIEluZm9ybWF0aW9uIiBzdHlsZT0ic3Ryb2tlOiMxODE4MTg7c3Ryb2tlLXdpZHRoOjEuMDsiLz48L2c+PCEtLXJldmVyc2UgbGluayBWaWV3IEV4YW1zIEluZm9ybWF0aW9uIHRvIFZpZXcgRXhhbXMtLT48ZyBpZD0ibGlua19WaWV3IEV4YW1zIEluZm9ybWF0aW9uX1ZpZXcgRXhhbXMiPjxwYXRoIGQ9Ik04NTAuMDM4OSwxNjYuNDI4NSBDOTI0Ljg2ODksMTU2LjU5ODUgMTAyNy4xNywxNDMuMTYgMTA5MC42NCwxMzQuODEgIiBmaWxsPSJub25lIiBpZD0iVmlldyBFeGFtcyBJbmZvcm1hdGlvbi1iYWNrdG8tVmlldyBFeGFtcyIgc3R5bGU9InN0cm9rZTojMTgxODE4O3N0cm9rZS13aWR0aDoxLjA7c3Ryb2tlLWRhc2hhcnJheTo3LjAsNy4wOyIvPjxwb2x5Z29uIGZpbGw9IiMxODE4MTgiIHBvaW50cz0iODQ0LjA5LDE2Ny4yMSw4NTMuNTM0MywxNzAuMDAzNyw4NDkuMDQ3NCwxNjYuNTU4OCw4NTIuNDkyNCwxNjIuMDcxOSw4NDQuMDksMTY3LjIxIiBzdHlsZT0ic3Ryb2tlOiMxODE4MTg7c3Ryb2tlLXdpZHRoOjEuMDsiLz48dGV4dCBmaWxsPSIjMDAwMDAwIiBmb250LWZhbWlseT0ic2Fucy1zZXJpZiIgZm9udC1zaXplPSIxMyIgbGVuZ3RoQWRqdXN0PSJzcGFjaW5nIiB0ZXh0TGVuZ3RoPSI2MiIgeD0iOTEwIiB5PSIxNTAuMjg5MSI+JiMxNzE7ZXh0ZW5kcyYjMTg3OzwvdGV4dD48L2c+PCEtLXJldmVyc2UgbGluayBWaWV3IEV4YW1zIEluZm9ybWF0aW9uIHRvIFZpZXcgRXhhbSBSZXN1bHRzLS0+PGcgaWQ9ImxpbmtfVmlldyBFeGFtcyBJbmZvcm1hdGlvbl9WaWV3IEV4YW0gUmVzdWx0cyI+PHBhdGggZD0iTTg1Ni44ODAyLDE4NS43NDY4IEM4ODcuODQwMiwxODguMjY2OCA5MDksMTkwIDkwOSwxOTAgQzkwOSwxOTAgOTk2LjU0LDE5Mi4yNSAxMDY0LjQyLDE5My45OSAiIGZpbGw9Im5vbmUiIGlkPSJWaWV3IEV4YW1zIEluZm9ybWF0aW9uLWJhY2t0by1WaWV3IEV4YW0gUmVzdWx0cyIgc3R5bGU9InN0cm9rZTojMTgxODE4O3N0cm9rZS13aWR0aDoxLjA7c3Ryb2tlLWRhc2hhcnJheTo3LjAsNy4wOyIvPjxwb2x5Z29uIGZpbGw9IiMxODE4MTgiIHBvaW50cz0iODUwLjksMTg1LjI2LDg1OS41NDU4LDE4OS45NzcsODU1Ljg4MzUsMTg1LjY2NTYsODYwLjE5NDgsMTgyLjAwMzMsODUwLjksMTg1LjI2IiBzdHlsZT0ic3Ryb2tlOiMxODE4MTg7c3Ryb2tlLXdpZHRoOjEuMDsiLz48dGV4dCBmaWxsPSIjMDAwMDAwIiBmb250LWZhbWlseT0ic2Fucy1zZXJpZiIgZm9udC1zaXplPSIxMyIgbGVuZ3RoQWRqdXN0PSJzcGFjaW5nIiB0ZXh0TGVuZ3RoPSI2MiIgeD0iOTEwIiB5PSIxODguMjg5MSI+JiMxNzE7ZXh0ZW5kcyYjMTg3OzwvdGV4dD48L2c+PCEtLXJldmVyc2UgbGluayBWaWV3IEV4YW0gUmVzdWx0cyB0byBBcHBseSBmb3IgUmVjb3JyZWN0aW9ucy0tPjxnIGlkPSJsaW5rX1ZpZXcgRXhhbSBSZXN1bHRzX0FwcGx5IGZvciBSZWNvcnJlY3Rpb25zIj48cGF0aCBkPSJNMTIyNC44Mjk3LDIwMi42MzM3IEMxMjcwLjM2OTcsMjA2LjM5MzcgMTMxNCwyMTAgMTMxNCwyMTAgQzEzMTQsMjEwIDEzNzguNjcsMjEzLjg3IDE0MzcuNCwyMTcuMzkgIiBmaWxsPSJub25lIiBpZD0iVmlldyBFeGFtIFJlc3VsdHMtYmFja3RvLUFwcGx5IGZvciBSZWNvcnJlY3Rpb25zIiBzdHlsZT0ic3Ryb2tlOiMxODE4MTg7c3Ryb2tlLXdpZHRoOjEuMDtzdHJva2UtZGFzaGFycmF5OjcuMCw3LjA7Ii8+PHBvbHlnb24gZmlsbD0iIzE4MTgxOCIgcG9pbnRzPSIxMjE4Ljg1LDIwMi4xNCwxMjI3LjQ5MDMsMjA2Ljg2NywxMjIzLjgzMywyMDIuNTUxNCwxMjI4LjE0ODYsMTk4Ljg5NDEsMTIxOC44NSwyMDIuMTQiIHN0eWxlPSJzdHJva2U6IzE4MTgxODtzdHJva2Utd2lkdGg6MS4wOyIvPjx0ZXh0IGZpbGw9IiMwMDAwMDAiIGZvbnQtZmFtaWx5PSJzYW5zLXNlcmlmIiBmb250LXNpemU9IjEzIiBsZW5ndGhBZGp1c3Q9InNwYWNpbmciIHRleHRMZW5ndGg9IjYyIiB4PSIxMzE1IiB5PSIyMDguMjg5MSI+JiMxNzE7ZXh0ZW5kcyYjMTg3OzwvdGV4dD48L2c+PCEtLXJldmVyc2UgbGluayBWaWV3IEV4YW0gUmVzdWx0cyB0byBDYWxjdWxhdGUgR1BBLS0+PGcgaWQ9ImxpbmtfVmlldyBFeGFtIFJlc3VsdHNfQ2FsY3VsYXRlIEdQQSI+PHBhdGggZD0iTTEyMjAuNDQ3OSwxODYuOTYwNyBDMTI5NC4xOTc5LDE3OC4xODA3IDE0MDMuMDgsMTY1LjIyIDE0NzIuMjcsMTU2Ljk5ICIgZmlsbD0ibm9uZSIgaWQ9IlZpZXcgRXhhbSBSZXN1bHRzLWJhY2t0by1DYWxjdWxhdGUgR1BBIiBzdHlsZT0ic3Ryb2tlOiMxODE4MTg7c3Ryb2tlLXdpZHRoOjEuMDtzdHJva2UtZGFzaGFycmF5OjcuMCw3LjA7Ii8+PHBvbHlnb24gZmlsbD0iIzE4MTgxOCIgcG9pbnRzPSIxMjE0LjQ5LDE4Ny42NywxMjIzLjg5OTgsMTkwLjU3OCwxMjE5LjQ1NDksMTg3LjA3ODksMTIyMi45NTQsMTgyLjYzNDEsMTIxNC40OSwxODcuNjciIHN0eWxlPSJzdHJva2U6IzE4MTgxODtzdHJva2Utd2lkdGg6MS4wOyIvPjx0ZXh0IGZpbGw9IiMwMDAwMDAiIGZvbnQtZmFtaWx5PSJzYW5zLXNlcmlmIiBmb250LXNpemU9IjEzIiBsZW5ndGhBZGp1c3Q9InNwYWNpbmciIHRleHRMZW5ndGg9IjYyIiB4PSIxMzE1IiB5PSIxNjcuMjg5MSI+JiMxNzE7ZXh0ZW5kcyYjMTg3OzwvdGV4dD48L2c+PCEtLWxpbmsgVXBkYXRlIFN0dWRlbnQgSW5mb3JtYXRpb25zIHRvIFNSLS0+PGcgaWQ9ImxpbmtfVXBkYXRlIFN0dWRlbnQgSW5mb3JtYXRpb25zX1NSIj48cGF0aCBkPSJNMTU0Ni43NiwxNjc4LjI5IEMxNTg1Ljk1LDE3NDcuNDYgMTY5OC4zMywxOTQ1LjggMTc0NS42MiwyMDI5LjI3ICIgZmlsbD0ibm9uZSIgaWQ9IlVwZGF0ZSBTdHVkZW50IEluZm9ybWF0aW9ucy1TUiIgc3R5bGU9InN0cm9rZTojMTgxODE4O3N0cm9rZS13aWR0aDoxLjA7Ii8+PC9nPjwhLS1saW5rIFVwZGF0ZSBFZHVjYXRpb25hbCBJbmZvcm1hdGlvbnMgdG8gU1ItLT48ZyBpZD0ibGlua19VcGRhdGUgRWR1Y2F0aW9uYWwgSW5mb3JtYXRpb25zX1NSIj48cGF0aCBkPSJNMTY1Ni4xNywyMDY3IEMxNjg5LjQyLDIwNjcgMTcyMiwyMDY3IDE3NDMuMTQsMjA2NyAiIGZpbGw9Im5vbmUiIGlkPSJVcGRhdGUgRWR1Y2F0aW9uYWwgSW5mb3JtYXRpb25zLVNSIiBzdHlsZT0ic3Ryb2tlOiMxODE4MTg7c3Ryb2tlLXdpZHRoOjEuMDsiLz48L2c+PCEtLWxpbmsgVXBkYXRlIEV4YW0gSW5mb3JtYXRpb25zIHRvIFNSLS0+PGcgaWQ9ImxpbmtfVXBkYXRlIEV4YW0gSW5mb3JtYXRpb25zX1NSIj48cGF0aCBkPSJNMTU1NC4xOCwyMjg4LjkyIEMxNTk3LjgzLDIyNDMuNCAxNjk3LjU0LDIxMzkuNDMgMTc0My4yOCwyMDkxLjc0ICIgZmlsbD0ibm9uZSIgaWQ9IlVwZGF0ZSBFeGFtIEluZm9ybWF0aW9ucy1TUiIgc3R5bGU9InN0cm9rZTojMTgxODE4O3N0cm9rZS13aWR0aDoxLjA7Ii8+PC9nPjwhLS1saW5rIFQgdG8gVmlldyBTdHVkZW50IEluZm9ybWF0aW9ucy0tPjxnIGlkPSJsaW5rX1RfVmlldyBTdHVkZW50IEluZm9ybWF0aW9ucyI+PHBhdGggZD0iTTE0NC4xOSwxOTkxLjM1IEMxODIuMywxOTMyLjM4IDI1MywxODIzIDI1MywxODIzIEMyNTMsMTgyMyAyNTMsMTgyMyA1MzUsMTgyMyBDNTM1LDE4MjMgNjY3LjU2LDE3MjUuMiA3MjkuMTksMTY3OS43MyAiIGZpbGw9Im5vbmUiIGlkPSJULVZpZXcgU3R1ZGVudCBJbmZvcm1hdGlvbnMiIHN0eWxlPSJzdHJva2U6IzE4MTgxODtzdHJva2Utd2lkdGg6MS4wOyIvPjwvZz48IS0tcmV2ZXJzZSBsaW5rIFZpZXcgU3R1ZGVudCBJbmZvcm1hdGlvbnMgdG8gQ3JlYXRlIFN0dWRlbnQgSW5mb3JtYXRpb25zLS0+PGcgaWQ9ImxpbmtfVmlldyBTdHVkZW50IEluZm9ybWF0aW9uc19DcmVhdGUgU3R1ZGVudCBJbmZvcm1hdGlvbnMiPjxwYXRoIGQ9Ik03OTYuODE4NiwxNjMwLjU2MTcgQzg2MS40MTg2LDE1ODEuNTExNyAxMDAzLDE0NzQgMTAwMywxNDc0IEMxMDAzLDE0NzQgMTA0MC45NCwxNDYyLjU4IDEwNzcuMjQsMTQ1MS42NSAiIGZpbGw9Im5vbmUiIGlkPSJWaWV3IFN0dWRlbnQgSW5mb3JtYXRpb25zLWJhY2t0by1DcmVhdGUgU3R1ZGVudCBJbmZvcm1hdGlvbnMiIHN0eWxlPSJzdHJva2U6IzE4MTgxODtzdHJva2Utd2lkdGg6MS4wO3N0cm9rZS1kYXNoYXJyYXk6Ny4wLDcuMDsiLz48cG9seWdvbiBmaWxsPSIjMTgxODE4IiBwb2ludHM9Ijc5Mi4wNCwxNjM0LjE5LDgwMS42MjY4LDE2MzEuOTMzMiw3OTYuMDIyMiwxNjMxLjE2NjQsNzk2Ljc4OSwxNjI1LjU2MTcsNzkyLjA0LDE2MzQuMTkiIHN0eWxlPSJzdHJva2U6IzE4MTgxODtzdHJva2Utd2lkdGg6MS4wOyIvPjx0ZXh0IGZpbGw9IiMwMDAwMDAiIGZvbnQtZmFtaWx5PSJzYW5zLXNlcmlmIiBmb250LXNpemU9IjEzIiBsZW5ndGhBZGp1c3Q9InNwYWNpbmciIHRleHRMZW5ndGg9IjYyIiB4PSI5MTAiIHk9IjE0OTkuMjg5MSI+JiMxNzE7ZXh0ZW5kcyYjMTg3OzwvdGV4dD48L2c+PCEtLXJldmVyc2UgbGluayBWaWV3IFN0dWRlbnQgSW5mb3JtYXRpb25zIHRvIERlbGV0ZSBTdHVkZW50IEluZm9ybWF0aW9ucy0tPjxnIGlkPSJsaW5rX1ZpZXcgU3R1ZGVudCBJbmZvcm1hdGlvbnNfRGVsZXRlIFN0dWRlbnQgSW5mb3JtYXRpb25zIj48cGF0aCBkPSJNODIwLjQ5NTUsMTY3OS4zMjk4IEM4OTEuNDM1NSwxNzA2LjQwOTggMTAwMywxNzQ5IDEwMDMsMTc0OSBDMTAwMywxNzQ5IDEwNDEuNTEsMTc2MC44NyAxMDc4LjA2LDE3NzIuMTQgIiBmaWxsPSJub25lIiBpZD0iVmlldyBTdHVkZW50IEluZm9ybWF0aW9ucy1iYWNrdG8tRGVsZXRlIFN0dWRlbnQgSW5mb3JtYXRpb25zIiBzdHlsZT0ic3Ryb2tlOiMxODE4MTg7c3Ryb2tlLXdpZHRoOjEuMDtzdHJva2UtZGFzaGFycmF5OjcuMCw3LjA7Ii8+PHBvbHlnb24gZmlsbD0iIzE4MTgxOCIgcG9pbnRzPSI4MTQuODksMTY3Ny4xOSw4MjEuODcxNywxNjg0LjEzNjcsODE5LjU2MTIsMTY3OC45NzMyLDgyNC43MjQ3LDE2NzYuNjYyNyw4MTQuODksMTY3Ny4xOSIgc3R5bGU9InN0cm9rZTojMTgxODE4O3N0cm9rZS13aWR0aDoxLjA7Ii8+PHRleHQgZmlsbD0iIzAwMDAwMCIgZm9udC1mYW1pbHk9InNhbnMtc2VyaWYiIGZvbnQtc2l6ZT0iMTMiIGxlbmd0aEFkanVzdD0ic3BhY2luZyIgdGV4dExlbmd0aD0iNjIiIHg9IjkxMCIgeT0iMTcxMi4yODkxIj4mIzE3MTtleHRlbmRzJiMxODc7PC90ZXh0PjwvZz48IS0tcmV2ZXJzZSBsaW5rIFZpZXcgU3R1ZGVudCBJbmZvcm1hdGlvbnMgdG8gR2VuZXJhdGUgU3R1ZGVudCBBdHRlbmRhbmNlIFJlcG9ydHMtLT48ZyBpZD0ibGlua19WaWV3IFN0dWRlbnQgSW5mb3JtYXRpb25zX0dlbmVyYXRlIFN0dWRlbnQgQXR0ZW5kYW5jZSBSZXBvcnRzIj48cGF0aCBkPSJNODQ5LjU3ODEsMTY3Mi40ODYxIEM4ODMuNDA4MSwxNjc4LjQ3NjEgOTA5LDE2ODMgOTA5LDE2ODMgQzkwOSwxNjgzIDk2MC4zMSwxNjg3LjE3IDEwMTQuODIsMTY5MS42MSAiIGZpbGw9Im5vbmUiIGlkPSJWaWV3IFN0dWRlbnQgSW5mb3JtYXRpb25zLWJhY2t0by1HZW5lcmF0ZSBTdHVkZW50IEF0dGVuZGFuY2UgUmVwb3J0cyIgc3R5bGU9InN0cm9rZTojMTgxODE4O3N0cm9rZS13aWR0aDoxLjA7c3Ryb2tlLWRhc2hhcnJheTo3LjAsNy4wOyIvPjxwb2x5Z29uIGZpbGw9IiMxODE4MTgiIHBvaW50cz0iODQzLjY3LDE2NzEuNDQsODUxLjgzNDgsMTY3Ni45NDc5LDg0OC41OTM0LDE2NzIuMzExNyw4NTMuMjI5NiwxNjY5LjA3MDQsODQzLjY3LDE2NzEuNDQiIHN0eWxlPSJzdHJva2U6IzE4MTgxODtzdHJva2Utd2lkdGg6MS4wOyIvPjx0ZXh0IGZpbGw9IiMwMDAwMDAiIGZvbnQtZmFtaWx5PSJzYW5zLXNlcmlmIiBmb250LXNpemU9IjEzIiBsZW5ndGhBZGp1c3Q9InNwYWNpbmciIHRleHRMZW5ndGg9IjYyIiB4PSI5MTAiIHk9IjE2ODEuMjg5MSI+JiMxNzE7ZXh0ZW5kcyYjMTg3OzwvdGV4dD48L2c+PCEtLXJldmVyc2UgbGluayBWaWV3IFN0dWRlbnQgSW5mb3JtYXRpb25zIHRvIEdlbmVyYXRlIFN0dWRlbnQgUGVyZm9ybWFuY2UgUmVwb3J0cy0tPjxnIGlkPSJsaW5rX1ZpZXcgU3R1ZGVudCBJbmZvcm1hdGlvbnNfR2VuZXJhdGUgU3R1ZGVudCBQZXJmb3JtYW5jZSBSZXBvcnRzIj48cGF0aCBkPSJNODU3LjE1NjgsMTY0NC4yNDI4IEM5MDguNTU2OCwxNjM3LjM1MjggOTY3Ljg3LDE2MjkuNDEgMTAyMy41OSwxNjIxLjk0ICIgZmlsbD0ibm9uZSIgaWQ9IlZpZXcgU3R1ZGVudCBJbmZvcm1hdGlvbnMtYmFja3RvLUdlbmVyYXRlIFN0dWRlbnQgUGVyZm9ybWFuY2UgUmVwb3J0cyIgc3R5bGU9InN0cm9rZTojMTgxODE4O3N0cm9rZS13aWR0aDoxLjA7c3Ryb2tlLWRhc2hhcnJheTo3LjAsNy4wOyIvPjxwb2x5Z29uIGZpbGw9IiMxODE4MTgiIHBvaW50cz0iODUxLjIxLDE2NDUuMDQsODYwLjY2MTYsMTY0Ny44MDg4LDg1Ni4xNjU3LDE2NDQuMzc1Nyw4NTkuNTk4OCwxNjM5Ljg3OTcsODUxLjIxLDE2NDUuMDQiIHN0eWxlPSJzdHJva2U6IzE4MTgxODtzdHJva2Utd2lkdGg6MS4wOyIvPjx0ZXh0IGZpbGw9IiMwMDAwMDAiIGZvbnQtZmFtaWx5PSJzYW5zLXNlcmlmIiBmb250LXNpemU9IjEzIiBsZW5ndGhBZGp1c3Q9InNwYWNpbmciIHRleHRMZW5ndGg9IjYyIiB4PSI5MTAiIHk9IjE2MjguMjg5MSI+JiMxNzE7ZXh0ZW5kcyYjMTg3OzwvdGV4dD48L2c+PCEtLXJldmVyc2UgbGluayBWaWV3IFN0dWRlbnQgSW5mb3JtYXRpb25zIHRvIEdlbmVyYXRlIEVucm9sbG1lbnQgUmVwb3J0cy0tPjxnIGlkPSJsaW5rX1ZpZXcgU3R1ZGVudCBJbmZvcm1hdGlvbnNfR2VuZXJhdGUgRW5yb2xsbWVudCBSZXBvcnRzIj48cGF0aCBkPSJNODE3Ljc3OTgsMTYzNC4wODk3IEM4ODguNDA5OCwxNjA1LjA2OTcgMTAwMywxNTU4IDEwMDMsMTU1OCBDMTAwMywxNTU4IDEwNDAuOTQsMTU0Ni41OCAxMDc3LjI0LDE1MzUuNjUgIiBmaWxsPSJub25lIiBpZD0iVmlldyBTdHVkZW50IEluZm9ybWF0aW9ucy1iYWNrdG8tR2VuZXJhdGUgRW5yb2xsbWVudCBSZXBvcnRzIiBzdHlsZT0ic3Ryb2tlOiMxODE4MTg7c3Ryb2tlLXdpZHRoOjEuMDtzdHJva2UtZGFzaGFycmF5OjcuMCw3LjA7Ii8+PHBvbHlnb24gZmlsbD0iIzE4MTgxOCIgcG9pbnRzPSI4MTIuMjMsMTYzNi4zNyw4MjIuMDc0OSwxNjM2LjY0OTUsODE2Ljg1NDgsMTYzNC40Njk4LDgxOS4wMzQ1LDE2MjkuMjQ5Nyw4MTIuMjMsMTYzNi4zNyIgc3R5bGU9InN0cm9rZTojMTgxODE4O3N0cm9rZS13aWR0aDoxLjA7Ii8+PHRleHQgZmlsbD0iIzAwMDAwMCIgZm9udC1mYW1pbHk9InNhbnMtc2VyaWYiIGZvbnQtc2l6ZT0iMTMiIGxlbmd0aEFkanVzdD0ic3BhY2luZyIgdGV4dExlbmd0aD0iNjIiIHg9IjkxMCIgeT0iMTU3MS4yODkxIj4mIzE3MTtleHRlbmRzJiMxODc7PC90ZXh0PjwvZz48IS0tbGluayBDcmVhdGUgU3R1ZGVudCBJbmZvcm1hdGlvbnMgdG8gVXBkYXRlIFN0dWRlbnQgSW5mb3JtYXRpb25zLS0+PGcgaWQ9ImxpbmtfQ3JlYXRlIFN0dWRlbnQgSW5mb3JtYXRpb25zX1VwZGF0ZSBTdHVkZW50IEluZm9ybWF0aW9ucyI+PHBhdGggZD0iTTEyMDkuNzYsMTQ1MS42NSBDMTI0Ni4wNiwxNDYyLjU4IDEyODQsMTQ3NCAxMjg0LDE0NzQgQzEyODQsMTQ3NCAxNDI2LjkxMSwxNTc4LjE0NjMgMTQ5My44NjEsMTYyNi45MzYzICIgZmlsbD0ibm9uZSIgaWQ9IkNyZWF0ZSBTdHVkZW50IEluZm9ybWF0aW9ucy10by1VcGRhdGUgU3R1ZGVudCBJbmZvcm1hdGlvbnMiIHN0eWxlPSJzdHJva2U6IzE4MTgxODtzdHJva2Utd2lkdGg6MS4wO3N0cm9rZS1kYXNoYXJyYXk6Ny4wLDcuMDsiLz48cG9seWdvbiBmaWxsPSIjMTgxODE4IiBwb2ludHM9IjE0OTguNzEsMTYzMC40NywxNDkzLjc5MjMsMTYyMS45MzY3LDE0OTQuNjY5MiwxNjI3LjUyNTIsMTQ4OS4wODA3LDE2MjguNDAyMSwxNDk4LjcxLDE2MzAuNDciIHN0eWxlPSJzdHJva2U6IzE4MTgxODtzdHJva2Utd2lkdGg6MS4wOyIvPjx0ZXh0IGZpbGw9IiMwMDAwMDAiIGZvbnQtZmFtaWx5PSJzYW5zLXNlcmlmIiBmb250LXNpemU9IjEzIiBsZW5ndGhBZGp1c3Q9InNwYWNpbmciIHRleHRMZW5ndGg9IjYxIiB4PSIxMzE1LjUiIHk9IjE0OTUuMjg5MSI+JiMxNzE7aW5jbHVkZSYjMTg3OzwvdGV4dD48L2c+PCEtLWxpbmsgRGVsZXRlIFN0dWRlbnQgSW5mb3JtYXRpb25zIHRvIFVwZGF0ZSBTdHVkZW50IEluZm9ybWF0aW9ucy0tPjxnIGlkPSJsaW5rX0RlbGV0ZSBTdHVkZW50IEluZm9ybWF0aW9uc19VcGRhdGUgU3R1ZGVudCBJbmZvcm1hdGlvbnMiPjxwYXRoIGQ9Ik0xMjA4Ljk0LDE3NzIuMTQgQzEyNDUuNDksMTc2MC44NyAxMjg0LDE3NDkgMTI4NCwxNzQ5IEMxMjg0LDE3NDkgMTM5Ny40Nzk5LDE3MDUuMzUzOSAxNDcwLjI3OTksMTY3Ny4zNTM5ICIgZmlsbD0ibm9uZSIgaWQ9IkRlbGV0ZSBTdHVkZW50IEluZm9ybWF0aW9ucy10by1VcGRhdGUgU3R1ZGVudCBJbmZvcm1hdGlvbnMiIHN0eWxlPSJzdHJva2U6IzE4MTgxODtzdHJva2Utd2lkdGg6MS4wO3N0cm9rZS1kYXNoYXJyYXk6Ny4wLDcuMDsiLz48cG9seWdvbiBmaWxsPSIjMTgxODE4IiBwb2ludHM9IjE0NzUuODgsMTY3NS4yLDE0NjYuMDQ0LDE2NzQuNjk3NCwxNDcxLjIxMzMsMTY3Ni45OTQ5LDE0NjguOTE1OCwxNjgyLjE2NDIsMTQ3NS44OCwxNjc1LjIiIHN0eWxlPSJzdHJva2U6IzE4MTgxODtzdHJva2Utd2lkdGg6MS4wOyIvPjx0ZXh0IGZpbGw9IiMwMDAwMDAiIGZvbnQtZmFtaWx5PSJzYW5zLXNlcmlmIiBmb250LXNpemU9IjEzIiBsZW5ndGhBZGp1c3Q9InNwYWNpbmciIHRleHRMZW5ndGg9IjYxIiB4PSIxMzE1LjUiIHk9IjE3MTQuMjg5MSI+JiMxNzE7aW5jbHVkZSYjMTg3OzwvdGV4dD48L2c+PCEtLWxpbmsgR2VuZXJhdGUgU3R1ZGVudCBBdHRlbmRhbmNlIFJlcG9ydHMgdG8gVXBkYXRlIFN0dWRlbnQgSW5mb3JtYXRpb25zLS0+PGcgaWQ9ImxpbmtfR2VuZXJhdGUgU3R1ZGVudCBBdHRlbmRhbmNlIFJlcG9ydHNfVXBkYXRlIFN0dWRlbnQgSW5mb3JtYXRpb25zIj48cGF0aCBkPSJNMTI3Mi44NiwxNjkyLjEgQzEzMjcuMTIsMTY4Ny45MiAxMzc4LDE2ODQgMTM3OCwxNjg0IEMxMzc4LDE2ODQgMTQwNi41NzIxLDE2NzguMzk0MiAxNDQyLjc5MjEsMTY3MS4yOTQyICIgZmlsbD0ibm9uZSIgaWQ9IkdlbmVyYXRlIFN0dWRlbnQgQXR0ZW5kYW5jZSBSZXBvcnRzLXRvLVVwZGF0ZSBTdHVkZW50IEluZm9ybWF0aW9ucyIgc3R5bGU9InN0cm9rZTojMTgxODE4O3N0cm9rZS13aWR0aDoxLjA7c3Ryb2tlLWRhc2hhcnJheTo3LjAsNy4wOyIvPjxwb2x5Z29uIGZpbGw9IiMxODE4MTgiIHBvaW50cz0iMTQ0OC42OCwxNjcwLjE0LDE0MzkuMDc4NiwxNjY3Ljk0NiwxNDQzLjc3MzQsMTY3MS4xMDE4LDE0NDAuNjE3NSwxNjc1Ljc5NjYsMTQ0OC42OCwxNjcwLjE0IiBzdHlsZT0ic3Ryb2tlOiMxODE4MTg7c3Ryb2tlLXdpZHRoOjEuMDsiLz48dGV4dCBmaWxsPSIjMDAwMDAwIiBmb250LWZhbWlseT0ic2Fucy1zZXJpZiIgZm9udC1zaXplPSIxMyIgbGVuZ3RoQWRqdXN0PSJzcGFjaW5nIiB0ZXh0TGVuZ3RoPSI2MSIgeD0iMTMxNS41IiB5PSIxNjgyLjI4OTEiPiYjMTcxO2luY2x1ZGUmIzE4Nzs8L3RleHQ+PC9nPjwhLS1saW5rIEdlbmVyYXRlIFN0dWRlbnQgUGVyZm9ybWFuY2UgUmVwb3J0cyB0byBVcGRhdGUgU3R1ZGVudCBJbmZvcm1hdGlvbnMtLT48ZyBpZD0ibGlua19HZW5lcmF0ZSBTdHVkZW50IFBlcmZvcm1hbmNlIFJlcG9ydHNfVXBkYXRlIFN0dWRlbnQgSW5mb3JtYXRpb25zIj48cGF0aCBkPSJNMTI2NS43MywxNjIxLjA2IEMxMzIwLjQxLDE2MjcuODUgMTM3OC4xMTU4LDE2MzUuMDA5OSAxNDI5LjM2NTgsMTY0MS4zNzk5ICIgZmlsbD0ibm9uZSIgaWQ9IkdlbmVyYXRlIFN0dWRlbnQgUGVyZm9ybWFuY2UgUmVwb3J0cy10by1VcGRhdGUgU3R1ZGVudCBJbmZvcm1hdGlvbnMiIHN0eWxlPSJzdHJva2U6IzE4MTgxODtzdHJva2Utd2lkdGg6MS4wO3N0cm9rZS1kYXNoYXJyYXk6Ny4wLDcuMDsiLz48cG9seWdvbiBmaWxsPSIjMTgxODE4IiBwb2ludHM9IjE0MzUuMzIsMTY0Mi4xMiwxNDI2Ljg4MjEsMTYzNy4wNDA1LDE0MzAuMzU4MiwxNjQxLjUwMzMsMTQyNS44OTUzLDE2NDQuOTc5NCwxNDM1LjMyLDE2NDIuMTIiIHN0eWxlPSJzdHJva2U6IzE4MTgxODtzdHJva2Utd2lkdGg6MS4wOyIvPjx0ZXh0IGZpbGw9IiMwMDAwMDAiIGZvbnQtZmFtaWx5PSJzYW5zLXNlcmlmIiBmb250LXNpemU9IjEzIiBsZW5ndGhBZGp1c3Q9InNwYWNpbmciIHRleHRMZW5ndGg9IjYxIiB4PSIxMzE1LjUiIHk9IjE2MjYuMjg5MSI+JiMxNzE7aW5jbHVkZSYjMTg3OzwvdGV4dD48L2c+PCEtLWxpbmsgR2VuZXJhdGUgRW5yb2xsbWVudCBSZXBvcnRzIHRvIFVwZGF0ZSBTdHVkZW50IEluZm9ybWF0aW9ucy0tPjxnIGlkPSJsaW5rX0dlbmVyYXRlIEVucm9sbG1lbnQgUmVwb3J0c19VcGRhdGUgU3R1ZGVudCBJbmZvcm1hdGlvbnMiPjxwYXRoIGQ9Ik0xMjA5Ljc2LDE1MzUuNjUgQzEyNDYuMDYsMTU0Ni41OCAxMjg0LDE1NTggMTI4NCwxNTU4IEMxMjg0LDE1NTggMTM5OC4xNTc1LDE2MDIuMzY2NSAxNDcwLjg5NzUsMTYzMC42MzY1ICIgZmlsbD0ibm9uZSIgaWQ9IkdlbmVyYXRlIEVucm9sbG1lbnQgUmVwb3J0cy10by1VcGRhdGUgU3R1ZGVudCBJbmZvcm1hdGlvbnMiIHN0eWxlPSJzdHJva2U6IzE4MTgxODtzdHJva2Utd2lkdGg6MS4wO3N0cm9rZS1kYXNoYXJyYXk6Ny4wLDcuMDsiLz48cG9seWdvbiBmaWxsPSIjMTgxODE4IiBwb2ludHM9IjE0NzYuNDksMTYzMi44MSwxNDY5LjU1MDMsMTYyNS44MjE0LDE0NzEuODI5NiwxNjMwLjk5ODgsMTQ2Ni42NTIzLDE2MzMuMjc4MSwxNDc2LjQ5LDE2MzIuODEiIHN0eWxlPSJzdHJva2U6IzE4MTgxODtzdHJva2Utd2lkdGg6MS4wOyIvPjx0ZXh0IGZpbGw9IiMwMDAwMDAiIGZvbnQtZmFtaWx5PSJzYW5zLXNlcmlmIiBmb250LXNpemU9IjEzIiBsZW5ndGhBZGp1c3Q9InNwYWNpbmciIHRleHRMZW5ndGg9IjYxIiB4PSIxMzE1LjUiIHk9IjE1NjguMjg5MSI+JiMxNzE7aW5jbHVkZSYjMTg3OzwvdGV4dD48L2c+PCEtLWxpbmsgVCB0byBWaWV3IEVkdWNhdGlvbmFsIEluZm9ybWF0aW9ucy0tPjxnIGlkPSJsaW5rX1RfVmlldyBFZHVjYXRpb25hbCBJbmZvcm1hdGlvbnMiPjxwYXRoIGQ9Ik0xNDQuMTksMjAyOCBDMTgyLjMsMjAyOCAyNTMsMjAyOCAyNTMsMjAyOCBDMjUzLDIwMjggMjUzLDIwMjggNTM1LDIwMjggQzUzNSwyMDI4IDU4OC4yMiwyMDI4IDY0Mi44OSwyMDI4ICIgZmlsbD0ibm9uZSIgaWQ9IlQtVmlldyBFZHVjYXRpb25hbCBJbmZvcm1hdGlvbnMiIHN0eWxlPSJzdHJva2U6IzE4MTgxODtzdHJva2Utd2lkdGg6MS4wOyIvPjwvZz48IS0tcmV2ZXJzZSBsaW5rIFZpZXcgRWR1Y2F0aW9uYWwgSW5mb3JtYXRpb25zIHRvIENyZWF0ZSBBc3Nlc3NtZW50cy0tPjxnIGlkPSJsaW5rX1ZpZXcgRWR1Y2F0aW9uYWwgSW5mb3JtYXRpb25zX0NyZWF0ZSBBc3Nlc3NtZW50cyI+PHBhdGggZD0iTTg1NC43MDA4LDIwMDkuMjM5OCBDOTI1LjY1MDgsMTk5NC44Nzk4IDEwMTguMzEsMTk3Ni4xMyAxMDgxLjI0LDE5NjMuNCAiIGZpbGw9Im5vbmUiIGlkPSJWaWV3IEVkdWNhdGlvbmFsIEluZm9ybWF0aW9ucy1iYWNrdG8tQ3JlYXRlIEFzc2Vzc21lbnRzIiBzdHlsZT0ic3Ryb2tlOiMxODE4MTg7c3Ryb2tlLXdpZHRoOjEuMDtzdHJva2UtZGFzaGFycmF5OjcuMCw3LjA7Ii8+PHBvbHlnb24gZmlsbD0iIzE4MTgxOCIgcG9pbnRzPSI4NDguODIsMjAxMC40Myw4NTguNDM0NiwyMDEyLjU2NTEsODUzLjcyMDYsMjAwOS40MzgxLDg1Ni44NDc2LDIwMDQuNzI0MSw4NDguODIsMjAxMC40MyIgc3R5bGU9InN0cm9rZTojMTgxODE4O3N0cm9rZS13aWR0aDoxLjA7Ii8+PHRleHQgZmlsbD0iIzAwMDAwMCIgZm9udC1mYW1pbHk9InNhbnMtc2VyaWYiIGZvbnQtc2l6ZT0iMTMiIGxlbmd0aEFkanVzdD0ic3BhY2luZyIgdGV4dExlbmd0aD0iNjIiIHg9IjkxMCIgeT0iMTk4Ni4yODkxIj4mIzE3MTtleHRlbmRzJiMxODc7PC90ZXh0PjwvZz48IS0tcmV2ZXJzZSBsaW5rIFZpZXcgRWR1Y2F0aW9uYWwgSW5mb3JtYXRpb25zIHRvIEVkaXQgQXNzZXNzbWVudHMtLT48ZyBpZD0ibGlua19WaWV3IEVkdWNhdGlvbmFsIEluZm9ybWF0aW9uc19FZGl0IEFzc2Vzc21lbnRzIj48cGF0aCBkPSJNODE3LjY2MjQsMjA1NC4wOTc0IEM4ODguMjkyNCwyMDg3LjIxNzQgMTAwMywyMTQxIDEwMDMsMjE0MSBDMTAwMywyMTQxIDEwNTIuMTgsMjE1My42OSAxMDkyLjE0LDIxNjQgIiBmaWxsPSJub25lIiBpZD0iVmlldyBFZHVjYXRpb25hbCBJbmZvcm1hdGlvbnMtYmFja3RvLUVkaXQgQXNzZXNzbWVudHMiIHN0eWxlPSJzdHJva2U6IzE4MTgxODtzdHJva2Utd2lkdGg6MS4wO3N0cm9rZS1kYXNoYXJyYXk6Ny4wLDcuMDsiLz48cG9seWdvbiBmaWxsPSIjMTgxODE4IiBwb2ludHM9IjgxMi4yMywyMDUxLjU1LDgxOC42ODAzLDIwNTguOTkyNyw4MTYuNzU3LDIwNTMuNjcyOCw4MjIuMDc2OCwyMDUxLjc0OTUsODEyLjIzLDIwNTEuNTUiIHN0eWxlPSJzdHJva2U6IzE4MTgxODtzdHJva2Utd2lkdGg6MS4wOyIvPjx0ZXh0IGZpbGw9IiMwMDAwMDAiIGZvbnQtZmFtaWx5PSJzYW5zLXNlcmlmIiBmb250LXNpemU9IjEzIiBsZW5ndGhBZGp1c3Q9InNwYWNpbmciIHRleHRMZW5ndGg9IjYyIiB4PSI5MTAiIHk9IjIwOTYuMjg5MSI+JiMxNzE7ZXh0ZW5kcyYjMTg3OzwvdGV4dD48L2c+PCEtLXJldmVyc2UgbGluayBWaWV3IEVkdWNhdGlvbmFsIEluZm9ybWF0aW9ucyB0byBEZWxldGUgQXNzZXNzbWVudHMtLT48ZyBpZD0ibGlua19WaWV3IEVkdWNhdGlvbmFsIEluZm9ybWF0aW9uc19EZWxldGUgQXNzZXNzbWVudHMiPjxwYXRoIGQ9Ik04NTQuNzAwOCwyMDQ2Ljc2MDIgQzkyNS42NTA4LDIwNjEuMTIwMiAxMDE4LjMxLDIwNzkuODcgMTA4MS4yNCwyMDkyLjYgIiBmaWxsPSJub25lIiBpZD0iVmlldyBFZHVjYXRpb25hbCBJbmZvcm1hdGlvbnMtYmFja3RvLURlbGV0ZSBBc3Nlc3NtZW50cyIgc3R5bGU9InN0cm9rZTojMTgxODE4O3N0cm9rZS13aWR0aDoxLjA7c3Ryb2tlLWRhc2hhcnJheTo3LjAsNy4wOyIvPjxwb2x5Z29uIGZpbGw9IiMxODE4MTgiIHBvaW50cz0iODQ4LjgyLDIwNDUuNTcsODU2Ljg0NzYsMjA1MS4yNzU5LDg1My43MjA2LDIwNDYuNTYxOSw4NTguNDM0NiwyMDQzLjQzNDksODQ4LjgyLDIwNDUuNTciIHN0eWxlPSJzdHJva2U6IzE4MTgxODtzdHJva2Utd2lkdGg6MS4wOyIvPjx0ZXh0IGZpbGw9IiMwMDAwMDAiIGZvbnQtZmFtaWx5PSJzYW5zLXNlcmlmIiBmb250LXNpemU9IjEzIiBsZW5ndGhBZGp1c3Q9InNwYWNpbmciIHRleHRMZW5ndGg9IjYyIiB4PSI5MTAiIHk9IjIwNTguMjg5MSI+JiMxNzE7ZXh0ZW5kcyYjMTg3OzwvdGV4dD48L2c+PCEtLXJldmVyc2UgbGluayBWaWV3IEVkdWNhdGlvbmFsIEluZm9ybWF0aW9ucyB0byBWaWV3IFN0dWRlbnQgU3VibWlzc2lvbnMtLT48ZyBpZD0ibGlua19WaWV3IEVkdWNhdGlvbmFsIEluZm9ybWF0aW9uc19WaWV3IFN0dWRlbnQgU3VibWlzc2lvbnMiPjxwYXRoIGQ9Ik04MTcuMzYzOCwyMDAxLjgxNDUgQzg4Ny45NTM4LDE5NjguNDI0NSAxMDAzLDE5MTQgMTAwMywxOTE0IEMxMDAzLDE5MTQgMTA0My4yNCwxOTAyLjQ2IDEwODAuNSwxODkxLjc4ICIgZmlsbD0ibm9uZSIgaWQ9IlZpZXcgRWR1Y2F0aW9uYWwgSW5mb3JtYXRpb25zLWJhY2t0by1WaWV3IFN0dWRlbnQgU3VibWlzc2lvbnMiIHN0eWxlPSJzdHJva2U6IzE4MTgxODtzdHJva2Utd2lkdGg6MS4wO3N0cm9rZS1kYXNoYXJyYXk6Ny4wLDcuMDsiLz48cG9seWdvbiBmaWxsPSIjMTgxODE4IiBwb2ludHM9IjgxMS45NCwyMDA0LjM4LDgyMS43ODYxLDIwMDQuMTQ3Niw4MTYuNDU5OSwyMDAyLjI0Miw4MTguMzY1NCwxOTk2LjkxNTgsODExLjk0LDIwMDQuMzgiIHN0eWxlPSJzdHJva2U6IzE4MTgxODtzdHJva2Utd2lkdGg6MS4wOyIvPjx0ZXh0IGZpbGw9IiMwMDAwMDAiIGZvbnQtZmFtaWx5PSJzYW5zLXNlcmlmIiBmb250LXNpemU9IjEzIiBsZW5ndGhBZGp1c3Q9InNwYWNpbmciIHRleHRMZW5ndGg9IjYyIiB4PSI5MTAiIHk9IjE5MjkuMjg5MSI+JiMxNzE7ZXh0ZW5kcyYjMTg3OzwvdGV4dD48L2c+PCEtLXJldmVyc2UgbGluayBWaWV3IEVkdWNhdGlvbmFsIEluZm9ybWF0aW9ucyB0byBHcmFkZSBTdHVkZW50IFN1Ym1pc3Npb25zLS0+PGcgaWQ9ImxpbmtfVmlldyBFZHVjYXRpb25hbCBJbmZvcm1hdGlvbnNfR3JhZGUgU3R1ZGVudCBTdWJtaXNzaW9ucyI+PHBhdGggZD0iTTg4NS4wMSwyMDI4IEM5MzYuMjIsMjAyOCA5ODkuOCwyMDI4IDEwMzkuMzMsMjAyOCAiIGZpbGw9Im5vbmUiIGlkPSJWaWV3IEVkdWNhdGlvbmFsIEluZm9ybWF0aW9ucy1iYWNrdG8tR3JhZGUgU3R1ZGVudCBTdWJtaXNzaW9ucyIgc3R5bGU9InN0cm9rZTojMTgxODE4O3N0cm9rZS13aWR0aDoxLjA7c3Ryb2tlLWRhc2hhcnJheTo3LjAsNy4wOyIvPjxwb2x5Z29uIGZpbGw9IiMxODE4MTgiIHBvaW50cz0iODc5LjAxLDIwMjgsODg4LjAxLDIwMzIsODg0LjAxLDIwMjgsODg4LjAxLDIwMjQsODc5LjAxLDIwMjgiIHN0eWxlPSJzdHJva2U6IzE4MTgxODtzdHJva2Utd2lkdGg6MS4wOyIvPjx0ZXh0IGZpbGw9IiMwMDAwMDAiIGZvbnQtZmFtaWx5PSJzYW5zLXNlcmlmIiBmb250LXNpemU9IjEzIiBsZW5ndGhBZGp1c3Q9InNwYWNpbmciIHRleHRMZW5ndGg9IjYyIiB4PSI5MTAiIHk9IjIwMjYuMjg5MSI+JiMxNzE7ZXh0ZW5kcyYjMTg3OzwvdGV4dD48L2c+PCEtLWxpbmsgQ3JlYXRlIEFzc2Vzc21lbnRzIHRvIFVwZGF0ZSBFZHVjYXRpb25hbCBJbmZvcm1hdGlvbnMtLT48ZyBpZD0ibGlua19DcmVhdGUgQXNzZXNzbWVudHNfVXBkYXRlIEVkdWNhdGlvbmFsIEluZm9ybWF0aW9ucyI+PHBhdGggZD0iTTExOTkuMjMsMTk2NS4xMiBDMTIzOC4zMiwxOTc1LjIxIDEyODQsMTk4NyAxMjg0LDE5ODcgQzEyODQsMTk4NyAxMzgzLjA5MiwyMDE5LjA5MSAxNDU2LjE2MiwyMDQyLjc2MSAiIGZpbGw9Im5vbmUiIGlkPSJDcmVhdGUgQXNzZXNzbWVudHMtdG8tVXBkYXRlIEVkdWNhdGlvbmFsIEluZm9ybWF0aW9ucyIgc3R5bGU9InN0cm9rZTojMTgxODE4O3N0cm9rZS13aWR0aDoxLjA7c3Ryb2tlLWRhc2hhcnJheTo3LjAsNy4wOyIvPjxwb2x5Z29uIGZpbGw9IiMxODE4MTgiIHBvaW50cz0iMTQ2MS44NywyMDQ0LjYxLDE0NTQuNTQwNywyMDM4LjAzMTEsMTQ1Ny4xMTMzLDIwNDMuMDY5MSwxNDUyLjA3NTMsMjA0NS42NDE4LDE0NjEuODcsMjA0NC42MSIgc3R5bGU9InN0cm9rZTojMTgxODE4O3N0cm9rZS13aWR0aDoxLjA7Ii8+PHRleHQgZmlsbD0iIzAwMDAwMCIgZm9udC1mYW1pbHk9InNhbnMtc2VyaWYiIGZvbnQtc2l6ZT0iMTMiIGxlbmd0aEFkanVzdD0ic3BhY2luZyIgdGV4dExlbmd0aD0iNjEiIHg9IjEzMTUuNSIgeT0iMTk5NS4yODkxIj4mIzE3MTtpbmNsdWRlJiMxODc7PC90ZXh0PjwvZz48IS0tbGluayBFZGl0IEFzc2Vzc21lbnRzIHRvIFVwZGF0ZSBFZHVjYXRpb25hbCBJbmZvcm1hdGlvbnMtLT48ZyBpZD0ibGlua19FZGl0IEFzc2Vzc21lbnRzX1VwZGF0ZSBFZHVjYXRpb25hbCBJbmZvcm1hdGlvbnMiPjxwYXRoIGQ9Ik0xMTk1Ljc0LDIxNjQuMjcgQzEyNjQuNDgsMjE0Ny4yIDEzNzgsMjExOSAxMzc4LDIxMTkgQzEzNzgsMjExOSAxNDE3LjQyOSwyMTA1LjYwMDQgMTQ1OC42NTksMjA5MS41OTA0ICIgZmlsbD0ibm9uZSIgaWQ9IkVkaXQgQXNzZXNzbWVudHMtdG8tVXBkYXRlIEVkdWNhdGlvbmFsIEluZm9ybWF0aW9ucyIgc3R5bGU9InN0cm9rZTojMTgxODE4O3N0cm9rZS13aWR0aDoxLjA7c3Ryb2tlLWRhc2hhcnJheTo3LjAsNy4wOyIvPjxwb2x5Z29uIGZpbGw9IiMxODE4MTgiIHBvaW50cz0iMTQ2NC4zNCwyMDg5LjY2LDE0NTQuNTMxNiwyMDg4Ljc2ODMsMTQ1OS42MDU4LDIwOTEuMjY4NywxNDU3LjEwNTUsMjA5Ni4zNDI5LDE0NjQuMzQsMjA4OS42NiIgc3R5bGU9InN0cm9rZTojMTgxODE4O3N0cm9rZS13aWR0aDoxLjA7Ii8+PHRleHQgZmlsbD0iIzAwMDAwMCIgZm9udC1mYW1pbHk9InNhbnMtc2VyaWYiIGZvbnQtc2l6ZT0iMTMiIGxlbmd0aEFkanVzdD0ic3BhY2luZyIgdGV4dExlbmd0aD0iNjEiIHg9IjEzMTUuNSIgeT0iMjExNy4yODkxIj4mIzE3MTtpbmNsdWRlJiMxODc7PC90ZXh0PjwvZz48IS0tbGluayBEZWxldGUgQXNzZXNzbWVudHMgdG8gVXBkYXRlIEVkdWNhdGlvbmFsIEluZm9ybWF0aW9ucy0tPjxnIGlkPSJsaW5rX0RlbGV0ZSBBc3Nlc3NtZW50c19VcGRhdGUgRWR1Y2F0aW9uYWwgSW5mb3JtYXRpb25zIj48cGF0aCBkPSJNMTIyMy41NSwyMTAwLjYgQzEyOTEuMjksMjA5Ni44MyAxMzc4LDIwOTIgMTM3OCwyMDkyIEMxMzc4LDIwOTIgMTM5Ni44NDgzLDIwODguOTE2MyAxNDI2LjQ0ODMsMjA4NC4wODYzICIgZmlsbD0ibm9uZSIgaWQ9IkRlbGV0ZSBBc3Nlc3NtZW50cy10by1VcGRhdGUgRWR1Y2F0aW9uYWwgSW5mb3JtYXRpb25zIiBzdHlsZT0ic3Ryb2tlOiMxODE4MTg7c3Ryb2tlLXdpZHRoOjEuMDtzdHJva2UtZGFzaGFycmF5OjcuMCw3LjA7Ii8+PHBvbHlnb24gZmlsbD0iIzE4MTgxOCIgcG9pbnRzPSIxNDMyLjM3LDIwODMuMTIsMTQyMi44NDMzLDIwODAuNjIxNiwxNDI3LjQzNTMsMjA4My45MjUyLDE0MjQuMTMxNywyMDg4LjUxNzIsMTQzMi4zNywyMDgzLjEyIiBzdHlsZT0ic3Ryb2tlOiMxODE4MTg7c3Ryb2tlLXdpZHRoOjEuMDsiLz48dGV4dCBmaWxsPSIjMDAwMDAwIiBmb250LWZhbWlseT0ic2Fucy1zZXJpZiIgZm9udC1zaXplPSIxMyIgbGVuZ3RoQWRqdXN0PSJzcGFjaW5nIiB0ZXh0TGVuZ3RoPSI2MSIgeD0iMTMxNS41IiB5PSIyMDkwLjI4OTEiPiYjMTcxO2luY2x1ZGUmIzE4Nzs8L3RleHQ+PC9nPjwhLS1saW5rIEdyYWRlIFN0dWRlbnQgU3VibWlzc2lvbnMgdG8gVXBkYXRlIEVkdWNhdGlvbmFsIEluZm9ybWF0aW9ucy0tPjxnIGlkPSJsaW5rX0dyYWRlIFN0dWRlbnQgU3VibWlzc2lvbnNfVXBkYXRlIEVkdWNhdGlvbmFsIEluZm9ybWF0aW9ucyI+PHBhdGggZD0iTTEyMzguNTUsMjAzNy40OSBDMTI5Mi45NiwyMDQyLjk4IDEzNTUuODAwNCwyMDQ5LjMxNjggMTQxMy4wMDA0LDIwNTUuMDk2OCAiIGZpbGw9Im5vbmUiIGlkPSJHcmFkZSBTdHVkZW50IFN1Ym1pc3Npb25zLXRvLVVwZGF0ZSBFZHVjYXRpb25hbCBJbmZvcm1hdGlvbnMiIHN0eWxlPSJzdHJva2U6IzE4MTgxODtzdHJva2Utd2lkdGg6MS4wO3N0cm9rZS1kYXNoYXJyYXk6Ny4wLDcuMDsiLz48cG9seWdvbiBmaWxsPSIjMTgxODE4IiBwb2ludHM9IjE0MTguOTcsMjA1NS43LDE0MTAuNDE3NywyMDUwLjgxNTQsMTQxMy45OTUzLDIwNTUuMTk3MywxNDA5LjYxMzUsMjA1OC43NzQ5LDE0MTguOTcsMjA1NS43IiBzdHlsZT0ic3Ryb2tlOiMxODE4MTg7c3Ryb2tlLXdpZHRoOjEuMDsiLz48dGV4dCBmaWxsPSIjMDAwMDAwIiBmb250LWZhbWlseT0ic2Fucy1zZXJpZiIgZm9udC1zaXplPSIxMyIgbGVuZ3RoQWRqdXN0PSJzcGFjaW5nIiB0ZXh0TGVuZ3RoPSI2MSIgeD0iMTMxNS41IiB5PSIyMDQ0LjI4OTEiPiYjMTcxO2luY2x1ZGUmIzE4Nzs8L3RleHQ+PC9nPjwhLS1saW5rIFQgdG8gVmlldyBFeGFtIEluZm9ybWF0aW9ucy0tPjxnIGlkPSJsaW5rX1RfVmlldyBFeGFtIEluZm9ybWF0aW9ucyI+PHBhdGggZD0iTTE0NC4xOSwyMDU5LjY0IEMxODIuMywyMTEwLjU2IDI1MywyMjA1IDI1MywyMjA1IEMyNTMsMjIwNSAyNTMsMjIwNSA1MzUsMjIwNSBDNTM1LDIyMDUgNjU0LjEsMjI2MS4xMSA3MTguOTksMjI5MS42OCAiIGZpbGw9Im5vbmUiIGlkPSJULVZpZXcgRXhhbSBJbmZvcm1hdGlvbnMiIHN0eWxlPSJzdHJva2U6IzE4MTgxODtzdHJva2Utd2lkdGg6MS4wOyIvPjwvZz48IS0tcmV2ZXJzZSBsaW5rIFZpZXcgRXhhbSBJbmZvcm1hdGlvbnMgdG8gQ3JlYXRlIEV4YW1zLS0+PGcgaWQ9ImxpbmtfVmlldyBFeGFtIEluZm9ybWF0aW9uc19DcmVhdGUgRXhhbXMiPjxwYXRoIGQ9Ik04NDMuMDgxNywyMzI1LjA2NTUgQzkxOC4wMjE3LDIzMzguMDY1NSAxMDI1LjIsMjM1Ni42NSAxMDkwLjY2LDIzNjguMDEgIiBmaWxsPSJub25lIiBpZD0iVmlldyBFeGFtIEluZm9ybWF0aW9ucy1iYWNrdG8tQ3JlYXRlIEV4YW1zIiBzdHlsZT0ic3Ryb2tlOiMxODE4MTg7c3Ryb2tlLXdpZHRoOjEuMDtzdHJva2UtZGFzaGFycmF5OjcuMCw3LjA7Ii8+PHBvbHlnb24gZmlsbD0iIzE4MTgxOCIgcG9pbnRzPSI4MzcuMTcsMjMyNC4wNCw4NDUuMzUzOSwyMzI5LjUxOTQsODQyLjA5NjQsMjMyNC44OTQ2LDg0Ni43MjEyLDIzMjEuNjM3MSw4MzcuMTcsMjMyNC4wNCIgc3R5bGU9InN0cm9rZTojMTgxODE4O3N0cm9rZS13aWR0aDoxLjA7Ii8+PHRleHQgZmlsbD0iIzAwMDAwMCIgZm9udC1mYW1pbHk9InNhbnMtc2VyaWYiIGZvbnQtc2l6ZT0iMTMiIGxlbmd0aEFkanVzdD0ic3BhY2luZyIgdGV4dExlbmd0aD0iNjIiIHg9IjkxMCIgeT0iMjMzNy4yODkxIj4mIzE3MTtleHRlbmRzJiMxODc7PC90ZXh0PjwvZz48IS0tcmV2ZXJzZSBsaW5rIFZpZXcgRXhhbSBJbmZvcm1hdGlvbnMgdG8gVXBkYXRlIEV4YW1zLS0+PGcgaWQ9ImxpbmtfVmlldyBFeGFtIEluZm9ybWF0aW9uc19VcGRhdGUgRXhhbXMiPjxwYXRoIGQ9Ik04NjIuNTUsMjMxMSBDOTMxLjg4LDIzMTEgMTAxOC4xMywyMzExIDEwNzguODcsMjMxMSAiIGZpbGw9Im5vbmUiIGlkPSJWaWV3IEV4YW0gSW5mb3JtYXRpb25zLWJhY2t0by1VcGRhdGUgRXhhbXMiIHN0eWxlPSJzdHJva2U6IzE4MTgxODtzdHJva2Utd2lkdGg6MS4wO3N0cm9rZS1kYXNoYXJyYXk6Ny4wLDcuMDsiLz48cG9seWdvbiBmaWxsPSIjMTgxODE4IiBwb2ludHM9Ijg1Ni41NSwyMzExLDg2NS41NSwyMzE1LDg2MS41NSwyMzExLDg2NS41NSwyMzA3LDg1Ni41NSwyMzExIiBzdHlsZT0ic3Ryb2tlOiMxODE4MTg7c3Ryb2tlLXdpZHRoOjEuMDsiLz48dGV4dCBmaWxsPSIjMDAwMDAwIiBmb250LWZhbWlseT0ic2Fucy1zZXJpZiIgZm9udC1zaXplPSIxMyIgbGVuZ3RoQWRqdXN0PSJzcGFjaW5nIiB0ZXh0TGVuZ3RoPSI2MiIgeD0iOTEwIiB5PSIyMzA5LjI4OTEiPiYjMTcxO2V4dGVuZHMmIzE4Nzs8L3RleHQ+PC9nPjwhLS1yZXZlcnNlIGxpbmsgVmlldyBFeGFtIEluZm9ybWF0aW9ucyB0byBEZWxldGUgRXhhbXMtLT48ZyBpZD0ibGlua19WaWV3IEV4YW0gSW5mb3JtYXRpb25zX0RlbGV0ZSBFeGFtcyI+PHBhdGggZD0iTTg0My4wODE3LDIyOTYuOTM0NSBDOTE4LjAyMTcsMjI4My45MzQ1IDEwMjUuMiwyMjY1LjM1IDEwOTAuNjYsMjI1My45OSAiIGZpbGw9Im5vbmUiIGlkPSJWaWV3IEV4YW0gSW5mb3JtYXRpb25zLWJhY2t0by1EZWxldGUgRXhhbXMiIHN0eWxlPSJzdHJva2U6IzE4MTgxODtzdHJva2Utd2lkdGg6MS4wO3N0cm9rZS1kYXNoYXJyYXk6Ny4wLDcuMDsiLz48cG9seWdvbiBmaWxsPSIjMTgxODE4IiBwb2ludHM9IjgzNy4xNywyMjk3Ljk2LDg0Ni43MjEyLDIzMDAuMzYyOSw4NDIuMDk2NCwyMjk3LjEwNTQsODQ1LjM1MzksMjI5Mi40ODA2LDgzNy4xNywyMjk3Ljk2IiBzdHlsZT0ic3Ryb2tlOiMxODE4MTg7c3Ryb2tlLXdpZHRoOjEuMDsiLz48dGV4dCBmaWxsPSIjMDAwMDAwIiBmb250LWZhbWlseT0ic2Fucy1zZXJpZiIgZm9udC1zaXplPSIxMyIgbGVuZ3RoQWRqdXN0PSJzcGFjaW5nIiB0ZXh0TGVuZ3RoPSI2MiIgeD0iOTEwIiB5PSIyMjc1LjI4OTEiPiYjMTcxO2V4dGVuZHMmIzE4Nzs8L3RleHQ+PC9nPjwhLS1yZXZlcnNlIGxpbmsgVmlldyBFeGFtIEluZm9ybWF0aW9ucyB0byBFZGl0IEV4YW0gUmVzdWx0cy0tPjxnIGlkPSJsaW5rX1ZpZXcgRXhhbSBJbmZvcm1hdGlvbnNfRWRpdCBFeGFtIFJlc3VsdHMiPjxwYXRoIGQ9Ik04MTMuNDQ5OCwyMzMyLjEzMDQgQzg4My4zNjk4LDIzNjAuODYwNCAxMDAzLDI0MTAgMTAwMywyNDEwIEMxMDAzLDI0MTAgMTA1MC44OSwyNDIyLjM2IDEwOTAuNTYsMjQzMi41OSAiIGZpbGw9Im5vbmUiIGlkPSJWaWV3IEV4YW0gSW5mb3JtYXRpb25zLWJhY2t0by1FZGl0IEV4YW0gUmVzdWx0cyIgc3R5bGU9InN0cm9rZTojMTgxODE4O3N0cm9rZS13aWR0aDoxLjA7c3Ryb2tlLWRhc2hhcnJheTo3LjAsNy4wOyIvPjxwb2x5Z29uIGZpbGw9IiMxODE4MTgiIHBvaW50cz0iODA3LjksMjMyOS44NSw4MTQuNzA0NCwyMzM2Ljk3MDQsODEyLjUyNDgsMjMzMS43NTAzLDgxNy43NDQ5LDIzMjkuNTcwNyw4MDcuOSwyMzI5Ljg1IiBzdHlsZT0ic3Ryb2tlOiMxODE4MTg7c3Ryb2tlLXdpZHRoOjEuMDsiLz48dGV4dCBmaWxsPSIjMDAwMDAwIiBmb250LWZhbWlseT0ic2Fucy1zZXJpZiIgZm9udC1zaXplPSIxMyIgbGVuZ3RoQWRqdXN0PSJzcGFjaW5nIiB0ZXh0TGVuZ3RoPSI2MiIgeD0iOTEwIiB5PSIyMzcxLjI4OTEiPiYjMTcxO2V4dGVuZHMmIzE4Nzs8L3RleHQ+PC9nPjwhLS1saW5rIENyZWF0ZSBFeGFtcyB0byBVcGRhdGUgRXhhbSBJbmZvcm1hdGlvbnMtLT48ZyBpZD0ibGlua19DcmVhdGUgRXhhbXNfVXBkYXRlIEV4YW0gSW5mb3JtYXRpb25zIj48cGF0aCBkPSJNMTE5Ni42MywyMzY4LjEgQzEyNjEuOTQsMjM1Ni45NSAxMzY4LjY0NTYsMjMzOC43MiAxNDQ0Ljk0NTYsMjMyNS42OSAiIGZpbGw9Im5vbmUiIGlkPSJDcmVhdGUgRXhhbXMtdG8tVXBkYXRlIEV4YW0gSW5mb3JtYXRpb25zIiBzdHlsZT0ic3Ryb2tlOiMxODE4MTg7c3Ryb2tlLXdpZHRoOjEuMDtzdHJva2UtZGFzaGFycmF5OjcuMCw3LjA7Ii8+PHBvbHlnb24gZmlsbD0iIzE4MTgxOCIgcG9pbnRzPSIxNDUwLjg2LDIzMjQuNjgsMTQ0MS4zMTUxLDIzMjIuMjUyMSwxNDQ1LjkzMTQsMjMyNS41MjE3LDE0NDIuNjYxOCwyMzMwLjEzNzksMTQ1MC44NiwyMzI0LjY4IiBzdHlsZT0ic3Ryb2tlOiMxODE4MTg7c3Ryb2tlLXdpZHRoOjEuMDsiLz48dGV4dCBmaWxsPSIjMDAwMDAwIiBmb250LWZhbWlseT0ic2Fucy1zZXJpZiIgZm9udC1zaXplPSIxMyIgbGVuZ3RoQWRqdXN0PSJzcGFjaW5nIiB0ZXh0TGVuZ3RoPSI2MSIgeD0iMTMxNS41IiB5PSIyMzM3LjI4OTEiPiYjMTcxO2luY2x1ZGUmIzE4Nzs8L3RleHQ+PC9nPjwhLS1saW5rIFVwZGF0ZSBFeGFtcyB0byBVcGRhdGUgRXhhbSBJbmZvcm1hdGlvbnMtLT48ZyBpZD0ibGlua19VcGRhdGUgRXhhbXNfVXBkYXRlIEV4YW0gSW5mb3JtYXRpb25zIj48cGF0aCBkPSJNMTIwOC4zMiwyMzExIEMxMjY4LjY4LDIzMTEgMTM1NC4yMSwyMzExIDE0MjQuMzksMjMxMSAiIGZpbGw9Im5vbmUiIGlkPSJVcGRhdGUgRXhhbXMtdG8tVXBkYXRlIEV4YW0gSW5mb3JtYXRpb25zIiBzdHlsZT0ic3Ryb2tlOiMxODE4MTg7c3Ryb2tlLXdpZHRoOjEuMDtzdHJva2UtZGFzaGFycmF5OjcuMCw3LjA7Ii8+PHBvbHlnb24gZmlsbD0iIzE4MTgxOCIgcG9pbnRzPSIxNDMwLjM5LDIzMTEsMTQyMS4zOSwyMzA3LDE0MjUuMzksMjMxMSwxNDIxLjM5LDIzMTUsMTQzMC4zOSwyMzExIiBzdHlsZT0ic3Ryb2tlOiMxODE4MTg7c3Ryb2tlLXdpZHRoOjEuMDsiLz48dGV4dCBmaWxsPSIjMDAwMDAwIiBmb250LWZhbWlseT0ic2Fucy1zZXJpZiIgZm9udC1zaXplPSIxMyIgbGVuZ3RoQWRqdXN0PSJzcGFjaW5nIiB0ZXh0TGVuZ3RoPSI2MSIgeD0iMTMxNS41IiB5PSIyMzA5LjI4OTEiPiYjMTcxO2luY2x1ZGUmIzE4Nzs8L3RleHQ+PC9nPjwhLS1saW5rIERlbGV0ZSBFeGFtcyB0byBVcGRhdGUgRXhhbSBJbmZvcm1hdGlvbnMtLT48ZyBpZD0ibGlua19EZWxldGUgRXhhbXNfVXBkYXRlIEV4YW0gSW5mb3JtYXRpb25zIj48cGF0aCBkPSJNMTE5Ni42MywyMjUzLjkgQzEyNjEuOTQsMjI2NS4wNSAxMzY4LjY0NTYsMjI4My4yOCAxNDQ0Ljk0NTYsMjI5Ni4zMSAiIGZpbGw9Im5vbmUiIGlkPSJEZWxldGUgRXhhbXMtdG8tVXBkYXRlIEV4YW0gSW5mb3JtYXRpb25zIiBzdHlsZT0ic3Ryb2tlOiMxODE4MTg7c3Ryb2tlLXdpZHRoOjEuMDtzdHJva2UtZGFzaGFycmF5OjcuMCw3LjA7Ii8+PHBvbHlnb24gZmlsbD0iIzE4MTgxOCIgcG9pbnRzPSIxNDUwLjg2LDIyOTcuMzIsMTQ0Mi42NjE4LDIyOTEuODYyMSwxNDQ1LjkzMTQsMjI5Ni40NzgzLDE0NDEuMzE1MSwyMjk5Ljc0NzksMTQ1MC44NiwyMjk3LjMyIiBzdHlsZT0ic3Ryb2tlOiMxODE4MTg7c3Ryb2tlLXdpZHRoOjEuMDsiLz48dGV4dCBmaWxsPSIjMDAwMDAwIiBmb250LWZhbWlseT0ic2Fucy1zZXJpZiIgZm9udC1zaXplPSIxMyIgbGVuZ3RoQWRqdXN0PSJzcGFjaW5nIiB0ZXh0TGVuZ3RoPSI2MSIgeD0iMTMxNS41IiB5PSIyMjczLjI4OTEiPiYjMTcxO2luY2x1ZGUmIzE4Nzs8L3RleHQ+PC9nPjwhLS1saW5rIEVkaXQgRXhhbSBSZXN1bHRzIHRvIFVwZGF0ZSBFeGFtIEluZm9ybWF0aW9ucy0tPjxnIGlkPSJsaW5rX0VkaXQgRXhhbSBSZXN1bHRzX1VwZGF0ZSBFeGFtIEluZm9ybWF0aW9ucyI+PHBhdGggZD0iTTExOTYuNDQsMjQzMi41OSBDMTIzNi4xMSwyNDIyLjM2IDEyODQsMjQxMCAxMjg0LDI0MTAgQzEyODQsMjQxMCAxNDA0LjMwMDYsMjM2MS43ODE5IDE0NzYuMzQwNiwyMzMyLjkxMTkgIiBmaWxsPSJub25lIiBpZD0iRWRpdCBFeGFtIFJlc3VsdHMtdG8tVXBkYXRlIEV4YW0gSW5mb3JtYXRpb25zIiBzdHlsZT0ic3Ryb2tlOiMxODE4MTg7c3Ryb2tlLXdpZHRoOjEuMDtzdHJva2UtZGFzaGFycmF5OjcuMCw3LjA7Ii8+PHBvbHlnb24gZmlsbD0iIzE4MTgxOCIgcG9pbnRzPSIxNDgxLjkxLDIzMzAuNjgsMTQ3Mi4wNjc5LDIzMzAuMzE1LDE0NzcuMjY4OCwyMzMyLjU0LDE0NzUuMDQzOCwyMzM3Ljc0MDksMTQ4MS45MSwyMzMwLjY4IiBzdHlsZT0ic3Ryb2tlOiMxODE4MTg7c3Ryb2tlLXdpZHRoOjEuMDsiLz48dGV4dCBmaWxsPSIjMDAwMDAwIiBmb250LWZhbWlseT0ic2Fucy1zZXJpZiIgZm9udC1zaXplPSIxMyIgbGVuZ3RoQWRqdXN0PSJzcGFjaW5nIiB0ZXh0TGVuZ3RoPSI2MSIgeD0iMTMxNS41IiB5PSIyMzc0LjI4OTEiPiYjMTcxO2luY2x1ZGUmIzE4Nzs8L3RleHQ+PC9nPjwhLS1saW5rIFVwZGF0ZSBFZHVjYXRpb25hbCBJbmZvcm1hdGlvbiB0byBUUi0tPjxnIGlkPSJsaW5rX1VwZGF0ZSBFZHVjYXRpb25hbCBJbmZvcm1hdGlvbl9UUiI+PHBhdGggZD0iTTE2MDAuMDUsOTAuODkgQzE2MzguODIsMTAzLjU1IDE2ODAsMTE3IDE2ODAsMTE3IEMxNjgwLDExNyAxNzE3LjY5LDE2Mi45MiAxNzQzLjQ2LDE5NC4zMSAiIGZpbGw9Im5vbmUiIGlkPSJVcGRhdGUgRWR1Y2F0aW9uYWwgSW5mb3JtYXRpb24tVFIiIHN0eWxlPSJzdHJva2U6IzE4MTgxODtzdHJva2Utd2lkdGg6MS4wOyIvPjwvZz48IS0tbGluayBBcHBseSBmb3IgUmVjb3JyZWN0aW9ucyB0byBUUi0tPjxnIGlkPSJsaW5rX0FwcGx5IGZvciBSZWNvcnJlY3Rpb25zX1RSIj48cGF0aCBkPSJNMTYyOS41MywyMjMgQzE2NzEuMzIsMjIzIDE3MTYuNzIsMjIzIDE3NDMuNDcsMjIzICIgZmlsbD0ibm9uZSIgaWQ9IkFwcGx5IGZvciBSZWNvcnJlY3Rpb25zLVRSIiBzdHlsZT0ic3Ryb2tlOiMxODE4MTg7c3Ryb2tlLXdpZHRoOjEuMDsiLz48L2c+PCEtLWxpbmsgTm90aWZ5IFRlYWNoZXJzIHRvIFRSLS0+PGcgaWQ9ImxpbmtfTm90aWZ5IFRlYWNoZXJzX1RSIj48cGF0aCBkPSJNMTU1Mi45NSwzOTkuNTQgQzE1OTUuOTQsMzY0LjA4IDE2OTcuMTcsMjgwLjYgMTc0My4zMiwyNDIuNTMgIiBmaWxsPSJub25lIiBpZD0iTm90aWZ5IFRlYWNoZXJzLVRSIiBzdHlsZT0ic3Ryb2tlOiMxODE4MTg7c3Ryb2tlLXdpZHRoOjEuMDsiLz48L2c+PCEtLWxpbmsgU0ggdG8gVmlldyBTdGFmZiBJbmZvcm1hdGlvbnMtLT48ZyBpZD0ibGlua19TSF9WaWV3IFN0YWZmIEluZm9ybWF0aW9ucyI+PHBhdGggZD0iTTMwMy40Miw2MjcuMDIgQzQwMy42NSw1NzMuMjMgNjMyLjAyLDQ1MC42OCA3MjIuMjgsNDAyLjI0ICIgZmlsbD0ibm9uZSIgaWQ9IlNILVZpZXcgU3RhZmYgSW5mb3JtYXRpb25zIiBzdHlsZT0ic3Ryb2tlOiMxODE4MTg7c3Ryb2tlLXdpZHRoOjEuMDsiLz48L2c+PCEtLXJldmVyc2UgbGluayBWaWV3IFN0YWZmIEluZm9ybWF0aW9ucyB0byBBZGQgU3RhZmYgTWVtYmVycy0tPjxnIGlkPSJsaW5rX1ZpZXcgU3RhZmYgSW5mb3JtYXRpb25zX0FkZCBTdGFmZiBNZW1iZXJzIj48cGF0aCBkPSJNODU2LjY5ODcsMzcyLjI5NzkgQzkyMy43ODg3LDM2NS40MTc5IDEwMDguNzIsMzU2LjcxIDEwNzEuMTQsMzUwLjMxICIgZmlsbD0ibm9uZSIgaWQ9IlZpZXcgU3RhZmYgSW5mb3JtYXRpb25zLWJhY2t0by1BZGQgU3RhZmYgTWVtYmVycyIgc3R5bGU9InN0cm9rZTojMTgxODE4O3N0cm9rZS13aWR0aDoxLjA7c3Ryb2tlLWRhc2hhcnJheTo3LjAsNy4wOyIvPjxwb2x5Z29uIGZpbGw9IiMxODE4MTgiIHBvaW50cz0iODUwLjczLDM3Mi45MSw4NjAuMDkxMSwzNzUuOTcxLDg1NS43MDM5LDM3Mi4zOTk5LDg1OS4yNzUsMzY4LjAxMjcsODUwLjczLDM3Mi45MSIgc3R5bGU9InN0cm9rZTojMTgxODE4O3N0cm9rZS13aWR0aDoxLjA7Ii8+PHRleHQgZmlsbD0iIzAwMDAwMCIgZm9udC1mYW1pbHk9InNhbnMtc2VyaWYiIGZvbnQtc2l6ZT0iMTMiIGxlbmd0aEFkanVzdD0ic3BhY2luZyIgdGV4dExlbmd0aD0iNjIiIHg9IjkxMCIgeT0iMzYwLjI4OTEiPiYjMTcxO2V4dGVuZHMmIzE4Nzs8L3RleHQ+PC9nPjwhLS1yZXZlcnNlIGxpbmsgVmlldyBTdGFmZiBJbmZvcm1hdGlvbnMgdG8gVXBkYXRlIFN0YWZmIE1lbWJlcnMtLT48ZyBpZD0ibGlua19WaWV3IFN0YWZmIEluZm9ybWF0aW9uc19VcGRhdGUgU3RhZmYgTWVtYmVycyI+PHBhdGggZD0iTTgyNC44MzksMzYyLjQ0NzEgQzg5Ni4xMDksMzQwLjI2NzEgMTAwMywzMDcgMTAwMywzMDcgQzEwMDMsMzA3IDEwNDYuODMsMjk1LjM3IDEwODUuMzYsMjg1LjE2ICIgZmlsbD0ibm9uZSIgaWQ9IlZpZXcgU3RhZmYgSW5mb3JtYXRpb25zLWJhY2t0by1VcGRhdGUgU3RhZmYgTWVtYmVycyIgc3R5bGU9InN0cm9rZTojMTgxODE4O3N0cm9rZS13aWR0aDoxLjA7c3Ryb2tlLWRhc2hhcnJheTo3LjAsNy4wOyIvPjxwb2x5Z29uIGZpbGw9IiMxODE4MTgiIHBvaW50cz0iODE5LjExLDM2NC4yMyw4MjguODkyMSwzNjUuMzc0OSw4MjMuODg0MSwzNjIuNzQ0Miw4MjYuNTE0OSwzNTcuNzM2Myw4MTkuMTEsMzY0LjIzIiBzdHlsZT0ic3Ryb2tlOiMxODE4MTg7c3Ryb2tlLXdpZHRoOjEuMDsiLz48dGV4dCBmaWxsPSIjMDAwMDAwIiBmb250LWZhbWlseT0ic2Fucy1zZXJpZiIgZm9udC1zaXplPSIxMyIgbGVuZ3RoQWRqdXN0PSJzcGFjaW5nIiB0ZXh0TGVuZ3RoPSI2MiIgeD0iOTEwIiB5PSIzMTYuMjg5MSI+JiMxNzE7ZXh0ZW5kcyYjMTg3OzwvdGV4dD48L2c+PCEtLXJldmVyc2UgbGluayBWaWV3IFN0YWZmIEluZm9ybWF0aW9ucyB0byBSZW1vdmUgU3RhZmYgTWVtYmVycy0tPjxnIGlkPSJsaW5rX1ZpZXcgU3RhZmYgSW5mb3JtYXRpb25zX1JlbW92ZSBTdGFmZiBNZW1iZXJzIj48cGF0aCBkPSJNODQyLjI1MzksMzk3LjI4MzUgQzg3OC43MTM5LDQwNC4yMzM1IDkwOSw0MTAgOTA5LDQxMCBDOTA5LDQxMCA5ODkuMTcsNDEyLjA2IDEwNTUuNTUsNDEzLjc3ICIgZmlsbD0ibm9uZSIgaWQ9IlZpZXcgU3RhZmYgSW5mb3JtYXRpb25zLWJhY2t0by1SZW1vdmUgU3RhZmYgTWVtYmVycyIgc3R5bGU9InN0cm9rZTojMTgxODE4O3N0cm9rZS13aWR0aDoxLjA7c3Ryb2tlLWRhc2hhcnJheTo3LjAsNy4wOyIvPjxwb2x5Z29uIGZpbGw9IiMxODE4MTgiIHBvaW50cz0iODM2LjM2LDM5Ni4xNiw4NDQuNDUxOCw0MDEuNzc0NSw4NDEuMjcxNiwzOTcuMDk2Miw4NDUuOTQ5OCwzOTMuOTE2LDgzNi4zNiwzOTYuMTYiIHN0eWxlPSJzdHJva2U6IzE4MTgxODtzdHJva2Utd2lkdGg6MS4wOyIvPjx0ZXh0IGZpbGw9IiMwMDAwMDAiIGZvbnQtZmFtaWx5PSJzYW5zLXNlcmlmIiBmb250LXNpemU9IjEzIiBsZW5ndGhBZGp1c3Q9InNwYWNpbmciIHRleHRMZW5ndGg9IjYyIiB4PSI5MTAiIHk9IjQwOC4yODkxIj4mIzE3MTtleHRlbmRzJiMxODc7PC90ZXh0PjwvZz48IS0tbGluayBTSCB0byBWaWV3IFNlY3Rpb25hbCBJbmZvcm1hdGlvbnMtLT48ZyBpZD0ibGlua19TSF9WaWV3IFNlY3Rpb25hbCBJbmZvcm1hdGlvbnMiPjxwYXRoIGQ9Ik0zMDMuNDIsNjQ1LjkgQzM4Ny4yMyw2MzMuNjIgNTYwLjY1LDYwOC4yMSA2NjcuOTgsNTkyLjQ4ICIgZmlsbD0ibm9uZSIgaWQ9IlNILVZpZXcgU2VjdGlvbmFsIEluZm9ybWF0aW9ucyIgc3R5bGU9InN0cm9rZTojMTgxODE4O3N0cm9rZS13aWR0aDoxLjA7Ii8+PC9nPjwhLS1yZXZlcnNlIGxpbmsgVmlldyBTZWN0aW9uYWwgSW5mb3JtYXRpb25zIHRvIENyZWF0ZSBUaW1lIFRhYmxlcy0tPjxnIGlkPSJsaW5rX1ZpZXcgU2VjdGlvbmFsIEluZm9ybWF0aW9uc19DcmVhdGUgVGltZSBUYWJsZXMiPjxwYXRoIGQ9Ik04NzYuMjY0Nyw1NzQuMTk3NyBDOTM3LjU1NDcsNTcxLjYxNzcgMTAwNi44OSw1NjguNyAxMDYyLjc2LDU2Ni4zNSAiIGZpbGw9Im5vbmUiIGlkPSJWaWV3IFNlY3Rpb25hbCBJbmZvcm1hdGlvbnMtYmFja3RvLUNyZWF0ZSBUaW1lIFRhYmxlcyIgc3R5bGU9InN0cm9rZTojMTgxODE4O3N0cm9rZS13aWR0aDoxLjA7c3Ryb2tlLWRhc2hhcnJheTo3LjAsNy4wOyIvPjxwb2x5Z29uIGZpbGw9IiMxODE4MTgiIHBvaW50cz0iODcwLjI3LDU3NC40NSw4NzkuNDMwMyw1NzguMDY3OSw4NzUuMjY1Niw1NzQuMjM5Nyw4NzkuMDkzOCw1NzAuMDc1LDg3MC4yNyw1NzQuNDUiIHN0eWxlPSJzdHJva2U6IzE4MTgxODtzdHJva2Utd2lkdGg6MS4wOyIvPjx0ZXh0IGZpbGw9IiMwMDAwMDAiIGZvbnQtZmFtaWx5PSJzYW5zLXNlcmlmIiBmb250LXNpemU9IjEzIiBsZW5ndGhBZGp1c3Q9InNwYWNpbmciIHRleHRMZW5ndGg9IjYyIiB4PSI5MTAiIHk9IjU2OS4yODkxIj4mIzE3MTtleHRlbmRzJiMxODc7PC90ZXh0PjwvZz48IS0tcmV2ZXJzZSBsaW5rIFZpZXcgU2VjdGlvbmFsIEluZm9ybWF0aW9ucyB0byBVcGRhdGUgVGltZSBUYWJsZXMtLT48ZyBpZD0ibGlua19WaWV3IFNlY3Rpb25hbCBJbmZvcm1hdGlvbnNfVXBkYXRlIFRpbWUgVGFibGVzIj48cGF0aCBkPSJNODQzLjkzMjQsNTU5LjgzMzggQzkxNi44MDI0LDU0Mi43OTM4IDEwMTkuMjgsNTE4LjgyIDEwODUuMTUsNTAzLjQxICIgZmlsbD0ibm9uZSIgaWQ9IlZpZXcgU2VjdGlvbmFsIEluZm9ybWF0aW9ucy1iYWNrdG8tVXBkYXRlIFRpbWUgVGFibGVzIiBzdHlsZT0ic3Ryb2tlOiMxODE4MTg7c3Ryb2tlLXdpZHRoOjEuMDtzdHJva2UtZGFzaGFycmF5OjcuMCw3LjA7Ii8+PHBvbHlnb24gZmlsbD0iIzE4MTgxOCIgcG9pbnRzPSI4MzguMDksNTYxLjIsODQ3Ljc2NDQsNTYzLjA0NTYsODQyLjk1ODcsNTYwLjA2MTUsODQ1Ljk0MjgsNTU1LjI1NTgsODM4LjA5LDU2MS4yIiBzdHlsZT0ic3Ryb2tlOiMxODE4MTg7c3Ryb2tlLXdpZHRoOjEuMDsiLz48dGV4dCBmaWxsPSIjMDAwMDAwIiBmb250LWZhbWlseT0ic2Fucy1zZXJpZiIgZm9udC1zaXplPSIxMyIgbGVuZ3RoQWRqdXN0PSJzcGFjaW5nIiB0ZXh0TGVuZ3RoPSI2MiIgeD0iOTEwIiB5PSI1MzAuMjg5MSI+JiMxNzE7ZXh0ZW5kcyYjMTg3OzwvdGV4dD48L2c+PCEtLXJldmVyc2UgbGluayBWaWV3IFNlY3Rpb25hbCBJbmZvcm1hdGlvbnMgdG8gRGVsZXRlIFRpbWUgVGFibGVzLS0+PGcgaWQ9ImxpbmtfVmlldyBTZWN0aW9uYWwgSW5mb3JtYXRpb25zX0RlbGV0ZSBUaW1lIFRhYmxlcyI+PHBhdGggZD0iTTg1OS41NTM5LDU5My42MTgxIEM5MjcuNTAzOSw2MDMuNzg4MSAxMDEyLjcyLDYxNi41NiAxMDc0LjMyLDYyNS43OSAiIGZpbGw9Im5vbmUiIGlkPSJWaWV3IFNlY3Rpb25hbCBJbmZvcm1hdGlvbnMtYmFja3RvLURlbGV0ZSBUaW1lIFRhYmxlcyIgc3R5bGU9InN0cm9rZTojMTgxODE4O3N0cm9rZS13aWR0aDoxLjA7c3Ryb2tlLWRhc2hhcnJheTo3LjAsNy4wOyIvPjxwb2x5Z29uIGZpbGw9IiMxODE4MTgiIHBvaW50cz0iODUzLjYyLDU5Mi43Myw4NjEuOTI4OCw1OTguMDE4MSw4NTguNTY0OSw1OTMuNDcwMSw4NjMuMTEyOSw1OTAuMTA2Miw4NTMuNjIsNTkyLjczIiBzdHlsZT0ic3Ryb2tlOiMxODE4MTg7c3Ryb2tlLXdpZHRoOjEuMDsiLz48dGV4dCBmaWxsPSIjMDAwMDAwIiBmb250LWZhbWlseT0ic2Fucy1zZXJpZiIgZm9udC1zaXplPSIxMyIgbGVuZ3RoQWRqdXN0PSJzcGFjaW5nIiB0ZXh0TGVuZ3RoPSI2MiIgeD0iOTEwIiB5PSI2MDEuMjg5MSI+JiMxNzE7ZXh0ZW5kcyYjMTg3OzwvdGV4dD48L2c+PCEtLWxpbmsgTm90aWZ5IFNlY3Rpb25hbCBIZWFkcyB0byBTSFItLT48ZyBpZD0ibGlua19Ob3RpZnkgU2VjdGlvbmFsIEhlYWRzX1NIUiI+PHBhdGggZD0iTTE2MjAuNDcsNjMyLjkgQzE2NTMuODMsNjMwLjE5IDE2OTAuNjIsNjI3LjIgMTcxOC45OSw2MjQuOSAiIGZpbGw9Im5vbmUiIGlkPSJOb3RpZnkgU2VjdGlvbmFsIEhlYWRzLVNIUiIgc3R5bGU9InN0cm9rZTojMTgxODE4O3N0cm9rZS13aWR0aDoxLjA7Ii8+PC9nPjwhLS1saW5rIEFkZCBTdGFmZiBNZW1iZXJzIHRvIE5vdGlmeSBUZWFjaGVycy0tPjxnIGlkPSJsaW5rX0FkZCBTdGFmZiBNZW1iZXJzX05vdGlmeSBUZWFjaGVycyI+PHBhdGggZD0iTTEyMDQuODksMzU0LjQxIEMxMjc4Ljg4LDM2OC4zOCAxMzk3LjMzNDEsMzkwLjc1NjkgMTQ2OS4yMTQxLDQwNC4zMjY5ICIgZmlsbD0ibm9uZSIgaWQ9IkFkZCBTdGFmZiBNZW1iZXJzLXRvLU5vdGlmeSBUZWFjaGVycyIgc3R5bGU9InN0cm9rZTojMTgxODE4O3N0cm9rZS13aWR0aDoxLjA7c3Ryb2tlLWRhc2hhcnJheTo3LjAsNy4wOyIvPjxwb2x5Z29uIGZpbGw9IiMxODE4MTgiIHBvaW50cz0iMTQ3NS4xMSw0MDUuNDQsMTQ2Ny4wMDgzLDM5OS44Mzk4LDE0NzAuMTk2OCw0MDQuNTEyNSwxNDY1LjUyNDIsNDA3LjcwMSwxNDc1LjExLDQwNS40NCIgc3R5bGU9InN0cm9rZTojMTgxODE4O3N0cm9rZS13aWR0aDoxLjA7Ii8+PHRleHQgZmlsbD0iIzAwMDAwMCIgZm9udC1mYW1pbHk9InNhbnMtc2VyaWYiIGZvbnQtc2l6ZT0iMTMiIGxlbmd0aEFkanVzdD0ic3BhY2luZyIgdGV4dExlbmd0aD0iNjEiIHg9IjEzMTUuNSIgeT0iMzc0LjI4OTEiPiYjMTcxO2luY2x1ZGUmIzE4Nzs8L3RleHQ+PC9nPjwhLS1saW5rIFVwZGF0ZSBTdGFmZiBNZW1iZXJzIHRvIE5vdGlmeSBUZWFjaGVycy0tPjxnIGlkPSJsaW5rX1VwZGF0ZSBTdGFmZiBNZW1iZXJzX05vdGlmeSBUZWFjaGVycyI+PHBhdGggZD0iTTEyMDEuNjQsMjg1LjE2IEMxMjQwLjE3LDI5NS4zNyAxMjg0LDMwNyAxMjg0LDMwNyBDMTI4NCwzMDcgMTQyNC4wNDA4LDM2OC43OTc2IDE0OTEuNjgwOCwzOTguNjQ3NiAiIGZpbGw9Im5vbmUiIGlkPSJVcGRhdGUgU3RhZmYgTWVtYmVycy10by1Ob3RpZnkgVGVhY2hlcnMiIHN0eWxlPSJzdHJva2U6IzE4MTgxODtzdHJva2Utd2lkdGg6MS4wO3N0cm9rZS1kYXNoYXJyYXk6Ny4wLDcuMDsiLz48cG9seWdvbiBmaWxsPSIjMTgxODE4IiBwb2ludHM9IjE0OTcuMTcsNDAxLjA3LDE0OTAuNTUxMSwzOTMuNzc2OCwxNDkyLjU5NTYsMzk5LjA1MTMsMTQ4Ny4zMjEyLDQwMS4wOTU4LDE0OTcuMTcsNDAxLjA3IiBzdHlsZT0ic3Ryb2tlOiMxODE4MTg7c3Ryb2tlLXdpZHRoOjEuMDsiLz48dGV4dCBmaWxsPSIjMDAwMDAwIiBmb250LWZhbWlseT0ic2Fucy1zZXJpZiIgZm9udC1zaXplPSIxMyIgbGVuZ3RoQWRqdXN0PSJzcGFjaW5nIiB0ZXh0TGVuZ3RoPSI2MSIgeD0iMTMxNS41IiB5PSIzMTkuMjg5MSI+JiMxNzE7aW5jbHVkZSYjMTg3OzwvdGV4dD48L2c+PCEtLWxpbmsgUmVtb3ZlIFN0YWZmIE1lbWJlcnMgdG8gTm90aWZ5IFRlYWNoZXJzLS0+PGcgaWQ9ImxpbmtfUmVtb3ZlIFN0YWZmIE1lbWJlcnNfTm90aWZ5IFRlYWNoZXJzIj48cGF0aCBkPSJNMTIzMi4yLDQxNiBDMTMwMC45MSw0MTYgMTM4OS4zLDQxNiAxNDUzLjQ4LDQxNiAiIGZpbGw9Im5vbmUiIGlkPSJSZW1vdmUgU3RhZmYgTWVtYmVycy10by1Ob3RpZnkgVGVhY2hlcnMiIHN0eWxlPSJzdHJva2U6IzE4MTgxODtzdHJva2Utd2lkdGg6MS4wO3N0cm9rZS1kYXNoYXJyYXk6Ny4wLDcuMDsiLz48cG9seWdvbiBmaWxsPSIjMTgxODE4IiBwb2ludHM9IjE0NTkuNDgsNDE2LDE0NTAuNDgsNDEyLDE0NTQuNDgsNDE2LDE0NTAuNDgsNDIwLDE0NTkuNDgsNDE2IiBzdHlsZT0ic3Ryb2tlOiMxODE4MTg7c3Ryb2tlLXdpZHRoOjEuMDsiLz48dGV4dCBmaWxsPSIjMDAwMDAwIiBmb250LWZhbWlseT0ic2Fucy1zZXJpZiIgZm9udC1zaXplPSIxMyIgbGVuZ3RoQWRqdXN0PSJzcGFjaW5nIiB0ZXh0TGVuZ3RoPSI2MSIgeD0iMTMxNS41IiB5PSI0MTQuMjg5MSI+JiMxNzE7aW5jbHVkZSYjMTg3OzwvdGV4dD48L2c+PCEtLWxpbmsgQ3JlYXRlIFRpbWUgVGFibGVzIHRvIE5vdGlmeSBUZWFjaGVycy0tPjxnIGlkPSJsaW5rX0NyZWF0ZSBUaW1lIFRhYmxlc19Ob3RpZnkgVGVhY2hlcnMiPjxwYXRoIGQ9Ik0xMTk4LjA0LDU0OC44IEMxMjM3LjM4LDUzOC4zNyAxMjg0LDUyNiAxMjg0LDUyNiBDMTI4NCw1MjYgMTQyNC40MTkxLDQ2My40NzEzIDE0OTEuOTQ5MSw0MzMuMzkxMyAiIGZpbGw9Im5vbmUiIGlkPSJDcmVhdGUgVGltZSBUYWJsZXMtdG8tTm90aWZ5IFRlYWNoZXJzIiBzdHlsZT0ic3Ryb2tlOiMxODE4MTg7c3Ryb2tlLXdpZHRoOjEuMDtzdHJva2UtZGFzaGFycmF5OjcuMCw3LjA7Ii8+PHBvbHlnb24gZmlsbD0iIzE4MTgxOCIgcG9pbnRzPSIxNDk3LjQzLDQzMC45NSwxNDg3LjU4MTEsNDMwLjk1ODEsMTQ5Mi44NjI2LDQzMi45ODQ1LDE0OTAuODM2Myw0MzguMjY1OSwxNDk3LjQzLDQzMC45NSIgc3R5bGU9InN0cm9rZTojMTgxODE4O3N0cm9rZS13aWR0aDoxLjA7Ii8+PHRleHQgZmlsbD0iIzAwMDAwMCIgZm9udC1mYW1pbHk9InNhbnMtc2VyaWYiIGZvbnQtc2l6ZT0iMTMiIGxlbmd0aEFkanVzdD0ic3BhY2luZyIgdGV4dExlbmd0aD0iNjEiIHg9IjEzMTUuNSIgeT0iNDg2LjI4OTEiPiYjMTcxO2luY2x1ZGUmIzE4Nzs8L3RleHQ+PC9nPjwhLS1saW5rIFVwZGF0ZSBUaW1lIFRhYmxlcyB0byBOb3RpZnkgVGVhY2hlcnMtLT48ZyBpZD0ibGlua19VcGRhdGUgVGltZSBUYWJsZXNfTm90aWZ5IFRlYWNoZXJzIj48cGF0aCBkPSJNMTIwNy40Niw0NzcuOTUgQzEyODEuNzksNDYzLjcxIDEzOTguMzY3LDQ0MS4zOTgzIDE0NjkuMzk3LDQyNy43OTgzICIgZmlsbD0ibm9uZSIgaWQ9IlVwZGF0ZSBUaW1lIFRhYmxlcy10by1Ob3RpZnkgVGVhY2hlcnMiIHN0eWxlPSJzdHJva2U6IzE4MTgxODtzdHJva2Utd2lkdGg6MS4wO3N0cm9rZS1kYXNoYXJyYXk6Ny4wLDcuMDsiLz48cG9seWdvbiBmaWxsPSIjMTgxODE4IiBwb2ludHM9IjE0NzUuMjksNDI2LjY3LDE0NjUuNjk4NCw0MjQuNDMzOCwxNDcwLjM3OTIsNDI3LjYxMDMsMTQ2Ny4yMDI4LDQzMi4yOTExLDE0NzUuMjksNDI2LjY3IiBzdHlsZT0ic3Ryb2tlOiMxODE4MTg7c3Ryb2tlLXdpZHRoOjEuMDsiLz48dGV4dCBmaWxsPSIjMDAwMDAwIiBmb250LWZhbWlseT0ic2Fucy1zZXJpZiIgZm9udC1zaXplPSIxMyIgbGVuZ3RoQWRqdXN0PSJzcGFjaW5nIiB0ZXh0TGVuZ3RoPSI2MSIgeD0iMTMxNS41IiB5PSI0NDUuMjg5MSI+JiMxNzE7aW5jbHVkZSYjMTg3OzwvdGV4dD48L2c+PCEtLWxpbmsgRGVsZXRlIFRpbWUgVGFibGVzIHRvIE5vdGlmeSBUZWFjaGVycy0tPjxnIGlkPSJsaW5rX0RlbGV0ZSBUaW1lIFRhYmxlc19Ob3RpZnkgVGVhY2hlcnMiPjxwYXRoIGQ9Ik0xMTk4LjA0LDYyMS44IEMxMjM3LjM4LDYxMS4zNyAxMjg0LDU5OSAxMjg0LDU5OSBDMTI4NCw1OTkgMTM3OCw1MzYgMTM3OCw1MzYgQzEzNzgsNTM2IDE0NjMuNDE4OCw0NjkuMDAyOCAxNTA1LjMyODgsNDM2LjEzMjggIiBmaWxsPSJub25lIiBpZD0iRGVsZXRlIFRpbWUgVGFibGVzLXRvLU5vdGlmeSBUZWFjaGVycyIgc3R5bGU9InN0cm9rZTojMTgxODE4O3N0cm9rZS13aWR0aDoxLjA7c3Ryb2tlLWRhc2hhcnJheTo3LjAsNy4wOyIvPjxwb2x5Z29uIGZpbGw9IiMxODE4MTgiIHBvaW50cz0iMTUxMC4wNSw0MzIuNDMsMTUwMC40OTk3LDQzNC44MzY4LDE1MDYuMTE1Nyw0MzUuNTE1NywxNTA1LjQzNjgsNDQxLjEzMTYsMTUxMC4wNSw0MzIuNDMiIHN0eWxlPSJzdHJva2U6IzE4MTgxODtzdHJva2Utd2lkdGg6MS4wOyIvPjx0ZXh0IGZpbGw9IiMwMDAwMDAiIGZvbnQtZmFtaWx5PSJzYW5zLXNlcmlmIiBmb250LXNpemU9IjEzIiBsZW5ndGhBZGp1c3Q9InNwYWNpbmciIHRleHRMZW5ndGg9IjYxIiB4PSIxMzE1LjUiIHk9IjUzNC4yODkxIj4mIzE3MTtpbmNsdWRlJiMxODc7PC90ZXh0PjwvZz48IS0tbGluayBQIHRvIEJyb2FkY2FzdCBBbm5vdW5jZW1lbnRzLS0+PGcgaWQ9ImxpbmtfUF9Ccm9hZGNhc3QgQW5ub3VuY2VtZW50cyI+PHBhdGggZD0iTTQyNy4xOCw3MDUgQzQ3OC43LDcwNSA1ODQuNjcsNzA1IDY2My4yNiw3MDUgIiBmaWxsPSJub25lIiBpZD0iUC1Ccm9hZGNhc3QgQW5ub3VuY2VtZW50cyIgc3R5bGU9InN0cm9rZTojMTgxODE4O3N0cm9rZS13aWR0aDoxLjA7Ii8+PC9nPjwhLS1saW5rIEJyb2FkY2FzdCBBbm5vdW5jZW1lbnRzIHRvIFNlbGVjdCBVc2Vycy0tPjxnIGlkPSJsaW5rX0Jyb2FkY2FzdCBBbm5vdW5jZW1lbnRzX1NlbGVjdCBVc2VycyI+PHBhdGggZD0iTTg1OC41MSw3MDUgQzkyNy43NSw3MDUgMTAxMy4wOCw3MDUgMTA3My4yNCw3MDUgIiBmaWxsPSJub25lIiBpZD0iQnJvYWRjYXN0IEFubm91bmNlbWVudHMtdG8tU2VsZWN0IFVzZXJzIiBzdHlsZT0ic3Ryb2tlOiMxODE4MTg7c3Ryb2tlLXdpZHRoOjEuMDtzdHJva2UtZGFzaGFycmF5OjcuMCw3LjA7Ii8+PHBvbHlnb24gZmlsbD0iIzE4MTgxOCIgcG9pbnRzPSIxMDc5LjI0LDcwNSwxMDcwLjI0LDcwMSwxMDc0LjI0LDcwNSwxMDcwLjI0LDcwOSwxMDc5LjI0LDcwNSIgc3R5bGU9InN0cm9rZTojMTgxODE4O3N0cm9rZS13aWR0aDoxLjA7Ii8+PHRleHQgZmlsbD0iIzAwMDAwMCIgZm9udC1mYW1pbHk9InNhbnMtc2VyaWYiIGZvbnQtc2l6ZT0iMTMiIGxlbmd0aEFkanVzdD0ic3BhY2luZyIgdGV4dExlbmd0aD0iNjEiIHg9IjkxMC41IiB5PSI3MDMuMjg5MSI+JiMxNzE7aW5jbHVkZSYjMTg3OzwvdGV4dD48L2c+PCEtLXJldmVyc2UgbGluayBTZWxlY3QgVXNlcnMgdG8gTm90aWZ5IFVzZXJzLS0+PGcgaWQ9ImxpbmtfU2VsZWN0IFVzZXJzX05vdGlmeSBVc2VycyI+PHBhdGggZD0iTTEyMTIuNTk0OSw3MDcuODE4MSBDMTI4NC42MTQ5LDcxMC43OTgxIDEzOTYuNjUsNzE1LjQ0IDE0NjguNzQsNzE4LjQyICIgZmlsbD0ibm9uZSIgaWQ9IlNlbGVjdCBVc2Vycy1iYWNrdG8tTm90aWZ5IFVzZXJzIiBzdHlsZT0ic3Ryb2tlOiMxODE4MTg7c3Ryb2tlLXdpZHRoOjEuMDtzdHJva2UtZGFzaGFycmF5OjcuMCw3LjA7Ii8+PHBvbHlnb24gZmlsbD0iIzE4MTgxOCIgcG9pbnRzPSIxMjA2LjYsNzA3LjU3LDEyMTUuNDI2OSw3MTEuOTM4NywxMjExLjU5NTcsNzA3Ljc3NjcsMTIxNS43NTc3LDcwMy45NDU1LDEyMDYuNiw3MDcuNTciIHN0eWxlPSJzdHJva2U6IzE4MTgxODtzdHJva2Utd2lkdGg6MS4wOyIvPjx0ZXh0IGZpbGw9IiMwMDAwMDAiIGZvbnQtZmFtaWx5PSJzYW5zLXNlcmlmIiBmb250LXNpemU9IjEzIiBsZW5ndGhBZGp1c3Q9InNwYWNpbmciIHRleHRMZW5ndGg9IjYyIiB4PSIxMzE1IiB5PSI3MTEuMjg5MSI+JiMxNzE7ZXh0ZW5kcyYjMTg3OzwvdGV4dD48L2c+PCEtLXJldmVyc2UgbGluayBTZWxlY3QgVXNlcnMgdG8gTm90aWZ5IFNlY3Rpb25hbCBIZWFkcy0tPjxnIGlkPSJsaW5rX1NlbGVjdCBVc2Vyc19Ob3RpZnkgU2VjdGlvbmFsIEhlYWRzIj48cGF0aCBkPSJNMTIwMi4xMzcsNjk1LjMwNTMgQzEyNjguOTk3LDY4NC4wNjUzIDEzNzkuOTUsNjY1LjQgMTQ1Ni40LDY1Mi41NSAiIGZpbGw9Im5vbmUiIGlkPSJTZWxlY3QgVXNlcnMtYmFja3RvLU5vdGlmeSBTZWN0aW9uYWwgSGVhZHMiIHN0eWxlPSJzdHJva2U6IzE4MTgxODtzdHJva2Utd2lkdGg6MS4wO3N0cm9rZS1kYXNoYXJyYXk6Ny4wLDcuMDsiLz48cG9seWdvbiBmaWxsPSIjMTgxODE4IiBwb2ludHM9IjExOTYuMjIsNjk2LjMsMTIwNS43NTg2LDY5OC43NTI2LDEyMDEuMTUwOCw2OTUuNDcxMSwxMjA0LjQzMjMsNjkwLjg2MzMsMTE5Ni4yMiw2OTYuMyIgc3R5bGU9InN0cm9rZTojMTgxODE4O3N0cm9rZS13aWR0aDoxLjA7Ii8+PHRleHQgZmlsbD0iIzAwMDAwMCIgZm9udC1mYW1pbHk9InNhbnMtc2VyaWYiIGZvbnQtc2l6ZT0iMTMiIGxlbmd0aEFkanVzdD0ic3BhY2luZyIgdGV4dExlbmd0aD0iNjIiIHg9IjEzMTUiIHk9IjY2NS4yODkxIj4mIzE3MTtleHRlbmRzJiMxODc7PC90ZXh0PjwvZz48IS0tbGluayBOb3RpZnkgUHJpbmNpcGFscyB0byBQUi0tPjxnIGlkPSJsaW5rX05vdGlmeSBQcmluY2lwYWxzX1BSIj48cGF0aCBkPSJNMTYxMC41OSwxMTU0IEMxNjUzLjU2LDExNTQgMTcwNC41NywxMTU0IDE3MzYuMzYsMTE1NCAiIGZpbGw9Im5vbmUiIGlkPSJOb3RpZnkgUHJpbmNpcGFscy1QUiIgc3R5bGU9InN0cm9rZTojMTgxODE4O3N0cm9rZS13aWR0aDoxLjA7Ii8+PC9nPjwhLS1saW5rIEEgdG8gVmlldyBVc2VyIEluZm9ybWF0aW9ucy0tPjxnIGlkPSJsaW5rX0FfVmlldyBVc2VyIEluZm9ybWF0aW9ucyI+PHBhdGggZD0iTTU4MC4yNiw4MzMgQzYwNC43Nyw4MzMgNjM2LjAxLDgzMyA2NjUuNTQsODMzICIgZmlsbD0ibm9uZSIgaWQ9IkEtVmlldyBVc2VyIEluZm9ybWF0aW9ucyIgc3R5bGU9InN0cm9rZTojMTgxODE4O3N0cm9rZS13aWR0aDoxLjA7Ii8+PC9nPjwhLS1yZXZlcnNlIGxpbmsgVmlldyBVc2VyIEluZm9ybWF0aW9ucyB0byBBZGQgVXNlci0tPjxnIGlkPSJsaW5rX1ZpZXcgVXNlciBJbmZvcm1hdGlvbnNfQWRkIFVzZXIiPjxwYXRoIGQ9Ik04NjIuMDYsODMzIEM5MzYuNzcsODMzIDEwMzIuMzUsODMzIDEwOTIuMzEsODMzICIgZmlsbD0ibm9uZSIgaWQ9IlZpZXcgVXNlciBJbmZvcm1hdGlvbnMtYmFja3RvLUFkZCBVc2VyIiBzdHlsZT0ic3Ryb2tlOiMxODE4MTg7c3Ryb2tlLXdpZHRoOjEuMDtzdHJva2UtZGFzaGFycmF5OjcuMCw3LjA7Ii8+PHBvbHlnb24gZmlsbD0iIzE4MTgxOCIgcG9pbnRzPSI4NTYuMDYsODMzLDg2NS4wNiw4MzcsODYxLjA2LDgzMyw4NjUuMDYsODI5LDg1Ni4wNiw4MzMiIHN0eWxlPSJzdHJva2U6IzE4MTgxODtzdHJva2Utd2lkdGg6MS4wOyIvPjx0ZXh0IGZpbGw9IiMwMDAwMDAiIGZvbnQtZmFtaWx5PSJzYW5zLXNlcmlmIiBmb250LXNpemU9IjEzIiBsZW5ndGhBZGp1c3Q9InNwYWNpbmciIHRleHRMZW5ndGg9IjYyIiB4PSI5MTAiIHk9IjgzMS4yODkxIj4mIzE3MTtleHRlbmRzJiMxODc7PC90ZXh0PjwvZz48IS0tcmV2ZXJzZSBsaW5rIFZpZXcgVXNlciBJbmZvcm1hdGlvbnMgdG8gVXBkYXRlIFVzZXItLT48ZyBpZD0ibGlua19WaWV3IFVzZXIgSW5mb3JtYXRpb25zX1VwZGF0ZSBVc2VyIj48cGF0aCBkPSJNODQ0LjAwOTQsODE5LjQxOTggQzkxOS43OTk0LDgwNi44Njk4IDEwMjguMDUsNzg4Ljk1IDEwOTIuODgsNzc4LjIyICIgZmlsbD0ibm9uZSIgaWQ9IlZpZXcgVXNlciBJbmZvcm1hdGlvbnMtYmFja3RvLVVwZGF0ZSBVc2VyIiBzdHlsZT0ic3Ryb2tlOiMxODE4MTg7c3Ryb2tlLXdpZHRoOjEuMDtzdHJva2UtZGFzaGFycmF5OjcuMCw3LjA7Ii8+PHBvbHlnb24gZmlsbD0iIzE4MTgxOCIgcG9pbnRzPSI4MzguMDksODIwLjQsODQ3LjYyMjYsODIyLjg3Niw4NDMuMDIyOCw4MTkuNTgzMiw4NDYuMzE1Niw4MTQuOTgzNSw4MzguMDksODIwLjQiIHN0eWxlPSJzdHJva2U6IzE4MTgxODtzdHJva2Utd2lkdGg6MS4wOyIvPjx0ZXh0IGZpbGw9IiMwMDAwMDAiIGZvbnQtZmFtaWx5PSJzYW5zLXNlcmlmIiBmb250LXNpemU9IjEzIiBsZW5ndGhBZGp1c3Q9InNwYWNpbmciIHRleHRMZW5ndGg9IjYyIiB4PSI5MTAiIHk9Ijc5OC4yODkxIj4mIzE3MTtleHRlbmRzJiMxODc7PC90ZXh0PjwvZz48IS0tcmV2ZXJzZSBsaW5rIFZpZXcgVXNlciBJbmZvcm1hdGlvbnMgdG8gRGVsZXRlIFVzZXItLT48ZyBpZD0ibGlua19WaWV3IFVzZXIgSW5mb3JtYXRpb25zX0RlbGV0ZSBVc2VyIj48cGF0aCBkPSJNODQ0LjAwOTQsODQ2LjU4MDIgQzkxOS43OTk0LDg1OS4xMzAyIDEwMjguMDUsODc3LjA1IDEwOTIuODgsODg3Ljc4ICIgZmlsbD0ibm9uZSIgaWQ9IlZpZXcgVXNlciBJbmZvcm1hdGlvbnMtYmFja3RvLURlbGV0ZSBVc2VyIiBzdHlsZT0ic3Ryb2tlOiMxODE4MTg7c3Ryb2tlLXdpZHRoOjEuMDtzdHJva2UtZGFzaGFycmF5OjcuMCw3LjA7Ii8+PHBvbHlnb24gZmlsbD0iIzE4MTgxOCIgcG9pbnRzPSI4MzguMDksODQ1LjYsODQ2LjMxNTYsODUxLjAxNjUsODQzLjAyMjgsODQ2LjQxNjgsODQ3LjYyMjYsODQzLjEyNCw4MzguMDksODQ1LjYiIHN0eWxlPSJzdHJva2U6IzE4MTgxODtzdHJva2Utd2lkdGg6MS4wOyIvPjx0ZXh0IGZpbGw9IiMwMDAwMDAiIGZvbnQtZmFtaWx5PSJzYW5zLXNlcmlmIiBmb250LXNpemU9IjEzIiBsZW5ndGhBZGp1c3Q9InNwYWNpbmciIHRleHRMZW5ndGg9IjYyIiB4PSI5MTAiIHk9Ijg1Ny4yODkxIj4mIzE3MTtleHRlbmRzJiMxODc7PC90ZXh0PjwvZz48IS0tbGluayBBZGQgVXNlciB0byBVcGRhdGUgVXNlciBMb2dzLS0+PGcgaWQ9ImxpbmtfQWRkIFVzZXJfVXBkYXRlIFVzZXIgTG9ncyI+PHBhdGggZD0iTTExOTQuNjMsODMzIEMxMjYxLjIyLDgzMyAxMzczLjM4LDgzMyAxNDUwLjQ0LDgzMyAiIGZpbGw9Im5vbmUiIGlkPSJBZGQgVXNlci10by1VcGRhdGUgVXNlciBMb2dzIiBzdHlsZT0ic3Ryb2tlOiMxODE4MTg7c3Ryb2tlLXdpZHRoOjEuMDtzdHJva2UtZGFzaGFycmF5OjcuMCw3LjA7Ii8+PHBvbHlnb24gZmlsbD0iIzE4MTgxOCIgcG9pbnRzPSIxNDU2LjQ0LDgzMywxNDQ3LjQ0LDgyOSwxNDUxLjQ0LDgzMywxNDQ3LjQ0LDgzNywxNDU2LjQ0LDgzMyIgc3R5bGU9InN0cm9rZTojMTgxODE4O3N0cm9rZS13aWR0aDoxLjA7Ii8+PHRleHQgZmlsbD0iIzAwMDAwMCIgZm9udC1mYW1pbHk9InNhbnMtc2VyaWYiIGZvbnQtc2l6ZT0iMTMiIGxlbmd0aEFkanVzdD0ic3BhY2luZyIgdGV4dExlbmd0aD0iNjEiIHg9IjEzMTUuNSIgeT0iODMxLjI4OTEiPiYjMTcxO2luY2x1ZGUmIzE4Nzs8L3RleHQ+PC9nPjwhLS1saW5rIFVwZGF0ZSBVc2VyIHRvIFVwZGF0ZSBVc2VyIExvZ3MtLT48ZyBpZD0ibGlua19VcGRhdGUgVXNlcl9VcGRhdGUgVXNlciBMb2dzIj48cGF0aCBkPSJNMTE5NC4yNCw3NzguMTEgQzEyNjQuNjgsNzg5LjU5IDEzODcuNDc4MSw4MDkuNjA0OSAxNDYzLjc0ODEsODIyLjAzNDkgIiBmaWxsPSJub25lIiBpZD0iVXBkYXRlIFVzZXItdG8tVXBkYXRlIFVzZXIgTG9ncyIgc3R5bGU9InN0cm9rZTojMTgxODE4O3N0cm9rZS13aWR0aDoxLjA7c3Ryb2tlLWRhc2hhcnJheTo3LjAsNy4wOyIvPjxwb2x5Z29uIGZpbGw9IiMxODE4MTgiIHBvaW50cz0iMTQ2OS42Nyw4MjMsMTQ2MS40MzA2LDgxNy42MDQ0LDE0NjQuNzM1MSw4MjIuMTk1NywxNDYwLjE0MzgsODI1LjUwMDMsMTQ2OS42Nyw4MjMiIHN0eWxlPSJzdHJva2U6IzE4MTgxODtzdHJva2Utd2lkdGg6MS4wOyIvPjx0ZXh0IGZpbGw9IiMwMDAwMDAiIGZvbnQtZmFtaWx5PSJzYW5zLXNlcmlmIiBmb250LXNpemU9IjEzIiBsZW5ndGhBZGp1c3Q9InNwYWNpbmciIHRleHRMZW5ndGg9IjYxIiB4PSIxMzE1LjUiIHk9Ijc5Ni4yODkxIj4mIzE3MTtpbmNsdWRlJiMxODc7PC90ZXh0PjwvZz48IS0tbGluayBEZWxldGUgVXNlciB0byBVcGRhdGUgVXNlciBMb2dzLS0+PGcgaWQ9ImxpbmtfRGVsZXRlIFVzZXJfVXBkYXRlIFVzZXIgTG9ncyI+PHBhdGggZD0iTTExOTQuMjQsODg3Ljg5IEMxMjY0LjY4LDg3Ni40MSAxMzg3LjQ3ODEsODU2LjM5NTEgMTQ2My43NDgxLDg0My45NjUxICIgZmlsbD0ibm9uZSIgaWQ9IkRlbGV0ZSBVc2VyLXRvLVVwZGF0ZSBVc2VyIExvZ3MiIHN0eWxlPSJzdHJva2U6IzE4MTgxODtzdHJva2Utd2lkdGg6MS4wO3N0cm9rZS1kYXNoYXJyYXk6Ny4wLDcuMDsiLz48cG9seWdvbiBmaWxsPSIjMTgxODE4IiBwb2ludHM9IjE0NjkuNjcsODQzLDE0NjAuMTQzOCw4NDAuNDk5NywxNDY0LjczNTEsODQzLjgwNDMsMTQ2MS40MzA2LDg0OC4zOTU2LDE0NjkuNjcsODQzIiBzdHlsZT0ic3Ryb2tlOiMxODE4MTg7c3Ryb2tlLXdpZHRoOjEuMDsiLz48dGV4dCBmaWxsPSIjMDAwMDAwIiBmb250LWZhbWlseT0ic2Fucy1zZXJpZiIgZm9udC1zaXplPSIxMyIgbGVuZ3RoQWRqdXN0PSJzcGFjaW5nIiB0ZXh0TGVuZ3RoPSI2MSIgeD0iMTMxNS41IiB5PSI4NTcuMjg5MSI+JiMxNzE7aW5jbHVkZSYjMTg3OzwvdGV4dD48L2c+PCEtLWxpbmsgQSB0byBWaWV3IFN5c3RlbSBNb25pdG9yLS0+PGcgaWQ9ImxpbmtfQV9WaWV3IFN5c3RlbSBNb25pdG9yIj48cGF0aCBkPSJNNTY1LjM0LDg3MC43NiBDNjEzLjkzLDkzMS4yMiA3MDcuNDUsMTA0Ny42IDc0NC40MSwxMDkzLjYgIiBmaWxsPSJub25lIiBpZD0iQS1WaWV3IFN5c3RlbSBNb25pdG9yIiBzdHlsZT0ic3Ryb2tlOiMxODE4MTg7c3Ryb2tlLXdpZHRoOjEuMDsiLz48L2c+PCEtLXJldmVyc2UgbGluayBWaWV3IFN5c3RlbSBNb25pdG9yIHRvIEdlbmVyYXRlIFVzZXIgRW5nYWdlbWVudCBSZXBvcnRzLS0+PGcgaWQ9ImxpbmtfVmlldyBTeXN0ZW0gTW9uaXRvcl9HZW5lcmF0ZSBVc2VyIEVuZ2FnZW1lbnQgUmVwb3J0cyI+PHBhdGggZD0iTTgzNC4wOTE1LDExMjYuMjQyOSBDODczLjExMTUsMTEzMy40MDI5IDkwOSwxMTQwIDkwOSwxMTQwIEM5MDksMTE0MCA5NjMuNzgsMTE0My4yOCAxMDIwLjI4LDExNDYuNjcgIiBmaWxsPSJub25lIiBpZD0iVmlldyBTeXN0ZW0gTW9uaXRvci1iYWNrdG8tR2VuZXJhdGUgVXNlciBFbmdhZ2VtZW50IFJlcG9ydHMiIHN0eWxlPSJzdHJva2U6IzE4MTgxODtzdHJva2Utd2lkdGg6MS4wO3N0cm9rZS1kYXNoYXJyYXk6Ny4wLDcuMDsiLz48cG9seWdvbiBmaWxsPSIjMTgxODE4IiBwb2ludHM9IjgyOC4xOSwxMTI1LjE2LDgzNi4zMjAzLDExMzAuNzE4Nyw4MzMuMTA3OSwxMTI2LjA2MjQsODM3Ljc2NDEsMTEyMi44NSw4MjguMTksMTEyNS4xNiIgc3R5bGU9InN0cm9rZTojMTgxODE4O3N0cm9rZS13aWR0aDoxLjA7Ii8+PHRleHQgZmlsbD0iIzAwMDAwMCIgZm9udC1mYW1pbHk9InNhbnMtc2VyaWYiIGZvbnQtc2l6ZT0iMTMiIGxlbmd0aEFkanVzdD0ic3BhY2luZyIgdGV4dExlbmd0aD0iNjIiIHg9IjkxMCIgeT0iMTEzOC4yODkxIj4mIzE3MTtleHRlbmRzJiMxODc7PC90ZXh0PjwvZz48IS0tcmV2ZXJzZSBsaW5rIFZpZXcgU3lzdGVtIE1vbml0b3IgdG8gR2VuZXJhdGUgUGVyZm9ybWFuY2UgUmVwb3J0cy0tPjxnIGlkPSJsaW5rX1ZpZXcgU3lzdGVtIE1vbml0b3JfR2VuZXJhdGUgUGVyZm9ybWFuY2UgUmVwb3J0cyI+PHBhdGggZD0iTTg0Mi42NzQ4LDExMDMuMDM0NiBDOTAxLjg2NDgsMTA5NS43MjQ2IDk3OS4xMiwxMDg2LjE4IDEwNDMuOCwxMDc4LjE5ICIgZmlsbD0ibm9uZSIgaWQ9IlZpZXcgU3lzdGVtIE1vbml0b3ItYmFja3RvLUdlbmVyYXRlIFBlcmZvcm1hbmNlIFJlcG9ydHMiIHN0eWxlPSJzdHJva2U6IzE4MTgxODtzdHJva2Utd2lkdGg6MS4wO3N0cm9rZS1kYXNoYXJyYXk6Ny4wLDcuMDsiLz48cG9seWdvbiBmaWxsPSIjMTgxODE4IiBwb2ludHM9IjgzNi43MiwxMTAzLjc3LDg0Ni4xNDI0LDExMDYuNjM2Nyw4NDEuNjgyMywxMTAzLjE1NzIsODQ1LjE2MTksMTA5OC42OTcsODM2LjcyLDExMDMuNzciIHN0eWxlPSJzdHJva2U6IzE4MTgxODtzdHJva2Utd2lkdGg6MS4wOyIvPjx0ZXh0IGZpbGw9IiMwMDAwMDAiIGZvbnQtZmFtaWx5PSJzYW5zLXNlcmlmIiBmb250LXNpemU9IjEzIiBsZW5ndGhBZGp1c3Q9InNwYWNpbmciIHRleHRMZW5ndGg9IjYyIiB4PSI5MTAiIHk9IjEwODcuMjg5MSI+JiMxNzE7ZXh0ZW5kcyYjMTg3OzwvdGV4dD48L2c+PCEtLXJldmVyc2UgbGluayBWaWV3IFN5c3RlbSBNb25pdG9yIHRvIEdlbmVyYXRlIFN5c3RlbSBVdGlsaXphdGlvbiBSZXBvcnRzLS0+PGcgaWQ9ImxpbmtfVmlldyBTeXN0ZW0gTW9uaXRvcl9HZW5lcmF0ZSBTeXN0ZW0gVXRpbGl6YXRpb24gUmVwb3J0cyI+PHBhdGggZD0iTTgxMi4xMDA4LDEwOTQuMjkwNyBDODgxLjc0MDgsMTA2OC4yODA3IDEwMDMsMTAyMyAxMDAzLDEwMjMgQzEwMDMsMTAyMyAxMDM0LjY4LDEwMTIuMzMgMTA2Ny44NSwxMDAxLjE1ICIgZmlsbD0ibm9uZSIgaWQ9IlZpZXcgU3lzdGVtIE1vbml0b3ItYmFja3RvLUdlbmVyYXRlIFN5c3RlbSBVdGlsaXphdGlvbiBSZXBvcnRzIiBzdHlsZT0ic3Ryb2tlOiMxODE4MTg7c3Ryb2tlLXdpZHRoOjEuMDtzdHJva2UtZGFzaGFycmF5OjcuMCw3LjA7Ii8+PHBvbHlnb24gZmlsbD0iIzE4MTgxOCIgcG9pbnRzPSI4MDYuNDgsMTA5Ni4zOSw4MTYuMzEwNywxMDk2Ljk4ODIsODExLjE2NCwxMDk0LjY0MDYsODEzLjUxMTYsMTA4OS40OTM5LDgwNi40OCwxMDk2LjM5IiBzdHlsZT0ic3Ryb2tlOiMxODE4MTg7c3Ryb2tlLXdpZHRoOjEuMDsiLz48dGV4dCBmaWxsPSIjMDAwMDAwIiBmb250LWZhbWlseT0ic2Fucy1zZXJpZiIgZm9udC1zaXplPSIxMyIgbGVuZ3RoQWRqdXN0PSJzcGFjaW5nIiB0ZXh0TGVuZ3RoPSI2MiIgeD0iOTEwIiB5PSIxMDM1LjI4OTEiPiYjMTcxO2V4dGVuZHMmIzE4Nzs8L3RleHQ+PC9nPjwhLS1yZXZlcnNlIGxpbmsgVmlldyBTeXN0ZW0gTW9uaXRvciB0byBHZW5lcmF0ZSBDb250ZW50IFBvcHVsYXJpdHkgUmVwb3J0cy0tPjxnIGlkPSJsaW5rX1ZpZXcgU3lzdGVtIE1vbml0b3JfR2VuZXJhdGUgQ29udGVudCBQb3B1bGFyaXR5IFJlcG9ydHMiPjxwYXRoIGQ9Ik03OTEuNjc3OSwxMTM1LjI5MjcgQzg1My4yNTc5LDExODEuNTMyNyAxMDAzLDEyOTQgMTAwMywxMjk0IEMxMDAzLDEyOTQgMTAzNS40NywxMzA1LjE3IDEwNjkuMDcsMTMxNi43MyAiIGZpbGw9Im5vbmUiIGlkPSJWaWV3IFN5c3RlbSBNb25pdG9yLWJhY2t0by1HZW5lcmF0ZSBDb250ZW50IFBvcHVsYXJpdHkgUmVwb3J0cyIgc3R5bGU9InN0cm9rZTojMTgxODE4O3N0cm9rZS13aWR0aDoxLjA7c3Ryb2tlLWRhc2hhcnJheTo3LjAsNy4wOyIvPjxwb2x5Z29uIGZpbGw9IiMxODE4MTgiIHBvaW50cz0iNzg2Ljg4LDExMzEuNjksNzkxLjY3NTEsMTE0MC4yOTI3LDc5MC44NzgzLDExMzQuNjkyMyw3OTYuNDc4NywxMTMzLjg5NTUsNzg2Ljg4LDExMzEuNjkiIHN0eWxlPSJzdHJva2U6IzE4MTgxODtzdHJva2Utd2lkdGg6MS4wOyIvPjx0ZXh0IGZpbGw9IiMwMDAwMDAiIGZvbnQtZmFtaWx5PSJzYW5zLXNlcmlmIiBmb250LXNpemU9IjEzIiBsZW5ndGhBZGp1c3Q9InNwYWNpbmciIHRleHRMZW5ndGg9IjYyIiB4PSI5MTAiIHk9IjEyMjQuMjg5MSI+JiMxNzE7ZXh0ZW5kcyYjMTg3OzwvdGV4dD48L2c+PCEtLXJldmVyc2UgbGluayBWaWV3IFN5c3RlbSBNb25pdG9yIHRvIEdlbmVyYXRlIE1vbnRobHkgQXR0ZW5kYW5jZSBSZXBvcnRzLS0+PGcgaWQ9ImxpbmtfVmlldyBTeXN0ZW0gTW9uaXRvcl9HZW5lcmF0ZSBNb250aGx5IEF0dGVuZGFuY2UgUmVwb3J0cyI+PHBhdGggZD0iTTgxMi41MzIsMTEzMS41Njg5IEM4NTUuNzYyLDExNDcuNDQ4OSA5MDksMTE2NyA5MDksMTE2NyBDOTA5LDExNjcgMTAwMC41LDExOTguMzUgMTA2OC45NCwxMjIxLjggIiBmaWxsPSJub25lIiBpZD0iVmlldyBTeXN0ZW0gTW9uaXRvci1iYWNrdG8tR2VuZXJhdGUgTW9udGhseSBBdHRlbmRhbmNlIFJlcG9ydHMiIHN0eWxlPSJzdHJva2U6IzE4MTgxODtzdHJva2Utd2lkdGg6MS4wO3N0cm9rZS1kYXNoYXJyYXk6Ny4wLDcuMDsiLz48cG9seWdvbiBmaWxsPSIjMTgxODE4IiBwb2ludHM9IjgwNi45LDExMjkuNSw4MTMuOTY4OCwxMTM2LjM1OCw4MTEuNTkzNCwxMTMxLjIyNCw4MTYuNzI3MywxMTI4Ljg0ODYsODA2LjksMTEyOS41IiBzdHlsZT0ic3Ryb2tlOiMxODE4MTg7c3Ryb2tlLXdpZHRoOjEuMDsiLz48dGV4dCBmaWxsPSIjMDAwMDAwIiBmb250LWZhbWlseT0ic2Fucy1zZXJpZiIgZm9udC1zaXplPSIxMyIgbGVuZ3RoQWRqdXN0PSJzcGFjaW5nIiB0ZXh0TGVuZ3RoPSI2MiIgeD0iOTEwIiB5PSIxMTY1LjI4OTEiPiYjMTcxO2V4dGVuZHMmIzE4Nzs8L3RleHQ+PC9nPjwhLS1saW5rIEdlbmVyYXRlIFVzZXIgRW5nYWdlbWVudCBSZXBvcnRzIHRvIE5vdGlmeSBQcmluY2lwYWxzLS0+PGcgaWQ9ImxpbmtfR2VuZXJhdGUgVXNlciBFbmdhZ2VtZW50IFJlcG9ydHNfTm90aWZ5IFByaW5jaXBhbHMiPjxwYXRoIGQ9Ik0xMjcxLjA1LDExNTQgQzEzMzEuMTYsMTE1NCAxMzk1LjA3LDExNTQgMTQ0Ny4yNCwxMTU0ICIgZmlsbD0ibm9uZSIgaWQ9IkdlbmVyYXRlIFVzZXIgRW5nYWdlbWVudCBSZXBvcnRzLXRvLU5vdGlmeSBQcmluY2lwYWxzIiBzdHlsZT0ic3Ryb2tlOiMxODE4MTg7c3Ryb2tlLXdpZHRoOjEuMDtzdHJva2UtZGFzaGFycmF5OjcuMCw3LjA7Ii8+PHBvbHlnb24gZmlsbD0iIzE4MTgxOCIgcG9pbnRzPSIxNDUzLjI0LDExNTQsMTQ0NC4yNCwxMTUwLDE0NDguMjQsMTE1NCwxNDQ0LjI0LDExNTgsMTQ1My4yNCwxMTU0IiBzdHlsZT0ic3Ryb2tlOiMxODE4MTg7c3Ryb2tlLXdpZHRoOjEuMDsiLz48dGV4dCBmaWxsPSIjMDAwMDAwIiBmb250LWZhbWlseT0ic2Fucy1zZXJpZiIgZm9udC1zaXplPSIxMyIgbGVuZ3RoQWRqdXN0PSJzcGFjaW5nIiB0ZXh0TGVuZ3RoPSI2MSIgeD0iMTMxNS41IiB5PSIxMTUyLjI4OTEiPiYjMTcxO2luY2x1ZGUmIzE4Nzs8L3RleHQ+PC9nPjwhLS1saW5rIEdlbmVyYXRlIFBlcmZvcm1hbmNlIFJlcG9ydHMgdG8gTm90aWZ5IFByaW5jaXBhbHMtLT48ZyBpZD0ibGlua19HZW5lcmF0ZSBQZXJmb3JtYW5jZSBSZXBvcnRzX05vdGlmeSBQcmluY2lwYWxzIj48cGF0aCBkPSJNMTIyMy4xOCwxMDgzLjkxIEMxMjk4LjIyLDExMDEgMTQwMy40ODk3LDExMjQuOTY4IDE0NjkuNjc5NywxMTQwLjAzOCAiIGZpbGw9Im5vbmUiIGlkPSJHZW5lcmF0ZSBQZXJmb3JtYW5jZSBSZXBvcnRzLXRvLU5vdGlmeSBQcmluY2lwYWxzIiBzdHlsZT0ic3Ryb2tlOiMxODE4MTg7c3Ryb2tlLXdpZHRoOjEuMDtzdHJva2UtZGFzaGFycmF5OjcuMCw3LjA7Ii8+PHBvbHlnb24gZmlsbD0iIzE4MTgxOCIgcG9pbnRzPSIxNDc1LjUzLDExNDEuMzcsMTQ2Ny42NDI2LDExMzUuNDcxOCwxNDcwLjY1NDgsMTE0MC4yNiwxNDY1Ljg2NjYsMTE0My4yNzIyLDE0NzUuNTMsMTE0MS4zNyIgc3R5bGU9InN0cm9rZTojMTgxODE4O3N0cm9rZS13aWR0aDoxLjA7Ii8+PHRleHQgZmlsbD0iIzAwMDAwMCIgZm9udC1mYW1pbHk9InNhbnMtc2VyaWYiIGZvbnQtc2l6ZT0iMTMiIGxlbmd0aEFkanVzdD0ic3BhY2luZyIgdGV4dExlbmd0aD0iNjEiIHg9IjEzMTUuNSIgeT0iMTEwMy4yODkxIj4mIzE3MTtpbmNsdWRlJiMxODc7PC90ZXh0PjwvZz48IS0tbGluayBHZW5lcmF0ZSBTeXN0ZW0gVXRpbGl6YXRpb24gUmVwb3J0cyB0byBOb3RpZnkgUHJpbmNpcGFscy0tPjxnIGlkPSJsaW5rX0dlbmVyYXRlIFN5c3RlbSBVdGlsaXphdGlvbiBSZXBvcnRzX05vdGlmeSBQcmluY2lwYWxzIj48cGF0aCBkPSJNMTIxOS4xNSwxMDAxLjE1IEMxMjUyLjMyLDEwMTIuMzMgMTI4NCwxMDIzIDEyODQsMTAyMyBDMTI4NCwxMDIzIDE0MjcuOTQ5MywxMDk5LjM0ODkgMTQ5NC40MTkzLDExMzQuNTk4OSAiIGZpbGw9Im5vbmUiIGlkPSJHZW5lcmF0ZSBTeXN0ZW0gVXRpbGl6YXRpb24gUmVwb3J0cy10by1Ob3RpZnkgUHJpbmNpcGFscyIgc3R5bGU9InN0cm9rZTojMTgxODE4O3N0cm9rZS13aWR0aDoxLjA7c3Ryb2tlLWRhc2hhcnJheTo3LjAsNy4wOyIvPjxwb2x5Z29uIGZpbGw9IiMxODE4MTgiIHBvaW50cz0iMTQ5OS43MiwxMTM3LjQxLDE0OTMuNjQyOSwxMTI5LjY1OTYsMTQ5NS4zMDI3LDExMzUuMDY3NCwxNDg5Ljg5NDgsMTEzNi43MjcyLDE0OTkuNzIsMTEzNy40MSIgc3R5bGU9InN0cm9rZTojMTgxODE4O3N0cm9rZS13aWR0aDoxLjA7Ii8+PHRleHQgZmlsbD0iIzAwMDAwMCIgZm9udC1mYW1pbHk9InNhbnMtc2VyaWYiIGZvbnQtc2l6ZT0iMTMiIGxlbmd0aEFkanVzdD0ic3BhY2luZyIgdGV4dExlbmd0aD0iNjEiIHg9IjEzMTUuNSIgeT0iMTAzOC4yODkxIj4mIzE3MTtpbmNsdWRlJiMxODc7PC90ZXh0PjwvZz48IS0tbGluayBHZW5lcmF0ZSBDb250ZW50IFBvcHVsYXJpdHkgUmVwb3J0cyB0byBOb3RpZnkgUHJpbmNpcGFscy0tPjxnIGlkPSJsaW5rX0dlbmVyYXRlIENvbnRlbnQgUG9wdWxhcml0eSBSZXBvcnRzX05vdGlmeSBQcmluY2lwYWxzIj48cGF0aCBkPSJNMTIxNy45MywxMzE2LjczIEMxMjUxLjUzLDEzMDUuMTcgMTI4NCwxMjk0IDEyODQsMTI5NCBDMTI4NCwxMjk0IDE0MzEuMDUsMTIxMC42NDgzIDE0OTYuNDgsMTE3My41NjgzICIgZmlsbD0ibm9uZSIgaWQ9IkdlbmVyYXRlIENvbnRlbnQgUG9wdWxhcml0eSBSZXBvcnRzLXRvLU5vdGlmeSBQcmluY2lwYWxzIiBzdHlsZT0ic3Ryb2tlOiMxODE4MTg7c3Ryb2tlLXdpZHRoOjEuMDtzdHJva2UtZGFzaGFycmF5OjcuMCw3LjA7Ii8+PHBvbHlnb24gZmlsbD0iIzE4MTgxOCIgcG9pbnRzPSIxNTAxLjcsMTE3MC42MSwxNDkxLjg5NzgsMTE3MS41Njc0LDE0OTcuMzUsMTE3My4wNzUyLDE0OTUuODQyMSwxMTc4LjUyNzQsMTUwMS43LDExNzAuNjEiIHN0eWxlPSJzdHJva2U6IzE4MTgxODtzdHJva2Utd2lkdGg6MS4wOyIvPjx0ZXh0IGZpbGw9IiMwMDAwMDAiIGZvbnQtZmFtaWx5PSJzYW5zLXNlcmlmIiBmb250LXNpemU9IjEzIiBsZW5ndGhBZGp1c3Q9InNwYWNpbmciIHRleHRMZW5ndGg9IjYxIiB4PSIxMzE1LjUiIHk9IjEyNDMuMjg5MSI+JiMxNzE7aW5jbHVkZSYjMTg3OzwvdGV4dD48L2c+PCEtLWxpbmsgR2VuZXJhdGUgTW9udGhseSBBdHRlbmRhbmNlIFJlcG9ydHMgdG8gTm90aWZ5IFByaW5jaXBhbHMtLT48ZyBpZD0ibGlua19HZW5lcmF0ZSBNb250aGx5IEF0dGVuZGFuY2UgUmVwb3J0c19Ob3RpZnkgUHJpbmNpcGFscyI+PHBhdGggZD0iTTEyMzYuNTksMTIyNC44NCBDMTMxMS42MSwxMjA2Ljc5IDE0MDkuMTI2NSwxMTgzLjMyMzUgMTQ3MS4zMDY1LDExNjguMzYzNSAiIGZpbGw9Im5vbmUiIGlkPSJHZW5lcmF0ZSBNb250aGx5IEF0dGVuZGFuY2UgUmVwb3J0cy10by1Ob3RpZnkgUHJpbmNpcGFscyIgc3R5bGU9InN0cm9rZTojMTgxODE4O3N0cm9rZS13aWR0aDoxLjA7c3Ryb2tlLWRhc2hhcnJheTo3LjAsNy4wOyIvPjxwb2x5Z29uIGZpbGw9IiMxODE4MTgiIHBvaW50cz0iMTQ3Ny4xNCwxMTY2Ljk2LDE0NjcuNDU0LDExNjUuMTc2MiwxNDcyLjI3ODcsMTE2OC4xMjk2LDE0NjkuMzI1NCwxMTcyLjk1NDMsMTQ3Ny4xNCwxMTY2Ljk2IiBzdHlsZT0ic3Ryb2tlOiMxODE4MTg7c3Ryb2tlLXdpZHRoOjEuMDsiLz48dGV4dCBmaWxsPSIjMDAwMDAwIiBmb250LWZhbWlseT0ic2Fucy1zZXJpZiIgZm9udC1zaXplPSIxMyIgbGVuZ3RoQWRqdXN0PSJzcGFjaW5nIiB0ZXh0TGVuZ3RoPSI2MSIgeD0iMTMxNS41IiB5PSIxMTkxLjI4OTEiPiYjMTcxO2luY2x1ZGUmIzE4Nzs8L3RleHQ+PC9nPjwhLS1TUkM9W2hQWlRSa0NlNTgzbF9ISWVMdnNCd0dFaWdhaFBKaFBQUVJrb2NjSmtnTnNJZUNMVzBQY1B4Q28tIC1zOUNSTW0zX2FibzRJTG0tM1hfUzAwQTF1S0tIdThTSm1oYkg0MmMyNlU5XzhVbTRXalM4NGVPZzRpOWdFSnFLbHI5NGZtZkJqM1ROZUF1R3JZWV9SM2J4UURmZ3l1dkM2TFFqeng2SGRHN0UzalBtQ3hSczU5aERKNTU2eTF2cFRiNEV2a1hnSTBpOG9NY2ZZQ0REM1ZZZ3htV1o0V2JpRnZoLWJQOWlhVUZscHZfcmxSTzd4amFQcmlzb05QSl9xb0pqRndYdklrbE9kUWFlOU5CSmZuSno4ZVBGYUFYZE8yczV3Y1drNENfNHNHX1V3STd0US1QMGU3SzJUMUFBTTB2UFhjV0J2Wkdvd1Q2Q1lRNDdYd1VxRnJONEVIbUdOajlzMTd6ZVJ6MGJEZkt6R2R6WFh1VmpTcktYLUJmZ0lNNjFuWlVsaW9uMGJINTZsdDVadHJDcG1PakdQWVpSbHRWUWVPZlFMWFhUUmZJMnRKdUlrMXhCUGlBVlkwSzc3czZWVVpudVE0eEd6REpwRzhfQVl6QkxxRWx4MDh6ZHRiSGZMZzZnLUhyVEVvc3JfZmpqSEJlNVFKS0lJSTNjbE1hYmlNRmRyS3RXNUwzcE5oY3g0MTQ0T25UcXB6aHZsa19rUWVwNDhKTU1na1hUdkVjVHpsNlQ5c1ZRd1ZlYlZ1ZEV0MUh6NXFONVJFVUZCeU5IQTZMYkRmRnJOZVNrREZuZnFWTURJcXVLeTFJcnZPVms5MUhBbU8yalZ2alBwMERmZXI3Um8zRkw0dDBqOUE2aTJmQlVhNlFnemlwQmNtNWNTenZuWkd4cXlnRkItYWc3MEpoUXJqMk44bGdQRDdyZjJ5Ulk0ak9sYkJFOXpYOHhqaDhVSE5mTVVqTmpoUFFHRFlTYzBTWnAyejB1VFJDNXMwV040c1RVbEM2OUhWZ1hrbUtYMTZ3QU5wRDFBVktiRG0wcXpjdk9iNW5idHBPbnZ4ekMxZ05uVEg5YVJhVHRIa1J3XzYtdzhuSTBfbGdSaEg2bzhiNWVoVEE4ckxZNWN3VG5xbEVCOVpEZ2JsWEVrbDlMM21mOS1wZFNVWUJtM2JDZUd3TXVEbllzcS1BemdJU0JvWlRHUGhGd1RWbThXd1FYNEtKYmlBV2dsYmdTWlp2OW51b1YwSWRoWXVhTTd6VkdKM25abnJxMWdiZDktbHVWbVdGMUJIaHlaOTZyLVhiMzhfUGlxMUozckZjWUJIcHBiQjFPczVGcGZ4c3hKc193TXlGb0hsdGg4S0ZYdjZKcmEzMmRiQnB0N1EtR2w1azllZVZBMEFTZlhuVFp0ZzNXZC1SWUZBeGV0ZGVZQmg0QnpMUHNwakl3Ml95SmM3Q2MxWkMta09zQzlseTRUV1dYeGVGRl9SS2xkNW9vUFM1UFpLQ2FaMi1nZ3oxLUFDLTItNEJjWFNHanM5eV9DWjZEMWxHNDVBSm5CeUJabENDSXJzTjZVRGRWUUFpQXNheEtLWVlkY3NoclNaS25xRDFRRF9nSWZkU3dodW0xNXpGR2tDNlVKUUlieXRST2ZzSWdQRUhnenVKTE1tWDNtTlFoUXJ6R21pampqMWV2cmJjNlMwY1dtX0dOTlpYNXhwSDFSVGFRNFVsSUtEektRYlZQejRoUHFIbkNUWFJreHN6NndVUFFDc0U3by16cXd3b0tVSnljdDRLUHRsdFliM29odWRnQlFaRmQyYnBMVUpiY005MXJFS01MRHNpSmxmOENWeG11QmJVMWFGWFJibGtFWHN4aHVRbG1HaldpSjBpUFNRMmk5R1AyeTRxdmRfXzBtMDBdLS0+PC9nPjwvc3ZnPg==;" vertex="1" parent="1">
            <mxGeometry x="-1190" y="-1770" width="1824" height="2835" as="geometry" />
          </mxCell>
        </UserObject>
      </root>
    </mxGraphModel>
  </diagram>
</mxfile>
